<svg width="268" height="448" viewBox="0 0 268 448" fill="none" xmlns="http://www.w3.org/2000/svg">
<g clip-path="url(#clip0_4067_1505)">
<rect x="0.17627" y="0.647095" width="267.2" height="579.272" rx="20.3969" fill="white"/>
<g filter="url(#filter0_d_4067_1505)">
<rect x="12.416" y="393.628" width="242.723" height="37.3943" rx="6.11907" fill="#049463"/>
</g>
<path d="M95.9665 416.186V407.72H101.243V408.815H97.2081V411.349H101.012V412.444H97.2081V415.091H101.3V416.186H95.9665ZM108.275 416.186H107.118V413.037C107.118 412.555 106.989 412.175 106.729 411.897C106.473 411.618 106.123 411.479 105.679 411.479C105.363 411.479 105.081 411.551 104.833 411.694C104.584 411.837 104.389 412.04 104.246 412.303C104.103 412.563 104.031 412.866 104.031 413.212V416.186H102.874V410.542H103.851L103.89 411.451C104.097 411.12 104.379 410.868 104.737 410.695C105.094 410.518 105.499 410.429 105.95 410.429C106.665 410.429 107.231 410.646 107.649 411.078C108.067 411.511 108.275 412.098 108.275 412.839V416.186ZM114.506 416.186H113.507L113.439 415.464C113.232 415.727 112.971 415.932 112.655 416.079C112.339 416.225 111.989 416.299 111.605 416.299C111.203 416.299 110.843 416.22 110.527 416.062C110.211 415.904 109.963 415.687 109.782 415.413C109.602 415.138 109.511 414.826 109.511 414.476C109.511 414.107 109.609 413.784 109.805 413.505C110 413.223 110.268 413.003 110.606 412.845C110.945 412.683 111.33 412.602 111.763 412.602C112.034 412.602 112.309 412.634 112.587 412.698C112.869 412.762 113.123 412.852 113.349 412.969V412.76C113.349 412.486 113.278 412.25 113.135 412.055C112.995 411.855 112.803 411.703 112.559 411.598C112.318 411.492 112.051 411.44 111.758 411.44C111.498 411.44 111.233 411.485 110.962 411.575C110.695 411.665 110.443 411.805 110.205 411.993L109.856 411.05C110.198 410.847 110.554 410.693 110.922 410.587C111.295 410.482 111.66 410.429 112.017 410.429C112.529 410.429 112.969 410.531 113.338 410.734C113.71 410.937 113.998 411.227 114.201 411.603C114.404 411.976 114.506 412.416 114.506 412.924V416.186ZM111.831 415.317C112.098 415.317 112.344 415.262 112.57 415.153C112.796 415.04 112.978 414.882 113.118 414.679C113.261 414.472 113.338 414.231 113.349 413.957V413.878C113.157 413.735 112.941 413.624 112.7 413.545C112.463 413.462 112.22 413.421 111.972 413.421C111.592 413.421 111.276 413.511 111.024 413.691C110.772 413.872 110.646 414.103 110.646 414.386C110.646 414.562 110.696 414.722 110.798 414.865C110.903 415.005 111.045 415.115 111.221 415.198C111.402 415.277 111.605 415.317 111.831 415.317ZM117.046 416.186H116.024V407.72H117.181V411.265C117.437 411.001 117.736 410.796 118.078 410.649C118.425 410.503 118.801 410.429 119.207 410.429C119.753 410.429 120.238 410.557 120.663 410.813C121.088 411.069 121.423 411.419 121.668 411.863C121.916 412.303 122.04 412.803 122.04 413.364C122.04 413.921 121.916 414.421 121.668 414.865C121.423 415.309 121.088 415.659 120.663 415.915C120.238 416.171 119.753 416.299 119.207 416.299C118.778 416.299 118.383 416.218 118.022 416.056C117.665 415.891 117.358 415.665 117.102 415.379L117.046 416.186ZM119.021 415.26C119.371 415.26 119.683 415.178 119.958 415.012C120.236 414.846 120.454 414.621 120.612 414.335C120.774 414.049 120.855 413.725 120.855 413.364C120.855 413.003 120.774 412.679 120.612 412.393C120.454 412.107 120.236 411.882 119.958 411.716C119.683 411.551 119.371 411.468 119.021 411.468C118.686 411.468 118.383 411.543 118.112 411.694C117.845 411.844 117.629 412.051 117.463 412.314C117.298 412.578 117.204 412.879 117.181 413.217V413.505C117.204 413.84 117.296 414.141 117.458 414.408C117.623 414.672 117.84 414.88 118.107 415.035C118.378 415.185 118.682 415.26 119.021 415.26ZM124.478 416.186H123.248V407.72H124.478V416.186ZM131.138 415.514C130.438 416.037 129.669 416.299 128.83 416.299C128.231 416.299 127.695 416.167 127.221 415.904C126.747 415.64 126.373 415.281 126.098 414.826C125.823 414.371 125.686 413.857 125.686 413.285C125.686 412.74 125.812 412.252 126.064 411.823C126.316 411.391 126.661 411.05 127.097 410.802C127.533 410.554 128.028 410.429 128.581 410.429C129.153 410.429 129.655 410.565 130.088 410.836C130.525 411.107 130.863 411.485 131.104 411.97C131.349 412.452 131.471 413.01 131.471 413.646V413.827H126.939C127.007 414.12 127.133 414.378 127.317 414.6C127.505 414.818 127.739 414.989 128.017 415.114C128.299 415.234 128.615 415.294 128.965 415.294C129.59 415.294 130.163 415.091 130.686 414.685L131.138 415.514ZM126.888 413.025H130.393C130.355 412.709 130.257 412.435 130.099 412.201C129.941 411.964 129.736 411.78 129.484 411.648C129.236 411.513 128.956 411.445 128.643 411.445C128.327 411.445 128.043 411.513 127.791 411.648C127.539 411.78 127.334 411.964 127.176 412.201C127.022 412.439 126.926 412.713 126.888 413.025ZM135.438 416.186V407.72H140.602V408.815H136.68V411.349H140.371V412.444H136.68V416.186H135.438ZM146.494 416.186H145.495L145.428 415.464C145.221 415.727 144.959 415.932 144.643 416.079C144.327 416.225 143.977 416.299 143.593 416.299C143.191 416.299 142.832 416.22 142.516 416.062C142.2 415.904 141.951 415.687 141.771 415.413C141.59 415.138 141.5 414.826 141.5 414.476C141.5 414.107 141.598 413.784 141.793 413.505C141.989 413.223 142.256 413.003 142.595 412.845C142.933 412.683 143.319 412.602 143.752 412.602C144.022 412.602 144.297 412.634 144.575 412.698C144.858 412.762 145.112 412.852 145.337 412.969V412.76C145.337 412.486 145.266 412.25 145.123 412.055C144.984 411.855 144.792 411.703 144.547 411.598C144.306 411.492 144.039 411.44 143.746 411.44C143.486 411.44 143.221 411.485 142.95 411.575C142.683 411.665 142.431 411.805 142.194 411.993L141.844 411.05C142.186 410.847 142.542 410.693 142.911 410.587C143.283 410.482 143.648 410.429 144.005 410.429C144.517 410.429 144.957 410.531 145.326 410.734C145.699 410.937 145.986 411.227 146.19 411.603C146.393 411.976 146.494 412.416 146.494 412.924V416.186ZM143.819 415.317C144.086 415.317 144.333 415.262 144.559 415.153C144.784 415.04 144.967 414.882 145.106 414.679C145.249 414.472 145.326 414.231 145.337 413.957V413.878C145.146 413.735 144.929 413.624 144.688 413.545C144.451 413.462 144.209 413.421 143.96 413.421C143.58 413.421 143.264 413.511 143.012 413.691C142.76 413.872 142.634 414.103 142.634 414.386C142.634 414.562 142.685 414.722 142.786 414.865C142.892 415.005 143.033 415.115 143.21 415.198C143.39 415.277 143.593 415.317 143.819 415.317ZM152.804 415.345C152.529 415.65 152.2 415.885 151.816 416.05C151.433 416.216 151.017 416.299 150.569 416.299C150.005 416.299 149.497 416.171 149.045 415.915C148.598 415.659 148.244 415.309 147.984 414.865C147.725 414.421 147.595 413.921 147.595 413.364C147.595 412.803 147.725 412.303 147.984 411.863C148.244 411.419 148.598 411.069 149.045 410.813C149.497 410.557 150.005 410.429 150.569 410.429C151.013 410.429 151.427 410.512 151.811 410.678C152.194 410.839 152.524 411.073 152.798 411.377L152.115 412.094C151.931 411.899 151.709 411.748 151.449 411.643C151.194 411.534 150.921 411.479 150.631 411.479C150.274 411.479 149.956 411.56 149.677 411.722C149.399 411.884 149.181 412.106 149.023 412.388C148.865 412.666 148.786 412.99 148.786 413.358C148.786 413.723 148.865 414.049 149.023 414.335C149.181 414.621 149.399 414.845 149.677 415.006C149.956 415.168 150.274 415.249 150.631 415.249C150.921 415.249 151.196 415.195 151.455 415.085C151.715 414.976 151.935 414.826 152.115 414.634L152.804 415.345ZM159.04 415.514C158.34 416.037 157.571 416.299 156.732 416.299C156.134 416.299 155.598 416.167 155.124 415.904C154.649 415.64 154.275 415.281 154 414.826C153.726 414.371 153.588 413.857 153.588 413.285C153.588 412.74 153.714 412.252 153.967 411.823C154.219 411.391 154.563 411.05 154.999 410.802C155.436 410.554 155.931 410.429 156.484 410.429C157.056 410.429 157.558 410.565 157.991 410.836C158.427 411.107 158.766 411.485 159.006 411.97C159.251 412.452 159.373 413.01 159.373 413.646V413.827H154.841C154.909 414.12 155.035 414.378 155.219 414.6C155.408 414.818 155.641 414.989 155.919 415.114C156.201 415.234 156.518 415.294 156.867 415.294C157.492 415.294 158.066 415.091 158.589 414.685L159.04 415.514ZM154.791 413.025H158.295C158.258 412.709 158.16 412.435 158.002 412.201C157.844 411.964 157.639 411.78 157.387 411.648C157.138 411.513 156.858 411.445 156.546 411.445C156.23 411.445 155.946 411.513 155.694 411.648C155.441 411.78 155.236 411.964 155.078 412.201C154.924 412.439 154.828 412.713 154.791 413.025ZM163.341 416.186V407.72H164.582V416.186H163.341ZM166.208 416.186V407.72H168.759C169.79 407.72 170.679 407.892 171.428 408.234C172.177 408.573 172.752 409.058 173.155 409.69C173.558 410.322 173.759 411.077 173.759 411.953C173.759 412.826 173.558 413.58 173.155 414.216C172.752 414.848 172.177 415.336 171.428 415.678C170.679 416.017 169.79 416.186 168.759 416.186H166.208ZM167.449 415.091H168.809C169.588 415.091 170.252 414.969 170.802 414.724C171.351 414.476 171.769 414.118 172.055 413.652C172.344 413.182 172.489 412.615 172.489 411.953C172.489 411.287 172.344 410.721 172.055 410.254C171.769 409.788 171.351 409.432 170.802 409.188C170.252 408.939 169.588 408.815 168.809 408.815H167.449V415.091Z" fill="white"/>
<path d="M49.2369 91.1949H48.3156L51.3832 83.7254H52.3343L55.3968 91.1949H54.4756L53.6639 89.1782H50.0486L49.2369 91.1949ZM50.3573 88.4013H53.3551L51.8562 84.6715L50.3573 88.4013ZM60.5309 90.4779C60.2885 90.7401 60.0014 90.9426 59.6694 91.0854C59.3374 91.2248 58.9805 91.2945 58.5988 91.2945C58.1041 91.2945 57.6593 91.1817 57.2642 90.9559C56.8725 90.7302 56.5621 90.4214 56.333 90.0297C56.1072 89.638 55.9944 89.1964 55.9944 88.7051C55.9944 88.2104 56.1072 87.7689 56.333 87.3805C56.5621 86.9887 56.8725 86.68 57.2642 86.4543C57.6593 86.2285 58.1041 86.1156 58.5988 86.1156C58.9772 86.1156 59.3324 86.1854 59.6644 86.3248C59.9964 86.4642 60.2836 86.6651 60.5259 86.9273L60.0379 87.4402C59.8619 87.2543 59.6511 87.1116 59.4055 87.012C59.1631 86.9124 58.9058 86.8626 58.6336 86.8626C58.285 86.8626 57.9746 86.9423 57.7024 87.1016C57.4335 87.2577 57.221 87.4734 57.065 87.749C56.9123 88.0245 56.8359 88.3416 56.8359 88.7001C56.8359 89.0586 56.9123 89.3773 57.065 89.6562C57.221 89.9351 57.4335 90.1542 57.7024 90.3135C57.9746 90.4696 58.285 90.5476 58.6336 90.5476C58.9058 90.5476 59.1648 90.4978 59.4105 90.3982C59.6561 90.2953 59.8653 90.1525 60.0379 89.9699L60.5309 90.4779ZM64.5196 91.0754C64.191 91.2215 63.8706 91.2945 63.5586 91.2945C63.2598 91.2945 62.9975 91.2298 62.7718 91.1003C62.546 90.9675 62.3701 90.7833 62.2439 90.5476C62.1178 90.3086 62.0547 90.0314 62.0547 89.716V86.9472H61.1832V86.2152H62.0945V84.9703H62.8714V86.2152H64.3603V86.9472H62.8714V89.5666C62.8714 89.8654 62.951 90.106 63.1104 90.2886C63.2731 90.4712 63.4855 90.5625 63.7478 90.5625C63.9603 90.5625 64.1727 90.4994 64.3852 90.3733L64.5196 91.0754ZM65.894 84.6416C65.7546 84.6416 65.6368 84.5935 65.5405 84.4972C65.4475 84.3976 65.4011 84.2781 65.4011 84.1387C65.4011 84.0026 65.4475 83.8864 65.5405 83.7901C65.6368 83.6938 65.7546 83.6457 65.894 83.6457C66.0368 83.6457 66.1563 83.6938 66.2526 83.7901C66.3489 83.8864 66.397 84.0026 66.397 84.1387C66.397 84.2781 66.3489 84.3976 66.2526 84.4972C66.1563 84.5935 66.0368 84.6416 65.894 84.6416ZM66.3024 91.1949H65.4857V86.2152H66.3024V91.1949ZM72.4573 86.2152L70.3609 91.1949H69.5691L67.4776 86.2152H68.359L69.9724 90.3384L71.5908 86.2152H72.4573ZM77.4719 91.1949H76.7697L76.715 90.5376C76.5324 90.7733 76.3 90.9592 76.0178 91.0954C75.7356 91.2281 75.4202 91.2945 75.0717 91.2945C74.7131 91.2945 74.3928 91.2248 74.1106 91.0854C73.8284 90.9426 73.606 90.7484 73.4433 90.5028C73.2839 90.2571 73.2043 89.9782 73.2043 89.6662C73.2043 89.3375 73.2906 89.0487 73.4632 88.7997C73.6392 88.5474 73.8765 88.3499 74.1753 88.2071C74.4774 88.0644 74.8194 87.993 75.2011 87.993C75.4501 87.993 75.7041 88.0245 75.963 88.0876C76.222 88.1474 76.4527 88.2304 76.6552 88.3366V88.1274C76.6552 87.8619 76.5888 87.6361 76.456 87.4502C76.3232 87.261 76.1456 87.1166 75.9232 87.017C75.7008 86.9141 75.4551 86.8626 75.1862 86.8626C74.9538 86.8626 74.7164 86.9058 74.4741 86.9921C74.2318 87.0751 73.9994 87.2045 73.7769 87.3805L73.508 86.6783C73.7969 86.4924 74.1006 86.353 74.4193 86.26C74.738 86.1638 75.0534 86.1156 75.3655 86.1156C75.797 86.1156 76.1689 86.2036 76.4809 86.3796C76.7963 86.5522 77.0403 86.7995 77.2129 87.1215C77.3856 87.4402 77.4719 87.8187 77.4719 88.2569V91.1949ZM75.2161 90.5476C75.4717 90.5476 75.7057 90.4945 75.9182 90.3882C76.1307 90.282 76.3033 90.1293 76.4361 89.9301C76.5689 89.7276 76.6419 89.4886 76.6552 89.213V89.1284C76.4726 88.9856 76.2668 88.8761 76.0377 88.7997C75.812 88.72 75.5813 88.6802 75.3455 88.6802C74.977 88.6802 74.6683 88.7698 74.4193 88.9491C74.1737 89.1284 74.0508 89.3558 74.0508 89.6313C74.0508 89.8039 74.1006 89.96 74.2002 90.0994C74.3031 90.2388 74.4426 90.3484 74.6185 90.4281C74.7945 90.5077 74.9936 90.5476 75.2161 90.5476ZM81.6598 91.0754C81.3312 91.2215 81.0108 91.2945 80.6987 91.2945C80.4 91.2945 80.1377 91.2298 79.9119 91.1003C79.6862 90.9675 79.5102 90.7833 79.3841 90.5476C79.2579 90.3086 79.1949 90.0314 79.1949 89.716V86.9472H78.3234V86.2152H79.2347V84.9703H80.0115V86.2152H81.5005V86.9472H80.0115V89.5666C80.0115 89.8654 80.0912 90.106 80.2506 90.2886C80.4132 90.4712 80.6257 90.5625 80.888 90.5625C81.1004 90.5625 81.3129 90.4994 81.5254 90.3733L81.6598 91.0754ZM87.1226 90.5824C86.5051 91.0572 85.8245 91.2945 85.0809 91.2945C84.563 91.2945 84.0982 91.1783 83.6866 90.946C83.2749 90.7136 82.9496 90.3982 82.7105 89.9998C82.4748 89.5981 82.357 89.145 82.357 88.6404C82.357 88.1557 82.4665 87.7241 82.6856 87.3456C82.9048 86.9638 83.2052 86.6634 83.587 86.4443C83.9688 86.2252 84.402 86.1156 84.8867 86.1156C85.3847 86.1156 85.8229 86.2351 86.2013 86.4742C86.5831 86.7132 86.8802 87.0452 87.0927 87.4701C87.3052 87.8951 87.4114 88.3864 87.4114 88.9441V89.1035H83.2434C83.3031 89.3956 83.4226 89.6496 83.6019 89.8654C83.7812 90.0811 84.0053 90.2488 84.2742 90.3683C84.5464 90.4878 84.8485 90.5476 85.1805 90.5476C85.7515 90.5476 86.2727 90.36 86.7441 89.9849L87.1226 90.5824ZM83.2135 88.4063H86.6395C86.603 88.0976 86.5068 87.8287 86.3507 87.5996C86.198 87.3672 85.9988 87.1863 85.7532 87.0568C85.5108 86.9273 85.2369 86.8626 84.9315 86.8626C84.6228 86.8626 84.3439 86.9273 84.0949 87.0568C83.8492 87.1863 83.6484 87.3672 83.4924 87.5996C83.3397 87.8287 83.2467 88.0976 83.2135 88.4063ZM91.0516 91.1949V83.7254H95.5532V84.5022H91.928V87.012H95.3491V87.7888H91.928V91.1949H91.0516ZM100.717 91.1949H100.015L99.9603 90.5376C99.7777 90.7733 99.5453 90.9592 99.2631 91.0954C98.9809 91.2281 98.6656 91.2945 98.317 91.2945C97.9584 91.2945 97.6381 91.2248 97.3559 91.0854C97.0737 90.9426 96.8513 90.7484 96.6886 90.5028C96.5293 90.2571 96.4496 89.9782 96.4496 89.6662C96.4496 89.3375 96.5359 89.0487 96.7085 88.7997C96.8845 88.5474 97.1218 88.3499 97.4206 88.2071C97.7227 88.0644 98.0647 87.993 98.4464 87.993C98.6954 87.993 98.9494 88.0245 99.2083 88.0876C99.4673 88.1474 99.698 88.2304 99.9005 88.3366V88.1274C99.9005 87.8619 99.8341 87.6361 99.7013 87.4502C99.5685 87.261 99.3909 87.1166 99.1685 87.017C98.9461 86.9141 98.7004 86.8626 98.4315 86.8626C98.1991 86.8626 97.9618 86.9058 97.7194 86.9921C97.4771 87.0751 97.2447 87.2045 97.0222 87.3805L96.7533 86.6783C97.0422 86.4924 97.3459 86.353 97.6646 86.26C97.9833 86.1638 98.2987 86.1156 98.6108 86.1156C99.0424 86.1156 99.4142 86.2036 99.7262 86.3796C100.042 86.5522 100.286 86.7995 100.458 87.1215C100.631 87.4402 100.717 87.8187 100.717 88.2569V91.1949ZM98.4614 90.5476C98.717 90.5476 98.9511 90.4945 99.1635 90.3882C99.376 90.282 99.5486 90.1293 99.6814 89.9301C99.8142 89.7276 99.8872 89.4886 99.9005 89.213V89.1284C99.7179 88.9856 99.5121 88.8761 99.283 88.7997C99.0573 88.72 98.8266 88.6802 98.5909 88.6802C98.2224 88.6802 97.9136 88.7698 97.6646 88.9491C97.419 89.1284 97.2961 89.3558 97.2961 89.6313C97.2961 89.8039 97.3459 89.96 97.4455 90.0994C97.5484 90.2388 97.6879 90.3484 97.8638 90.4281C98.0398 90.5077 98.239 90.5476 98.4614 90.5476ZM106.304 90.4779C106.062 90.7401 105.775 90.9426 105.443 91.0854C105.111 91.2248 104.754 91.2945 104.372 91.2945C103.878 91.2945 103.433 91.1817 103.038 90.9559C102.646 90.7302 102.336 90.4214 102.107 90.0297C101.881 89.638 101.768 89.1964 101.768 88.7051C101.768 88.2104 101.881 87.7689 102.107 87.3805C102.336 86.9887 102.646 86.68 103.038 86.4543C103.433 86.2285 103.878 86.1156 104.372 86.1156C104.751 86.1156 105.106 86.1854 105.438 86.3248C105.77 86.4642 106.057 86.6651 106.299 86.9273L105.811 87.4402C105.635 87.2543 105.425 87.1116 105.179 87.012C104.937 86.9124 104.679 86.8626 104.407 86.8626C104.059 86.8626 103.748 86.9423 103.476 87.1016C103.207 87.2577 102.995 87.4734 102.839 87.749C102.686 88.0245 102.609 88.3416 102.609 88.7001C102.609 89.0586 102.686 89.3773 102.839 89.6562C102.995 89.9351 103.207 90.1542 103.476 90.3135C103.748 90.4696 104.059 90.5476 104.407 90.5476C104.679 90.5476 104.938 90.4978 105.184 90.3982C105.43 90.2953 105.639 90.1525 105.811 89.9699L106.304 90.4779ZM111.822 90.5824C111.204 91.0572 110.524 91.2945 109.78 91.2945C109.262 91.2945 108.798 91.1783 108.386 90.946C107.974 90.7136 107.649 90.3982 107.41 89.9998C107.174 89.5981 107.056 89.145 107.056 88.6404C107.056 88.1557 107.166 87.7241 107.385 87.3456C107.604 86.9638 107.905 86.6634 108.286 86.4443C108.668 86.2252 109.101 86.1156 109.586 86.1156C110.084 86.1156 110.522 86.2351 110.901 86.4742C111.282 86.7132 111.58 87.0452 111.792 87.4701C112.005 87.8951 112.111 88.3864 112.111 88.9441V89.1035H107.943C108.003 89.3956 108.122 89.6496 108.301 89.8654C108.481 90.0811 108.705 90.2488 108.974 90.3683C109.246 90.4878 109.548 90.5476 109.88 90.5476C110.451 90.5476 110.972 90.36 111.444 89.9849L111.822 90.5824ZM107.913 88.4063H111.339C111.302 88.0976 111.206 87.8287 111.05 87.5996C110.897 87.3672 110.698 87.1863 110.453 87.0568C110.21 86.9273 109.936 86.8626 109.631 86.8626C109.322 86.8626 109.043 86.9273 108.794 87.0568C108.549 87.1863 108.348 87.3672 108.192 87.5996C108.039 87.8287 107.946 88.0976 107.913 88.4063ZM115.751 91.1949V83.7254H116.627V91.1949H115.751ZM118.171 91.1949V83.7254H120.322C121.239 83.7254 122.025 83.8748 122.683 84.1735C123.343 84.4723 123.85 84.9006 124.202 85.4583C124.557 86.016 124.734 86.6833 124.734 87.4602C124.734 88.2337 124.557 88.901 124.202 89.462C123.85 90.0197 123.343 90.448 122.683 90.7468C122.025 91.0456 121.239 91.1949 120.322 91.1949H118.171ZM119.048 90.4181H120.362C121.096 90.4181 121.722 90.3019 122.24 90.0695C122.757 89.8371 123.152 89.5002 123.425 89.0586C123.7 88.6171 123.838 88.0843 123.838 87.4602C123.838 86.836 123.7 86.3032 123.425 85.8617C123.152 85.4201 122.757 85.0832 122.24 84.8508C121.722 84.6184 121.096 84.5022 120.362 84.5022H119.048V90.4181ZM129.61 91.1949H128.793V86.9472H127.921V86.2152H128.793V85.1446C128.793 84.8358 128.858 84.5636 128.987 84.3279C129.12 84.0922 129.302 83.908 129.535 83.7752C129.771 83.6424 130.041 83.576 130.347 83.576C130.536 83.576 130.725 83.6025 130.914 83.6557C131.107 83.7055 131.294 83.7835 131.477 83.8897L131.163 84.5321C131.05 84.4591 130.936 84.4043 130.82 84.3678C130.703 84.3279 130.587 84.308 130.471 84.308C130.215 84.308 130.008 84.401 129.849 84.5869C129.689 84.7695 129.61 85.0085 129.61 85.3039V86.2152H131.148V86.9472H129.61V91.1949ZM134.634 91.2945C134.139 91.2945 133.695 91.1817 133.299 90.9559C132.904 90.7302 132.592 90.4231 132.363 90.0347C132.138 89.6429 132.025 89.1997 132.025 88.7051C132.025 88.2138 132.138 87.7739 132.363 87.3855C132.592 86.9937 132.904 86.685 133.299 86.4592C133.695 86.2302 134.139 86.1156 134.634 86.1156C135.129 86.1156 135.572 86.2302 135.964 86.4592C136.355 86.685 136.664 86.9937 136.89 87.3855C137.116 87.7739 137.228 88.2138 137.228 88.7051C137.228 89.1997 137.116 89.6429 136.89 90.0347C136.664 90.4231 136.355 90.7302 135.964 90.9559C135.572 91.1817 135.129 91.2945 134.634 91.2945ZM134.629 90.5575C134.964 90.5575 135.265 90.4762 135.53 90.3135C135.796 90.1509 136.005 89.9301 136.158 89.6512C136.314 89.3724 136.392 89.057 136.392 88.7051C136.392 88.3532 136.314 88.0378 136.158 87.7589C136.005 87.4801 135.796 87.2593 135.53 87.0966C135.265 86.934 134.964 86.8526 134.629 86.8526C134.294 86.8526 133.992 86.934 133.723 87.0966C133.457 87.2593 133.246 87.4801 133.09 87.7589C132.938 88.0378 132.861 88.3532 132.861 88.7051C132.861 89.057 132.938 89.3724 133.09 89.6512C133.246 89.9301 133.457 90.1509 133.723 90.3135C133.992 90.4762 134.294 90.5575 134.629 90.5575ZM139.195 91.1949H138.379V86.2152H139.096L139.131 87.2012C139.303 86.8593 139.546 86.5937 139.858 86.4045C140.173 86.2119 140.535 86.1156 140.943 86.1156C141.033 86.1156 141.124 86.1206 141.217 86.1306C141.31 86.1405 141.403 86.1555 141.496 86.1754L141.396 86.9124C141.214 86.8692 141.033 86.8477 140.854 86.8477C140.528 86.8477 140.24 86.9273 139.987 87.0867C139.738 87.246 139.544 87.4651 139.405 87.744C139.265 88.0229 139.195 88.3432 139.195 88.7051V91.1949ZM148.851 91.1949H148.149L148.094 90.5376C147.912 90.7733 147.679 90.9592 147.397 91.0954C147.115 91.2281 146.799 91.2945 146.451 91.2945C146.092 91.2945 145.772 91.2248 145.49 91.0854C145.208 90.9426 144.985 90.7484 144.823 90.5028C144.663 90.2571 144.584 89.9782 144.584 89.6662C144.584 89.3375 144.67 89.0487 144.842 88.7997C145.018 88.5474 145.256 88.3499 145.555 88.2071C145.857 88.0644 146.199 87.993 146.58 87.993C146.829 87.993 147.083 88.0245 147.342 88.0876C147.601 88.1474 147.832 88.2304 148.034 88.3366V88.1274C148.034 87.8619 147.968 87.6361 147.835 87.4502C147.702 87.261 147.525 87.1166 147.302 87.017C147.08 86.9141 146.834 86.8626 146.565 86.8626C146.333 86.8626 146.096 86.9058 145.853 86.9921C145.611 87.0751 145.379 87.2045 145.156 87.3805L144.887 86.6783C145.176 86.4924 145.48 86.353 145.799 86.26C146.117 86.1638 146.433 86.1156 146.745 86.1156C147.176 86.1156 147.548 86.2036 147.86 86.3796C148.176 86.5522 148.42 86.7995 148.592 87.1215C148.765 87.4402 148.851 87.8187 148.851 88.2569V91.1949ZM146.595 90.5476C146.851 90.5476 147.085 90.4945 147.297 90.3882C147.51 90.282 147.683 90.1293 147.815 89.9301C147.948 89.7276 148.021 89.4886 148.034 89.213V89.1284C147.852 88.9856 147.646 88.8761 147.417 88.7997C147.191 88.72 146.961 88.6802 146.725 88.6802C146.356 88.6802 146.048 88.7698 145.799 88.9491C145.553 89.1284 145.43 89.3558 145.43 89.6313C145.43 89.8039 145.48 89.96 145.579 90.0994C145.682 90.2388 145.822 90.3484 145.998 90.4281C146.174 90.5077 146.373 90.5476 146.595 90.5476ZM155.16 91.1949H154.433L154.389 90.4679C154.16 90.7235 153.881 90.926 153.552 91.0754C153.223 91.2215 152.863 91.2945 152.471 91.2945C151.983 91.2945 151.545 91.1817 151.157 90.9559C150.768 90.7302 150.461 90.4214 150.235 90.0297C150.013 89.638 149.902 89.1964 149.902 88.7051C149.902 88.2104 150.013 87.7689 150.235 87.3805C150.461 86.9887 150.768 86.68 151.157 86.4543C151.545 86.2285 151.983 86.1156 152.471 86.1156C152.85 86.1156 153.198 86.1837 153.517 86.3198C153.839 86.4559 154.115 86.6451 154.344 86.8875V83.7254H155.16V91.1949ZM152.546 90.5575C152.878 90.5575 153.18 90.4812 153.452 90.3285C153.725 90.1724 153.94 89.9616 154.1 89.6961C154.262 89.4271 154.344 89.1234 154.344 88.7848V88.6155C154.344 88.2768 154.262 87.9747 154.1 87.7091C153.94 87.4402 153.725 87.2294 153.452 87.0767C153.18 86.924 152.878 86.8477 152.546 86.8477C152.201 86.8477 151.892 86.929 151.62 87.0917C151.348 87.2543 151.132 87.4751 150.972 87.754C150.816 88.0328 150.738 88.3482 150.738 88.7001C150.738 89.052 150.816 89.3691 150.972 89.6512C151.132 89.9301 151.348 90.1509 151.62 90.3135C151.892 90.4762 152.201 90.5575 152.546 90.5575ZM161.564 91.1949H160.837L160.792 90.4679C160.563 90.7235 160.285 90.926 159.956 91.0754C159.627 91.2215 159.267 91.2945 158.875 91.2945C158.387 91.2945 157.949 91.1817 157.561 90.9559C157.172 90.7302 156.865 90.4214 156.639 90.0297C156.417 89.638 156.306 89.1964 156.306 88.7051C156.306 88.2104 156.417 87.7689 156.639 87.3805C156.865 86.9887 157.172 86.68 157.561 86.4543C157.949 86.2285 158.387 86.1156 158.875 86.1156C159.254 86.1156 159.602 86.1837 159.921 86.3198C160.243 86.4559 160.519 86.6451 160.748 86.8875V83.7254H161.564V91.1949ZM158.95 90.5575C159.282 90.5575 159.584 90.4812 159.856 90.3285C160.129 90.1724 160.344 89.9616 160.504 89.6961C160.666 89.4271 160.748 89.1234 160.748 88.7848V88.6155C160.748 88.2768 160.666 87.9747 160.504 87.7091C160.344 87.4402 160.129 87.2294 159.856 87.0767C159.584 86.924 159.282 86.8477 158.95 86.8477C158.605 86.8477 158.296 86.929 158.024 87.0917C157.752 87.2543 157.536 87.4751 157.376 87.754C157.22 88.0328 157.142 88.3482 157.142 88.7001C157.142 89.052 157.22 89.3691 157.376 89.6512C157.536 89.9301 157.752 90.1509 158.024 90.3135C158.296 90.4762 158.605 90.5575 158.95 90.5575ZM167.475 90.5824C166.858 91.0572 166.177 91.2945 165.434 91.2945C164.916 91.2945 164.451 91.1783 164.039 90.946C163.628 90.7136 163.302 90.3982 163.063 89.9998C162.828 89.5981 162.71 89.145 162.71 88.6404C162.71 88.1557 162.819 87.7241 163.038 87.3456C163.257 86.9638 163.558 86.6634 163.94 86.4443C164.321 86.2252 164.755 86.1156 165.239 86.1156C165.737 86.1156 166.176 86.2351 166.554 86.4742C166.936 86.7132 167.233 87.0452 167.445 87.4701C167.658 87.8951 167.764 88.3864 167.764 88.9441V89.1035H163.596C163.656 89.3956 163.775 89.6496 163.955 89.8654C164.134 90.0811 164.358 90.2488 164.627 90.3683C164.899 90.4878 165.201 90.5476 165.533 90.5476C166.104 90.5476 166.625 90.36 167.097 89.9849L167.475 90.5824ZM163.566 88.4063H166.992C166.956 88.0976 166.859 87.8287 166.703 87.5996C166.551 87.3672 166.352 87.1863 166.106 87.0568C165.864 86.9273 165.59 86.8626 165.284 86.8626C164.975 86.8626 164.697 86.9273 164.448 87.0568C164.202 87.1863 164.001 87.3672 163.845 87.5996C163.692 87.8287 163.599 88.0976 163.566 88.4063ZM173.775 91.1949H173.048L173.003 90.4679C172.774 90.7235 172.495 90.926 172.166 91.0754C171.838 91.2215 171.477 91.2945 171.086 91.2945C170.598 91.2945 170.159 91.1817 169.771 90.9559C169.383 90.7302 169.075 90.4214 168.85 90.0297C168.627 89.638 168.516 89.1964 168.516 88.7051C168.516 88.2104 168.627 87.7689 168.85 87.3805C169.075 86.9887 169.383 86.68 169.771 86.4543C170.159 86.2285 170.598 86.1156 171.086 86.1156C171.464 86.1156 171.813 86.1837 172.131 86.3198C172.453 86.4559 172.729 86.6451 172.958 86.8875V83.7254H173.775V91.1949ZM171.16 90.5575C171.492 90.5575 171.794 90.4812 172.067 90.3285C172.339 90.1724 172.555 89.9616 172.714 89.6961C172.877 89.4271 172.958 89.1234 172.958 88.7848V88.6155C172.958 88.2768 172.877 87.9747 172.714 87.7091C172.555 87.4402 172.339 87.2294 172.067 87.0767C171.794 86.924 171.492 86.8477 171.16 86.8477C170.815 86.8477 170.506 86.929 170.234 87.0917C169.962 87.2543 169.746 87.4751 169.587 87.754C169.431 88.0328 169.353 88.3482 169.353 88.7001C169.353 89.052 169.431 89.3691 169.587 89.6512C169.746 89.9301 169.962 90.1509 170.234 90.3135C170.506 90.4762 170.815 90.5575 171.16 90.5575ZM177.46 90.7617L177.674 89.9948C177.793 90.1077 177.929 90.2056 178.082 90.2886C178.235 90.3716 178.396 90.4364 178.565 90.4828C178.734 90.526 178.905 90.5476 179.078 90.5476C179.387 90.5476 179.636 90.4795 179.825 90.3434C180.014 90.2073 180.109 90.0297 180.109 89.8106C180.109 89.6512 180.059 89.5201 179.959 89.4172C179.863 89.311 179.735 89.2197 179.576 89.1433C179.417 89.0669 179.246 88.9939 179.063 88.9242C178.841 88.8379 178.62 88.7399 178.401 88.6304C178.182 88.5208 177.999 88.3764 177.853 88.1972C177.71 88.0179 177.639 87.7822 177.639 87.49C177.639 87.2112 177.709 86.9688 177.848 86.763C177.987 86.5572 178.182 86.3978 178.431 86.2849C178.683 86.1721 178.972 86.1156 179.297 86.1156C179.788 86.1156 180.271 86.2385 180.746 86.4841L180.502 87.2211C180.396 87.1514 180.273 87.09 180.134 87.0369C179.994 86.9804 179.852 86.9373 179.705 86.9074C179.559 86.8775 179.422 86.8626 179.292 86.8626C179.05 86.8626 178.854 86.919 178.705 87.0319C178.555 87.1415 178.48 87.2892 178.48 87.4751C178.48 87.5813 178.51 87.6793 178.57 87.7689C178.633 87.8552 178.738 87.9415 178.884 88.0278C179.03 88.1142 179.232 88.2104 179.491 88.3167C179.72 88.4096 179.946 88.5159 180.169 88.6354C180.391 88.7516 180.575 88.9026 180.721 89.0885C180.871 89.2711 180.945 89.5101 180.945 89.8056C180.945 90.0977 180.867 90.3567 180.711 90.5824C180.559 90.8049 180.345 90.9792 180.069 91.1053C179.797 91.2315 179.481 91.2945 179.123 91.2945C178.529 91.2945 177.974 91.1169 177.46 90.7617ZM186.508 90.5824C185.89 91.0572 185.21 91.2945 184.466 91.2945C183.948 91.2945 183.483 91.1783 183.072 90.946C182.66 90.7136 182.335 90.3982 182.096 89.9998C181.86 89.5981 181.742 89.145 181.742 88.6404C181.742 88.1557 181.852 87.7241 182.071 87.3456C182.29 86.9638 182.59 86.6634 182.972 86.4443C183.354 86.2252 183.787 86.1156 184.272 86.1156C184.77 86.1156 185.208 86.2351 185.587 86.4742C185.968 86.7132 186.265 87.0452 186.478 87.4701C186.69 87.8951 186.797 88.3864 186.797 88.9441V89.1035H182.629C182.688 89.3956 182.808 89.6496 182.987 89.8654C183.166 90.0811 183.39 90.2488 183.659 90.3683C183.932 90.4878 184.234 90.5476 184.566 90.5476C185.137 90.5476 185.658 90.36 186.129 89.9849L186.508 90.5824ZM182.599 88.4063H186.025C185.988 88.0976 185.892 87.8287 185.736 87.5996C185.583 87.3672 185.384 87.1863 185.138 87.0568C184.896 86.9273 184.622 86.8626 184.317 86.8626C184.008 86.8626 183.729 86.9273 183.48 87.0568C183.234 87.1863 183.034 87.3672 182.878 87.5996C182.725 87.8287 182.632 88.0976 182.599 88.4063ZM192.085 90.4779C191.843 90.7401 191.556 90.9426 191.224 91.0854C190.892 91.2248 190.535 91.2945 190.153 91.2945C189.658 91.2945 189.213 91.1817 188.818 90.9559C188.427 90.7302 188.116 90.4214 187.887 90.0297C187.661 89.638 187.548 89.1964 187.548 88.7051C187.548 88.2104 187.661 87.7689 187.887 87.3805C188.116 86.9887 188.427 86.68 188.818 86.4543C189.213 86.2285 189.658 86.1156 190.153 86.1156C190.531 86.1156 190.887 86.1854 191.219 86.3248C191.551 86.4642 191.838 86.6651 192.08 86.9273L191.592 87.4402C191.416 87.2543 191.205 87.1116 190.96 87.012C190.717 86.9124 190.46 86.8626 190.188 86.8626C189.839 86.8626 189.529 86.9423 189.257 87.1016C188.988 87.2577 188.775 87.4734 188.619 87.749C188.466 88.0245 188.39 88.3416 188.39 88.7001C188.39 89.0586 188.466 89.3773 188.619 89.6562C188.775 89.9351 188.988 90.1542 189.257 90.3135C189.529 90.4696 189.839 90.5476 190.188 90.5476C190.46 90.5476 190.719 90.4978 190.965 90.3982C191.21 90.2953 191.419 90.1525 191.592 89.9699L192.085 90.4779ZM197.797 91.1949H197.08L197.05 90.3882C196.867 90.6804 196.627 90.9045 196.328 91.0605C196.032 91.2165 195.682 91.2945 195.277 91.2945C194.616 91.2945 194.094 91.0954 193.708 90.697C193.327 90.2953 193.136 89.7475 193.136 89.0537V86.2152H193.952V88.9939C193.952 89.4653 194.085 89.8421 194.351 90.1243C194.62 90.4065 194.977 90.5476 195.421 90.5476C195.886 90.5476 196.261 90.3949 196.547 90.0894C196.836 89.784 196.98 89.3856 196.98 88.8943V86.2152H197.797V91.1949ZM200.157 91.1949H199.34V86.2152H200.058L200.092 87.2012C200.265 86.8593 200.507 86.5937 200.819 86.4045C201.135 86.2119 201.497 86.1156 201.905 86.1156C201.995 86.1156 202.086 86.1206 202.179 86.1306C202.272 86.1405 202.365 86.1555 202.458 86.1754L202.358 86.9124C202.176 86.8692 201.995 86.8477 201.815 86.8477C201.49 86.8477 201.201 86.9273 200.949 87.0867C200.7 87.246 200.506 87.4651 200.366 87.744C200.227 88.0229 200.157 88.3432 200.157 88.7051V91.1949ZM203.733 84.6416C203.593 84.6416 203.475 84.5935 203.379 84.4972C203.286 84.3976 203.24 84.2781 203.24 84.1387C203.24 84.0026 203.286 83.8864 203.379 83.7901C203.475 83.6938 203.593 83.6457 203.733 83.6457C203.875 83.6457 203.995 83.6938 204.091 83.7901C204.187 83.8864 204.236 84.0026 204.236 84.1387C204.236 84.2781 204.187 84.3976 204.091 84.4972C203.995 84.5935 203.875 84.6416 203.733 84.6416ZM204.141 91.1949H203.324V86.2152H204.141V91.1949ZM208.603 91.0754C208.274 91.2215 207.954 91.2945 207.642 91.2945C207.343 91.2945 207.081 91.2298 206.855 91.1003C206.629 90.9675 206.453 90.7833 206.327 90.5476C206.201 90.3086 206.138 90.0314 206.138 89.716V86.9472H205.266V86.2152H206.178V84.9703H206.954V86.2152H208.443V86.9472H206.954V89.5666C206.954 89.8654 207.034 90.106 207.193 90.2886C207.356 90.4712 207.569 90.5625 207.831 90.5625C208.043 90.5625 208.256 90.4994 208.468 90.3733L208.603 91.0754ZM211.277 93.6848H210.385L211.431 91.1551L209.051 86.2152H209.952L211.825 90.2139L213.478 86.2152H214.364L211.277 93.6848ZM218.283 91.2945C218.137 91.2945 218.018 91.2497 217.925 91.1601C217.835 91.0671 217.79 90.9476 217.79 90.8015C217.79 90.6522 217.835 90.531 217.925 90.438C218.018 90.3451 218.137 90.2986 218.283 90.2986C218.429 90.2986 218.549 90.3451 218.642 90.438C218.738 90.531 218.786 90.6522 218.786 90.8015C218.786 90.9476 218.738 91.0671 218.642 91.1601C218.549 91.2497 218.429 91.2945 218.283 91.2945Z" fill="#666666"/>
<rect x="12.0743" y="37.0217" width="26.516" height="26.516" rx="7.81882" stroke="#E5E7EB" stroke-width="0.679897"/>
<g clip-path="url(#clip1_4067_1505)">
<path d="M27.3743 46.2003L23.2949 50.2797L27.3743 54.3591" stroke="black" stroke-width="1.01985" stroke-linecap="round" stroke-linejoin="round"/>
</g>
<path d="M84.2607 54.7797H82.1161L86.0866 44.8202H88.2445L92.2083 54.7797H90.0637L89.247 52.6417H85.0774L84.2607 54.7797ZM85.748 50.849H88.5831L87.1622 47.1574L85.748 50.849ZM99.0604 53.724C98.7373 54.0958 98.3411 54.3879 97.8719 54.6004C97.4027 54.8084 96.887 54.9125 96.3249 54.9125C95.6432 54.9125 95.0324 54.7642 94.4923 54.4676C93.9567 54.1666 93.534 53.7549 93.2242 53.2326C92.9188 52.7103 92.766 52.1194 92.766 51.4599C92.766 50.7959 92.9188 50.205 93.2242 49.6871C93.534 49.1648 93.9567 48.7553 94.4923 48.4587C95.0324 48.1577 95.6432 48.0072 96.3249 48.0072C96.8826 48.0072 97.3961 48.1113 97.8653 48.3193C98.3345 48.5274 98.7306 48.8151 99.0538 49.1825L97.9317 50.3577C97.759 50.1585 97.5399 50.0036 97.2743 49.8929C97.0132 49.7778 96.7387 49.7203 96.451 49.7203C96.119 49.7203 95.8225 49.7955 95.5613 49.946C95.3002 50.0921 95.0943 50.2957 94.9438 50.5569C94.7933 50.8136 94.7181 51.1102 94.7181 51.4466C94.7181 51.7874 94.7933 52.0906 94.9438 52.3562C95.0943 52.6218 95.3002 52.8298 95.5613 52.9803C95.8225 53.1264 96.119 53.1994 96.451 53.1994C96.7387 53.1994 97.0154 53.1441 97.281 53.0334C97.5466 52.9184 97.7635 52.7612 97.9317 52.562L99.0604 53.724ZM104.804 54.607C104.295 54.8106 103.801 54.9125 103.323 54.9125C102.827 54.9125 102.389 54.8084 102.008 54.6004C101.632 54.3879 101.338 54.0936 101.125 53.7173C100.913 53.3367 100.807 52.8984 100.807 52.4027V49.8398H99.6447V48.14H100.906V46.4801H102.712V48.14H104.551V49.8398H102.712V52.0574C102.712 52.4204 102.812 52.7037 103.011 52.9073C103.21 53.1065 103.458 53.2061 103.755 53.2061C104.025 53.2061 104.288 53.122 104.545 52.9538L104.804 54.607ZM106.676 46.5532C106.424 46.5532 106.211 46.4646 106.039 46.2876C105.866 46.1105 105.78 45.8958 105.78 45.6435C105.78 45.3912 105.866 45.1788 106.039 45.0061C106.211 44.8291 106.424 44.7406 106.676 44.7406C106.933 44.7406 107.147 44.8291 107.32 45.0061C107.497 45.1788 107.586 45.3912 107.586 45.6435C107.586 45.8958 107.497 46.1105 107.32 46.2876C107.147 46.4646 106.933 46.5532 106.676 46.5532ZM107.632 54.7797H105.727V48.14H107.632V54.7797ZM116.005 48.14L113.296 54.7797H111.45L108.741 48.14H110.779L112.379 52.8542L113.98 48.14H116.005ZM122.817 54.7797H121.157L121.057 53.9895C120.814 54.2817 120.513 54.5097 120.154 54.6734C119.796 54.8328 119.402 54.9125 118.973 54.9125C118.508 54.9125 118.094 54.8239 117.731 54.6469C117.368 54.4654 117.083 54.2175 116.875 53.9032C116.666 53.5845 116.562 53.2238 116.562 52.821C116.562 52.396 116.675 52.022 116.901 51.6989C117.127 51.3758 117.437 51.1234 117.831 50.942C118.229 50.7561 118.68 50.6631 119.185 50.6631C119.482 50.6631 119.778 50.6963 120.075 50.7627C120.376 50.8291 120.655 50.922 120.911 51.0416V50.8689C120.911 50.6033 120.836 50.3754 120.686 50.185C120.54 49.9903 120.336 49.8398 120.075 49.7336C119.818 49.6273 119.53 49.5742 119.212 49.5742C118.906 49.5742 118.603 49.6229 118.302 49.7203C118.005 49.8177 117.731 49.9637 117.479 50.1585L116.961 48.7044C117.408 48.4742 117.859 48.3016 118.315 48.1865C118.776 48.067 119.221 48.0072 119.65 48.0072C120.296 48.0072 120.856 48.1356 121.33 48.3923C121.803 48.6447 122.168 49.0032 122.425 49.468C122.686 49.9283 122.817 50.475 122.817 51.108V54.7797ZM119.391 53.4451C119.643 53.4451 119.884 53.3898 120.115 53.2791C120.345 53.1684 120.531 53.018 120.672 52.8276C120.818 52.6373 120.896 52.427 120.905 52.1969V52.1504C120.71 52.0176 120.493 51.9158 120.254 51.845C120.019 51.7697 119.78 51.7321 119.537 51.7321C119.174 51.7321 118.877 51.8118 118.647 51.9711C118.417 52.1305 118.302 52.3363 118.302 52.5886C118.302 52.7524 118.349 52.9007 118.441 53.0334C118.539 53.1618 118.669 53.2636 118.833 53.3389C118.997 53.4097 119.183 53.4451 119.391 53.4451ZM128.746 54.607C128.237 54.8106 127.744 54.9125 127.266 54.9125C126.77 54.9125 126.332 54.8084 125.951 54.6004C125.575 54.3879 125.28 54.0936 125.068 53.7173C124.855 53.3367 124.749 52.8984 124.749 52.4027V49.8398H123.587V48.14H124.849V46.4801H126.655V48.14H128.494V49.8398H126.655V52.0574C126.655 52.4204 126.754 52.7037 126.953 52.9073C127.153 53.1065 127.401 53.2061 127.697 53.2061C127.967 53.2061 128.23 53.122 128.487 52.9538L128.746 54.607ZM135.97 54.036C135.147 54.6203 134.246 54.9125 133.268 54.9125C132.542 54.9125 131.889 54.7575 131.309 54.4477C130.734 54.1334 130.278 53.7085 129.941 53.1729C129.609 52.6373 129.443 52.0331 129.443 51.3603C129.443 50.7184 129.594 50.1452 129.895 49.6406C130.2 49.136 130.614 48.7376 131.136 48.4455C131.659 48.1533 132.252 48.0072 132.916 48.0072C133.602 48.0072 134.206 48.1688 134.728 48.4919C135.251 48.8106 135.658 49.2577 135.95 49.8331C136.242 50.4042 136.388 51.0659 136.388 51.8184V52.0309H131.495C131.575 52.292 131.703 52.5222 131.88 52.7214C132.062 52.9161 132.287 53.0711 132.557 53.1862C132.832 53.3012 133.144 53.3588 133.493 53.3588C134.171 53.3588 134.801 53.1397 135.386 52.7015L135.97 54.036ZM131.409 51.0615H134.629C134.593 50.7738 134.503 50.5215 134.357 50.3046C134.215 50.0832 134.027 49.9106 133.792 49.7867C133.562 49.6627 133.303 49.6008 133.015 49.6008C132.723 49.6008 132.462 49.6649 132.232 49.7933C132.006 49.9217 131.823 50.0943 131.681 50.3112C131.539 50.5281 131.448 50.7782 131.409 51.0615ZM140.678 54.7797V44.8202H146.906V46.6063H142.723V48.8704H146.633V50.6631H142.723V54.7797H140.678ZM153.917 54.7797H152.257L152.157 53.9895C151.914 54.2817 151.613 54.5097 151.254 54.6734C150.896 54.8328 150.502 54.9125 150.073 54.9125C149.608 54.9125 149.194 54.8239 148.831 54.6469C148.468 54.4654 148.183 54.2175 147.974 53.9032C147.766 53.5845 147.662 53.2238 147.662 52.821C147.662 52.396 147.775 52.022 148.001 51.6989C148.227 51.3758 148.537 51.1234 148.931 50.942C149.329 50.7561 149.78 50.6631 150.285 50.6631C150.582 50.6631 150.878 50.6963 151.175 50.7627C151.476 50.8291 151.755 50.922 152.011 51.0416V50.8689C152.011 50.6033 151.936 50.3754 151.786 50.185C151.64 49.9903 151.436 49.8398 151.175 49.7336C150.918 49.6273 150.63 49.5742 150.312 49.5742C150.006 49.5742 149.703 49.6229 149.402 49.7203C149.105 49.8177 148.831 49.9637 148.579 50.1585L148.061 48.7044C148.508 48.4742 148.959 48.3016 149.415 48.1865C149.876 48.067 150.32 48.0072 150.75 48.0072C151.396 48.0072 151.956 48.1356 152.43 48.3923C152.903 48.6447 153.268 49.0032 153.525 49.468C153.786 49.9283 153.917 50.475 153.917 51.108V54.7797ZM150.491 53.4451C150.743 53.4451 150.984 53.3898 151.215 53.2791C151.445 53.1684 151.631 53.018 151.772 52.8276C151.918 52.6373 151.996 52.427 152.005 52.1969V52.1504C151.81 52.0176 151.593 51.9158 151.354 51.845C151.119 51.7697 150.88 51.7321 150.637 51.7321C150.274 51.7321 149.977 51.8118 149.747 51.9711C149.517 52.1305 149.402 52.3363 149.402 52.5886C149.402 52.7524 149.448 52.9007 149.541 53.0334C149.639 53.1618 149.769 53.2636 149.933 53.3389C150.097 53.4097 150.283 53.4451 150.491 53.4451ZM161.287 53.724C160.964 54.0958 160.568 54.3879 160.098 54.6004C159.629 54.8084 159.114 54.9125 158.551 54.9125C157.87 54.9125 157.259 54.7642 156.719 54.4676C156.183 54.1666 155.761 53.7549 155.451 53.2326C155.145 52.7103 154.993 52.1194 154.993 51.4599C154.993 50.7959 155.145 50.205 155.451 49.6871C155.761 49.1648 156.183 48.7553 156.719 48.4587C157.259 48.1577 157.87 48.0072 158.551 48.0072C159.109 48.0072 159.623 48.1113 160.092 48.3193C160.561 48.5274 160.957 48.8151 161.28 49.1825L160.158 50.3577C159.986 50.1585 159.766 50.0036 159.501 49.8929C159.24 49.7778 158.965 49.7203 158.678 49.7203C158.346 49.7203 158.049 49.7955 157.788 49.946C157.527 50.0921 157.321 50.2957 157.17 50.5569C157.02 50.8136 156.945 51.1102 156.945 51.4466C156.945 51.7874 157.02 52.0906 157.17 52.3562C157.321 52.6218 157.527 52.8298 157.788 52.9803C158.049 53.1264 158.346 53.1994 158.678 53.1994C158.965 53.1994 159.242 53.1441 159.508 53.0334C159.773 52.9184 159.99 52.7612 160.158 52.562L161.287 53.724ZM168.571 54.036C167.747 54.6203 166.847 54.9125 165.868 54.9125C165.142 54.9125 164.489 54.7575 163.91 54.4477C163.334 54.1334 162.878 53.7085 162.542 53.1729C162.21 52.6373 162.044 52.0331 162.044 51.3603C162.044 50.7184 162.194 50.1452 162.495 49.6406C162.801 49.136 163.215 48.7376 163.737 48.4455C164.259 48.1533 164.852 48.0072 165.516 48.0072C166.202 48.0072 166.807 48.1688 167.329 48.4919C167.851 48.8106 168.259 49.2577 168.551 49.8331C168.843 50.4042 168.989 51.0659 168.989 51.8184V52.0309H164.095C164.175 52.292 164.304 52.5222 164.481 52.7214C164.662 52.9161 164.888 53.0711 165.158 53.1862C165.432 53.3012 165.744 53.3588 166.094 53.3588C166.771 53.3588 167.402 53.1397 167.986 52.7015L168.571 54.036ZM164.009 51.0615H167.229C167.194 50.7738 167.103 50.5215 166.957 50.3046C166.816 50.0832 166.627 49.9106 166.393 49.7867C166.163 49.6627 165.904 49.6008 165.616 49.6008C165.324 49.6008 165.063 49.6649 164.832 49.7933C164.607 49.9217 164.423 50.0943 164.281 50.3112C164.14 50.5281 164.049 50.7782 164.009 51.0615ZM173.278 54.7797V44.8202H175.323V54.7797H173.278ZM176.943 54.7797V44.8202H180.203C181.407 44.8202 182.45 45.0238 183.33 45.4311C184.211 45.8383 184.893 46.4137 185.375 47.1574C185.858 47.901 186.099 48.7819 186.099 49.7999C186.099 50.8136 185.858 51.6945 185.375 52.4425C184.893 53.1862 184.211 53.7616 183.33 54.1688C182.45 54.576 181.407 54.7797 180.203 54.7797H176.943ZM178.988 52.9936H180.276C181.073 52.9936 181.748 52.8697 182.301 52.6218C182.859 52.3695 183.282 52.0065 183.569 51.5329C183.862 51.0548 184.008 50.4772 184.008 49.7999C184.008 49.1183 183.862 48.5406 183.569 48.067C183.282 47.5934 182.859 47.2326 182.301 46.9847C181.748 46.7324 181.073 46.6063 180.276 46.6063H178.988V52.9936Z" fill="black"/>
<path d="M104.916 455.3V447.83H107.167C108.077 447.83 108.862 447.981 109.523 448.283C110.183 448.582 110.691 449.01 111.046 449.568C111.402 450.126 111.579 450.792 111.579 451.565C111.579 452.335 111.402 453.001 111.046 453.562C110.691 454.12 110.183 454.55 109.523 454.852C108.862 455.15 108.077 455.3 107.167 455.3H104.916ZM106.012 454.334H107.212C107.899 454.334 108.485 454.226 108.97 454.01C109.454 453.791 109.823 453.476 110.075 453.064C110.331 452.649 110.459 452.149 110.459 451.565C110.459 450.977 110.331 450.478 110.075 450.066C109.823 449.654 109.454 449.341 108.97 449.125C108.485 448.906 107.899 448.796 107.212 448.796H106.012V454.334ZM114.955 455.399C114.457 455.399 114.009 455.287 113.611 455.061C113.213 454.835 112.899 454.528 112.67 454.14C112.441 453.748 112.326 453.305 112.326 452.81C112.326 452.319 112.441 451.879 112.67 451.49C112.899 451.099 113.213 450.79 113.611 450.564C114.009 450.335 114.457 450.22 114.955 450.22C115.457 450.22 115.905 450.335 116.3 450.564C116.695 450.79 117.005 451.099 117.231 451.49C117.46 451.879 117.575 452.319 117.575 452.81C117.575 453.305 117.46 453.748 117.231 454.14C117.005 454.528 116.695 454.835 116.3 455.061C115.905 455.287 115.457 455.399 114.955 455.399ZM114.95 454.483C115.253 454.483 115.521 454.41 115.757 454.264C115.996 454.115 116.184 453.915 116.32 453.666C116.459 453.414 116.529 453.129 116.529 452.81C116.529 452.491 116.459 452.207 116.32 451.958C116.184 451.706 115.996 451.507 115.757 451.361C115.521 451.211 115.253 451.137 114.95 451.137C114.652 451.137 114.383 451.211 114.144 451.361C113.905 451.507 113.715 451.706 113.576 451.958C113.44 452.207 113.372 452.491 113.372 452.81C113.372 453.129 113.44 453.414 113.576 453.666C113.715 453.915 113.905 454.115 114.144 454.264C114.383 454.41 114.652 454.483 114.95 454.483ZM124.158 455.175C123.809 455.325 123.472 455.399 123.147 455.399C122.822 455.399 122.536 455.33 122.291 455.19C122.048 455.051 121.857 454.855 121.718 454.603C121.582 454.347 121.514 454.053 121.514 453.721V451.231H120.642V450.32H121.563V449.075H122.535V450.32H123.989V451.231H122.535V453.532C122.535 453.824 122.613 454.057 122.769 454.229C122.928 454.398 123.132 454.483 123.381 454.483C123.59 454.483 123.798 454.42 124.004 454.294L124.158 455.175ZM125.164 455.3V447.83H126.185V451.012C126.553 450.484 127.113 450.22 127.863 450.22C128.51 450.22 129.016 450.416 129.382 450.808C129.747 451.2 129.929 451.746 129.929 452.446V455.3H128.909V452.695C128.909 452.201 128.789 451.817 128.55 451.545C128.314 451.273 127.984 451.137 127.559 451.137C127.131 451.137 126.794 451.276 126.548 451.555C126.306 451.831 126.185 452.211 126.185 452.695V455.3H125.164ZM131.797 448.876C131.641 448.876 131.51 448.821 131.403 448.712C131.297 448.602 131.244 448.469 131.244 448.313C131.244 448.157 131.297 448.026 131.403 447.92C131.51 447.81 131.641 447.756 131.797 447.756C131.956 447.756 132.089 447.81 132.195 447.92C132.305 448.026 132.36 448.157 132.36 448.313C132.36 448.469 132.305 448.602 132.195 448.712C132.089 448.821 131.956 448.876 131.797 448.876ZM132.305 455.3H131.284V450.32H132.305V455.3ZM133.41 454.867L133.659 453.95C133.772 454.063 133.907 454.163 134.063 454.249C134.222 454.335 134.39 454.403 134.566 454.453C134.745 454.5 134.921 454.523 135.093 454.523C135.366 454.523 135.585 454.465 135.751 454.349C135.917 454.232 136 454.078 136 453.886C136 453.743 135.953 453.625 135.86 453.532C135.771 453.436 135.649 453.353 135.497 453.283C135.347 453.213 135.186 453.145 135.014 453.079C134.791 452.996 134.569 452.9 134.346 452.79C134.127 452.68 133.943 452.534 133.794 452.352C133.644 452.169 133.57 451.929 133.57 451.63C133.57 451.344 133.643 451.097 133.789 450.888C133.935 450.675 134.139 450.511 134.401 450.395C134.663 450.279 134.966 450.22 135.308 450.22C135.839 450.22 136.365 450.353 136.886 450.619L136.587 451.49C136.481 451.414 136.355 451.346 136.209 451.286C136.063 451.226 135.913 451.18 135.761 451.147C135.608 451.11 135.467 451.092 135.337 451.092C135.122 451.092 134.947 451.14 134.815 451.236C134.685 451.333 134.62 451.462 134.62 451.625C134.62 451.724 134.652 451.816 134.715 451.899C134.778 451.978 134.878 452.058 135.014 452.138C135.153 452.214 135.341 452.3 135.576 452.397C135.802 452.486 136.028 452.589 136.254 452.705C136.479 452.822 136.667 452.973 136.816 453.159C136.969 453.344 137.045 453.588 137.045 453.891C137.045 454.189 136.966 454.453 136.806 454.682C136.647 454.908 136.425 455.084 136.139 455.21C135.857 455.336 135.528 455.399 135.153 455.399C134.532 455.399 133.951 455.222 133.41 454.867ZM141.647 455.3H140.561V447.83H141.647V455.3ZM147.239 455.3H146.357L146.298 454.662C146.115 454.895 145.884 455.076 145.606 455.205C145.327 455.335 145.018 455.399 144.679 455.399C144.324 455.399 144.007 455.33 143.728 455.19C143.449 455.051 143.23 454.86 143.071 454.618C142.912 454.375 142.832 454.1 142.832 453.791C142.832 453.466 142.918 453.18 143.091 452.934C143.263 452.685 143.499 452.491 143.798 452.352C144.097 452.209 144.437 452.138 144.819 452.138C145.058 452.138 145.3 452.166 145.546 452.222C145.795 452.279 146.019 452.358 146.218 452.461V452.277C146.218 452.035 146.155 451.827 146.029 451.655C145.906 451.479 145.737 451.344 145.521 451.251C145.308 451.158 145.073 451.112 144.814 451.112C144.585 451.112 144.351 451.152 144.112 451.231C143.876 451.311 143.654 451.434 143.444 451.6L143.136 450.768C143.438 450.589 143.751 450.453 144.077 450.36C144.405 450.267 144.727 450.22 145.043 450.22C145.494 450.22 145.883 450.31 146.208 450.489C146.537 450.669 146.791 450.924 146.97 451.256C147.149 451.585 147.239 451.973 147.239 452.422V455.3ZM144.879 454.533C145.114 454.533 145.332 454.485 145.531 454.389C145.73 454.289 145.891 454.149 146.014 453.97C146.14 453.788 146.208 453.575 146.218 453.333V453.263C146.049 453.137 145.858 453.039 145.645 452.969C145.436 452.896 145.222 452.86 145.003 452.86C144.668 452.86 144.389 452.939 144.166 453.099C143.944 453.258 143.833 453.462 143.833 453.711C143.833 453.867 143.878 454.008 143.967 454.135C144.06 454.257 144.185 454.355 144.341 454.428C144.5 454.498 144.679 454.533 144.879 454.533ZM151.516 455.175C151.168 455.325 150.831 455.399 150.506 455.399C150.18 455.399 149.895 455.33 149.649 455.19C149.407 455.051 149.216 454.855 149.076 454.603C148.94 454.347 148.872 454.053 148.872 453.721V451.231H148.001V450.32H148.922V449.075H149.893V450.32H151.347V451.231H149.893V453.532C149.893 453.824 149.971 454.057 150.127 454.229C150.286 454.398 150.491 454.483 150.74 454.483C150.949 454.483 151.156 454.42 151.362 454.294L151.516 455.175ZM156.964 454.707C156.347 455.169 155.668 455.399 154.928 455.399C154.4 455.399 153.927 455.283 153.508 455.051C153.09 454.818 152.76 454.501 152.517 454.1C152.275 453.698 152.154 453.245 152.154 452.74C152.154 452.259 152.265 451.829 152.488 451.45C152.71 451.069 153.014 450.768 153.399 450.549C153.784 450.33 154.22 450.22 154.708 450.22C155.213 450.22 155.656 450.34 156.038 450.579C156.423 450.818 156.722 451.152 156.934 451.58C157.15 452.005 157.258 452.498 157.258 453.059V453.218H153.259C153.319 453.477 153.43 453.705 153.593 453.901C153.759 454.093 153.965 454.244 154.211 454.354C154.459 454.46 154.738 454.513 155.047 454.513C155.598 454.513 156.104 454.334 156.566 453.975L156.964 454.707ZM153.215 452.511H156.307C156.274 452.232 156.187 451.99 156.048 451.784C155.909 451.575 155.728 451.412 155.505 451.296C155.286 451.177 155.039 451.117 154.763 451.117C154.484 451.117 154.234 451.177 154.011 451.296C153.789 451.412 153.608 451.575 153.469 451.784C153.332 451.993 153.248 452.236 153.215 452.511ZM159.35 455.3H158.329V450.32H159.22L159.26 451.266C159.433 450.938 159.67 450.682 159.972 450.499C160.277 450.313 160.628 450.22 161.023 450.22C161.119 450.22 161.215 450.227 161.312 450.24C161.411 450.25 161.511 450.267 161.61 450.29L161.481 451.211C161.288 451.162 161.099 451.137 160.913 451.137C160.604 451.137 160.332 451.211 160.097 451.361C159.861 451.507 159.677 451.709 159.544 451.968C159.414 452.227 159.35 452.526 159.35 452.865V455.3ZM163.094 453.283H162.596L162.422 447.83H163.269L163.094 453.283ZM162.84 455.399C162.684 455.399 162.552 455.346 162.442 455.24C162.332 455.13 162.278 454.998 162.278 454.842C162.278 454.689 162.332 454.559 162.442 454.453C162.552 454.347 162.684 454.294 162.84 454.294C163 454.294 163.134 454.347 163.244 454.453C163.353 454.559 163.408 454.689 163.408 454.842C163.408 454.998 163.353 455.13 163.244 455.24C163.134 455.346 163 455.399 162.84 455.399Z" fill="black"/>
<path d="M171.197 217.368C173.538 213.661 179.586 217.953 180.367 224.391C181.732 231.219 177.245 250.144 168.076 254.436" stroke="#E5E7EB" stroke-width="1.35979"/>
<path d="M95.9371 217.374C93.5959 213.667 87.548 217.959 86.7676 224.397C85.4019 231.225 89.8891 250.15 99.0586 254.442" stroke="#E5E7EB" stroke-width="1.35979"/>
<path d="M132.762 165.862C104.356 165.862 94.7185 189.989 93.5479 202.15C92.7968 209.954 92.3774 228.878 94.1332 233.17C96.2793 239.413 99.0981 264.776 99.4008 266.532C100.544 273.165 114.033 285.261 114.618 285.651C115.204 286.041 122.085 292.894 124.958 293.65C128.665 294.625 137.444 295.015 141.541 293.65C146.029 292.869 150.516 287.017 152.662 285.261C154.028 283.895 166.777 273.165 168.074 266.532C169.868 257.362 171.459 239.413 172.952 233.17C175.098 224.196 174.513 209.369 173.732 200.979C171.781 189.274 162.807 165.862 132.762 165.862Z" fill="white" stroke="#E5E7EB" stroke-width="1.35979"/>
<path d="M116.101 178.1L123.58 206.316M116.101 178.1H151.116M116.101 178.1L97.7439 188.299M123.58 206.316H143.637M123.58 206.316L116.101 215.495M123.58 206.316L97.7439 188.299M143.637 206.316L151.116 178.1M143.637 206.316L151.116 215.495M143.637 206.316L170.153 188.299M151.116 178.1L170.153 188.299M116.101 215.495L133.439 231.472M116.101 215.495H102.843M133.439 231.472L151.116 215.495M133.439 231.472L150.436 241.331M133.439 231.472L117.461 241.331M133.439 231.472L139.898 250.169M133.439 231.472L126.98 250.169M151.116 215.495H164.374M170.153 188.299L164.374 215.495M164.374 215.495L173.552 231.132L150.436 241.331M97.7439 188.299L102.843 215.495M102.843 215.495L93.6646 231.132L117.461 241.331M150.436 241.331L139.898 250.169M150.436 241.331L150.776 271.246M150.436 241.331L167.093 267.847L150.776 271.246M139.898 250.169H126.98M139.898 250.169L133.439 255.948L126.98 250.169M139.898 250.169L150.776 271.246M126.98 250.169L117.461 241.331M126.98 250.169L116.101 271.246M117.461 241.331L116.101 271.246M117.461 241.331L99.7836 267.847L116.101 271.246M150.776 271.246L133.439 282.125M150.776 271.246L151.796 286.204L133.439 282.125M133.439 282.125L116.101 271.246M133.439 282.125L115.421 286.204L116.101 271.246" stroke="black" stroke-width="0.339949" stroke-linecap="round" stroke-dasharray="1.36 1.36"/>
<circle cx="150.912" cy="271.216" r="1.17357" fill="black"/>
<circle cx="133.353" cy="282.142" r="1.17357" fill="black"/>
<circle cx="116.183" cy="271.216" r="1.17357" fill="black"/>
<circle cx="99.9402" cy="267.66" r="1.17357" fill="black"/>
<circle cx="93.8196" cy="230.946" r="1.17357" fill="black"/>
<circle cx="173.367" cy="230.946" r="1.17357" fill="black"/>
<circle cx="167.247" cy="267.66" r="1.17357" fill="black"/>
<circle cx="151.611" cy="286.018" r="1.17357" fill="black"/>
<circle cx="115.576" cy="286.018" r="1.17357" fill="black"/>
<circle cx="133.353" cy="255.999" r="1.17357" fill="black"/>
<circle cx="139.984" cy="250.146" r="1.17357" fill="black"/>
<circle cx="150.251" cy="241.144" r="1.17357" fill="black"/>
<circle cx="117.357" cy="241.172" r="1.17357" fill="black"/>
<circle cx="127.11" cy="250.146" r="1.17357" fill="black"/>
<circle cx="133.353" cy="231.417" r="1.17357" fill="black"/>
<circle cx="123.598" cy="206.445" r="1.17357" fill="black"/>
<circle cx="116.183" cy="215.419" r="1.17357" fill="black"/>
<circle cx="150.912" cy="215.419" r="1.17357" fill="black"/>
<circle cx="164.179" cy="215.419" r="1.17357" fill="black"/>
<circle cx="169.967" cy="188.113" r="1.17357" fill="black"/>
<circle cx="97.8987" cy="188.113" r="1.17357" fill="black"/>
<circle cx="143.497" cy="206.445" r="1.17357" fill="black"/>
<circle cx="102.921" cy="215.419" r="1.17357" fill="black"/>
<circle cx="116.183" cy="177.961" r="1.17357" fill="black"/>
<circle cx="150.912" cy="177.961" r="1.17357" fill="black"/>
<path d="M188.511 134.587H200.069C204.505 134.587 206.722 134.587 208.471 135.312C210.804 136.278 212.657 138.131 213.623 140.463C214.347 142.212 214.347 144.43 214.347 148.865V157.704" stroke="#E5E7EB" stroke-width="1.35979" stroke-linecap="round"/>
<path d="M78.3687 134.587H67.4903C63.0552 134.587 60.8377 134.587 59.0884 135.312C56.7561 136.278 54.9031 138.131 53.937 140.463C53.2125 142.212 53.2125 144.43 53.2125 148.865V158.383" stroke="#E5E7EB" stroke-width="1.35979" stroke-linecap="round"/>
<path d="M188.511 325.638H200.069C204.505 325.638 206.722 325.638 208.471 324.913C210.804 323.947 212.657 322.094 213.623 319.762C214.347 318.013 214.347 315.795 214.347 311.36V301.842" stroke="#E5E7EB" stroke-width="1.35979" stroke-linecap="round"/>
<path d="M78.3687 325.638H67.4903C63.0552 325.638 60.8377 325.638 59.0884 324.913C56.7561 323.947 54.9031 322.094 53.937 319.762C53.2125 318.013 53.2125 315.795 53.2125 311.36V301.842" stroke="#E5E7EB" stroke-width="1.35979" stroke-linecap="round"/>
<line x1="53.7213" y1="243.54" x2="213.837" y2="243.54" stroke="#34AA81" stroke-width="1.01985" stroke-linecap="round"/>
<rect x="53.2114" y="244.05" width="161.136" height="81.5877" fill="url(#paint0_linear_4067_1505)"/>
</g>
<defs>
<filter id="filter0_d_4067_1505" x="0.857764" y="383.429" width="265.84" height="60.5108" filterUnits="userSpaceOnUse" color-interpolation-filters="sRGB">
<feFlood flood-opacity="0" result="BackgroundImageFix"/>
<feColorMatrix in="SourceAlpha" type="matrix" values="0 0 0 0 0 0 0 0 0 0 0 0 0 0 0 0 0 0 127 0" result="hardAlpha"/>
<feOffset dy="1.35979"/>
<feGaussianBlur stdDeviation="5.77913"/>
<feColorMatrix type="matrix" values="0 0 0 0 0.856303 0 0 0 0 0.859167 0 0 0 0 0.858192 0 0 0 1 0"/>
<feBlend mode="normal" in2="BackgroundImageFix" result="effect1_dropShadow_4067_1505"/>
<feBlend mode="normal" in="SourceGraphic" in2="effect1_dropShadow_4067_1505" result="shape"/>
</filter>
<linearGradient id="paint0_linear_4067_1505" x1="134.119" y1="191.21" x2="134.119" y2="325.638" gradientUnits="userSpaceOnUse">
<stop stop-color="#34AA81"/>
<stop offset="1" stop-color="#DDF4EE" stop-opacity="0"/>
</linearGradient>
<clipPath id="clip0_4067_1505">
<rect x="0.17627" y="0.647095" width="267.2" height="579.272" rx="20.3969" fill="white"/>
</clipPath>
<clipPath id="clip1_4067_1505">
<rect width="16.3175" height="16.3175" fill="white" transform="translate(17.1758 42.121)"/>
</clipPath>
</defs>
</svg>
