<svg width="470" height="460" viewBox="0 0 470 460" fill="none" xmlns="http://www.w3.org/2000/svg">
<path d="M39.4598 276.92L48.1098 271.32C48.1098 271.32 52.3098 249.01 49.1898 229.32C44.8098 201.54 25.9298 192 19.0698 194.72C12.2098 197.44 10.5898 205.72 22.9798 221.72C30.2898 231.19 39.6898 251.18 39.4598 276.92Z" fill="#FECA13"/>
<g opacity="0.3">
<path d="M39.4598 276.92L48.1098 271.32C48.1098 271.32 52.3098 249.01 49.1898 229.32C44.8098 201.54 25.9298 192 19.0698 194.72C12.2098 197.44 10.5898 205.72 22.9798 221.72C30.2898 231.19 39.6898 251.18 39.4598 276.92Z" fill="white"/>
</g>
<path d="M42.6102 265.9H42.5202C42.4394 265.889 42.3615 265.862 42.2911 265.821C42.2207 265.78 42.1592 265.725 42.1099 265.66C42.0607 265.595 42.0248 265.521 42.0042 265.442C41.9837 265.363 41.9789 265.281 41.9902 265.2C45.5802 239.2 35.1402 210.78 23.4002 199.31C23.2822 199.195 23.2148 199.037 23.2129 198.872C23.2111 198.707 23.2748 198.548 23.3902 198.43C23.5056 198.312 23.6631 198.245 23.8281 198.243C23.9931 198.241 24.1522 198.305 24.2702 198.42C36.2702 210.1 46.8602 239.02 43.2702 265.42C43.2389 265.567 43.1541 265.698 43.0323 265.787C42.9104 265.875 42.7601 265.916 42.6102 265.9Z" fill="white"/>
<path d="M17.68 291C16.38 291.74 12.68 288.89 11.68 288.2C9.92577 287 8.5075 285.372 7.56 283.47C6.50693 281.297 6.15738 278.85 6.56 276.47C6.76914 275.218 7.06315 273.982 7.44 272.77C7.79 271.57 8.13 270.37 8.44 269.17C8.86879 268.024 9.05934 266.802 9 265.58C8.69 263.12 6.5 261.4 4.52 259.91C2.27 258.27 0 256.1 0 253.14C0.157639 250.841 1.07588 248.66 2.61 246.94C4.03 245.14 5.71 243.56 6.99 241.66C7.99769 240.342 8.52354 238.718 8.48 237.06C8.34384 236.045 8.00367 235.069 7.48 234.19C6.48 232.26 5.06 230.49 4.34 228.42C3.62 226.35 3.72 223.77 5.34 222.29C6.66 221.07 8.64 220.9 10.43 221.02C12.1125 221.226 13.73 221.796 15.17 222.69C19.87 225.3 22.56 230.87 27.55 232.88C29.5167 233.499 31.5208 233.994 33.55 234.36C35.55 234.89 37.6 235.92 38.55 237.77C40.38 241.43 36.98 245.94 38.27 249.77C39.41 253.21 42.75 254.52 44.62 257.62C45.3844 258.988 45.6926 260.564 45.5 262.12C45.3368 264.748 44.6928 267.324 43.6 269.72C42.364 272.186 40.9781 274.574 39.45 276.87L17.68 291Z" fill="#FECA13"/>
<g opacity="0.65">
<path d="M17.68 291C16.38 291.74 12.68 288.89 11.68 288.2C9.92577 287 8.5075 285.372 7.56 283.47C6.50693 281.297 6.15738 278.85 6.56 276.47C6.76914 275.218 7.06315 273.982 7.44 272.77C7.79 271.57 8.13 270.37 8.44 269.17C8.86879 268.024 9.05934 266.802 9 265.58C8.69 263.12 6.5 261.4 4.52 259.91C2.27 258.27 0 256.1 0 253.14C0.157639 250.841 1.07588 248.66 2.61 246.94C4.03 245.14 5.71 243.56 6.99 241.66C7.99769 240.342 8.52354 238.718 8.48 237.06C8.34384 236.045 8.00367 235.069 7.48 234.19C6.48 232.26 5.06 230.49 4.34 228.42C3.62 226.35 3.72 223.77 5.34 222.29C6.66 221.07 8.64 220.9 10.43 221.02C12.1125 221.226 13.73 221.796 15.17 222.69C19.87 225.3 22.56 230.87 27.55 232.88C29.5167 233.499 31.5208 233.994 33.55 234.36C35.55 234.89 37.6 235.92 38.55 237.77C40.38 241.43 36.98 245.94 38.27 249.77C39.41 253.21 42.75 254.52 44.62 257.62C45.3844 258.988 45.6926 260.564 45.5 262.12C45.3368 264.748 44.6928 267.324 43.6 269.72C42.364 272.186 40.9781 274.574 39.45 276.87L17.68 291Z" fill="white"/>
</g>
<path d="M30.2401 283.63C30.1631 283.627 30.0873 283.609 30.0172 283.577C29.9472 283.545 29.8842 283.499 29.8321 283.443C29.7799 283.386 29.7396 283.319 29.7135 283.247C29.6875 283.174 29.6761 283.097 29.6801 283.02C30.6801 259.78 19.6801 234.11 11.7301 226.66C11.6328 226.55 11.5798 226.408 11.5816 226.261C11.5833 226.115 11.6396 225.974 11.7396 225.867C11.8395 225.759 11.9758 225.693 12.122 225.681C12.2681 225.668 12.4136 225.711 12.5301 225.8C20.6501 233.41 31.8301 259.5 30.8501 283.07C30.8399 283.224 30.7708 283.368 30.6572 283.472C30.5436 283.576 30.3943 283.633 30.2401 283.63Z" fill="white"/>
<path d="M26.4998 255.22H26.3298C20.8224 253.701 15.1655 252.789 9.45978 252.5C9.30504 252.492 9.15957 252.424 9.05479 252.31C8.95001 252.196 8.89433 252.045 8.89978 251.89C8.90095 251.813 8.91791 251.736 8.94962 251.665C8.98134 251.595 9.02715 251.531 9.08424 251.479C9.14133 251.426 9.20852 251.386 9.28169 251.361C9.35485 251.335 9.43247 251.325 9.50978 251.33C15.3162 251.632 21.0729 252.561 26.6798 254.1C26.8124 254.144 26.9251 254.234 26.9978 254.353C27.0706 254.472 27.0986 254.613 27.077 254.751C27.0554 254.889 26.9855 255.015 26.8798 255.106C26.7741 255.198 26.6395 255.249 26.4998 255.25V255.22Z" fill="white"/>
<path d="M238.14 460.01C365.712 460.01 469.13 400.303 469.13 326.65C469.13 252.997 365.712 193.29 238.14 193.29C110.568 193.29 7.1499 252.997 7.1499 326.65C7.1499 400.303 110.568 460.01 238.14 460.01Z" fill="#FAFAFA"/>
<path d="M115.38 269.8C164.31 241.55 243.63 241.55 292.55 269.8C334.02 293.74 340.32 330.29 311.49 358.08L419.14 419.44C425.7 423.23 425.7 429.37 419.14 433.16L409.46 438.75C402.9 442.53 392.46 442.24 386.1 438.09L292.1 372.35C243.1 400.35 164.18 400.24 115.42 372.09C66.4598 343.84 66.4598 298.05 115.38 269.8Z" fill="#E6E6E6"/>
<path d="M94.2896 288.18V318.61C94.2896 335.13 105.21 351.61 127.04 364.26C170.7 389.46 241.5 389.46 285.16 364.26C306.99 351.65 317.91 335.13 317.91 318.61V288.18C317.91 271.66 306.99 255.18 285.16 242.54C241.5 217.33 170.7 217.33 127.04 242.54C105.21 255.14 94.2896 271.66 94.2896 288.18ZM307.09 288.18C307.09 301.4 297.38 314.28 279.75 324.46C260.25 335.72 234.1 341.92 206.1 341.92C178.1 341.92 151.95 335.72 132.45 324.46C114.82 314.28 105.11 301.4 105.11 288.18C105.11 274.96 114.82 262.08 132.45 251.9C151.95 240.64 178.1 234.44 206.1 234.44C234.1 234.44 260.26 240.64 279.75 251.9C297.39 262.08 307.09 275 307.09 288.18Z" fill="#FECA13"/>
<path opacity="0.2" d="M94.2896 288.18V318.61C94.2896 335.13 105.21 351.61 127.04 364.26C170.7 389.46 241.5 389.46 285.16 364.26C306.99 351.65 317.91 335.13 317.91 318.61V288.18C317.91 271.66 306.99 255.18 285.16 242.54C241.5 217.33 170.7 217.33 127.04 242.54C105.21 255.14 94.2896 271.66 94.2896 288.18ZM307.09 288.18C307.09 301.4 297.38 314.28 279.75 324.46C260.25 335.72 234.1 341.92 206.1 341.92C178.1 341.92 151.95 335.72 132.45 324.46C114.82 314.28 105.11 301.4 105.11 288.18C105.11 274.96 114.82 262.08 132.45 251.9C151.95 240.64 178.1 234.44 206.1 234.44C234.1 234.44 260.26 240.64 279.75 251.9C297.39 262.08 307.09 275 307.09 288.18Z" fill="white"/>
<path opacity="0.6" d="M317.8 321.45C316.06 331.91 311.45 339.8 292.88 354.29C266.63 374.79 200.16 383.16 161.58 370.43C125.19 358.43 113.58 334.94 113.58 318.83L113.68 309.36C108.06 302.67 105.1 295.48 105.1 288.18C105.1 280.7 108.21 273.33 114.1 266.5L114.23 253.16H112.15C100.24 263.79 94.2798 275.98 94.2798 288.16V318.59C94.2798 335.11 105.2 351.59 127.03 364.24C170.69 389.44 241.49 389.44 285.15 364.24C305.74 352.37 316.62 337 317.8 321.45Z" fill="#FECA13"/>
<path d="M285.17 242.54C241.5 217.33 170.71 217.33 127.05 242.54C83.39 267.75 83.38 308.62 127.05 333.83C170.72 359.04 241.5 359.04 285.17 333.83C328.84 308.62 328.83 267.75 285.17 242.54ZM279.76 324.46C260.26 335.72 234.1 341.92 206.11 341.92C178.12 341.92 151.96 335.72 132.45 324.46C114.82 314.28 105.11 301.4 105.11 288.18C105.11 274.96 114.82 262.08 132.45 251.9C151.95 240.64 178.11 234.44 206.11 234.44C234.11 234.44 260.26 240.64 279.76 251.9C297.39 262.08 307.1 274.96 307.1 288.18C307.1 301.4 297.39 314.28 279.76 324.46Z" fill="#FECA13"/>
<path opacity="0.5" d="M285.17 242.54C241.5 217.33 170.71 217.33 127.05 242.54C83.39 267.75 83.38 308.62 127.05 333.83C170.72 359.04 241.5 359.04 285.17 333.83C328.84 308.62 328.83 267.75 285.17 242.54ZM279.76 324.46C260.26 335.72 234.1 341.92 206.11 341.92C178.12 341.92 151.96 335.72 132.45 324.46C114.82 314.28 105.11 301.4 105.11 288.18C105.11 274.96 114.82 262.08 132.45 251.9C151.95 240.64 178.11 234.44 206.11 234.44C234.11 234.44 260.26 240.64 279.76 251.9C297.39 262.08 307.1 274.96 307.1 288.18C307.1 301.4 297.39 314.28 279.76 324.46Z" fill="white"/>
<path d="M307.11 288.18C307.046 293.554 305.536 298.811 302.74 303.4C298.31 295.73 290.5 288.52 279.74 282.34C260.26 271.07 234.09 264.87 206.09 264.87C178.09 264.87 151.94 271.07 132.45 282.34C121.7 288.52 113.9 295.73 109.45 303.4C106.676 298.803 105.178 293.549 105.11 288.18C105.11 274.97 114.82 262.08 132.46 251.89C151.95 240.65 178.11 234.44 206.1 234.44C234.09 234.44 260.27 240.65 279.75 251.89C297.4 262.08 307.11 275 307.11 288.18Z" fill="#FECA13"/>
<path opacity="0.3" d="M307.11 288.18C307.046 293.554 305.536 298.811 302.74 303.4C298.31 295.73 290.5 288.52 279.74 282.34C260.26 271.07 234.09 264.87 206.09 264.87C178.09 264.87 151.94 271.07 132.45 282.34C121.7 288.52 113.9 295.73 109.45 303.4C106.676 298.803 105.178 293.549 105.11 288.18C105.11 274.97 114.82 262.08 132.46 251.89C151.95 240.65 178.11 234.44 206.1 234.44C234.09 234.44 260.27 240.65 279.75 251.89C297.4 262.08 307.11 275 307.11 288.18Z" fill="white"/>
<path opacity="0.6" d="M132.46 251.89C114.82 262.08 105.11 274.97 105.11 288.18C105.178 293.549 106.676 298.803 109.45 303.4C113.91 295.73 121.71 288.52 132.45 282.34C136.99 279.741 141.709 277.465 146.57 275.53C142.31 277.18 129.23 281.39 134 268.92C139.67 254.11 167.34 238.07 187.67 235.41C166.77 237.48 147.6 243.16 132.46 251.89Z" fill="#FECA13"/>
<path opacity="0.4" d="M279.76 265.68C260.26 254.42 234.1 248.22 206.11 248.22C178.12 248.22 151.95 254.42 132.45 265.68C117.91 274.08 108.77 284.32 106.01 295.07C108.77 305.82 117.91 316.07 132.45 324.46C151.96 335.72 178.11 341.92 206.11 341.92C234.11 341.92 260.26 335.72 279.76 324.46C294.31 316.06 303.45 305.82 306.2 295.07C303.45 284.32 294.31 274.08 279.76 265.68Z" fill="white"/>
<path d="M125 302.05C131.25 306.95 138.34 310.05 145.57 312.51C152.813 314.913 160.232 316.749 167.76 318C182.816 320.44 198.084 321.311 213.32 320.6C220.93 320.26 228.55 319.6 236.12 318.52C243.667 317.515 251.144 316.045 258.51 314.12C265.841 312.286 272.933 309.601 279.64 306.12C281.296 305.238 282.899 304.26 284.44 303.19C285.988 302.134 287.455 300.964 288.83 299.69C290.219 298.409 291.457 296.973 292.52 295.41C293.624 293.815 294.465 292.052 295.01 290.19C295.043 292.234 294.704 294.267 294.01 296.19C293.274 298.122 292.314 299.961 291.15 301.67C289.997 303.39 288.685 304.997 287.23 306.47C285.792 307.949 284.259 309.332 282.64 310.61C276.124 315.581 268.9 319.548 261.21 322.38C253.628 325.237 245.807 327.416 237.84 328.89C229.915 330.39 221.896 331.342 213.84 331.74C197.67 332.585 181.469 330.861 165.84 326.63C158.02 324.492 150.468 321.473 143.33 317.63C139.772 315.688 136.392 313.436 133.23 310.9C132.44 310.27 131.7 309.58 130.94 308.9C130.18 308.22 129.46 307.53 128.77 306.8C127.383 305.325 126.122 303.736 125 302.05Z" fill="white"/>
<path d="M281.84 353.2C281.974 350.481 282.749 347.831 284.101 345.468C285.453 343.105 287.344 341.094 289.62 339.6C291.76 338.35 293.71 338.22 295.13 339.02L320.05 353.26C321.46 354.08 322.34 355.83 322.35 358.26C322.213 360.979 321.437 363.627 320.086 365.99C318.734 368.353 316.844 370.364 314.57 371.86C312.41 373.12 310.45 373.25 309.03 372.43L284.12 358.19C282.74 357.46 281.85 355.71 281.84 353.2Z" fill="#191919"/>
<path d="M284.17 358.27C282.74 357.46 281.85 355.71 281.84 353.2C281.877 351.173 282.329 349.175 283.17 347.33L319 367.86C317.835 369.499 316.352 370.886 314.64 371.94C312.48 373.2 310.52 373.33 309.1 372.51L284.19 358.27H284.17Z" fill="#263238"/>
<path d="M404.9 393.8L325.6 353.39L325.5 353.33C323.66 352.33 321.16 352.51 318.41 354.11C312.79 357.39 308.26 365.31 308.29 371.81C308.29 375.07 309.46 377.35 311.29 378.41L385.82 426.41C387.964 427.756 390.356 428.657 392.856 429.06C395.355 429.464 397.909 429.361 400.368 428.758C402.827 428.155 405.139 427.065 407.168 425.551C409.197 424.037 410.901 422.131 412.18 419.947C413.458 417.762 414.285 415.342 414.61 412.832C414.936 410.321 414.753 407.771 414.074 405.332C413.395 402.894 412.233 400.616 410.657 398.635C409.081 396.654 407.123 395.01 404.9 393.8Z" fill="#0B0B0B"/>
<path d="M311.3 378.43L385.83 426.43C388.6 428.169 391.776 429.159 395.044 429.302C398.312 429.445 401.562 428.736 404.474 427.244C407.386 425.753 409.86 423.531 411.654 420.795C413.449 418.06 414.502 414.905 414.71 411.64C413.28 417.85 403.02 423.13 390.3 416.01C377.58 408.89 330.46 379.14 309.05 366.81C308.547 368.43 308.284 370.114 308.27 371.81C308.28 375.09 309.44 377.37 311.3 378.43Z" fill="#191919"/>
<path d="M311.3 378.43C309.44 377.37 308.3 375.09 308.3 371.83C308.3 365.33 312.8 357.41 318.42 354.13C321.17 352.53 323.67 352.36 325.51 353.35L332.51 356.91C330.62 355.91 328.07 356.07 325.24 357.71C319.48 361.07 314.83 369.2 314.86 375.87C314.86 379.21 316.01 381.6 317.86 382.68" fill="#FECA13"/>
<path opacity="0.2" d="M317.9 382.68C316 381.6 314.9 379.21 314.9 375.87C314.91 374.103 315.183 372.347 315.71 370.66C313.32 369.24 311.09 367.94 309.1 366.79C308.847 367.626 308.65 368.478 308.51 369.34C308.45 369.76 308.4 370.18 308.36 370.6C308.36 371.02 308.31 371.43 308.36 371.83C308.36 375.09 309.53 377.37 311.36 378.43L317.9 382.68Z" fill="black"/>
<path d="M121.67 424.75L61.67 394.74L37.77 405.31L121.67 424.75Z" fill="#FECA13"/>
<g opacity="0.15">
<path d="M121.67 424.75L61.67 394.74L37.77 405.31L121.67 424.75Z" fill="white"/>
</g>
<path d="M121.67 424.75L68.8101 389.42L78.2801 375.81L121.67 424.75Z" fill="#FECA13"/>
<g opacity="0.15">
<path d="M121.67 424.75L68.8101 389.42L78.2801 375.81L121.67 424.75Z" fill="white"/>
</g>
<path d="M68.8101 389.42L69.8101 398.81L121.67 424.75L68.8101 389.42Z" fill="#FECA13"/>
<g opacity="0.2">
<path d="M68.8101 389.42L69.8101 398.81L121.67 424.75L68.8101 389.42Z" fill="black"/>
</g>
<path d="M60.2599 387.62C60.4052 387.616 60.544 387.559 60.6499 387.46C60.7711 387.336 60.8439 387.174 60.8549 387.001C60.866 386.828 60.8145 386.658 60.7099 386.52C60.3199 386.03 59.9399 385.52 59.5599 385.03C59.5133 384.965 59.4533 384.911 59.384 384.871C59.3147 384.831 59.2377 384.806 59.1581 384.799C59.0785 384.791 58.9982 384.801 58.9227 384.827C58.8471 384.853 58.7779 384.895 58.7199 384.95C58.5979 385.07 58.5237 385.231 58.5108 385.402C58.4979 385.573 58.5473 385.742 58.6499 385.88L59.8099 387.39C59.8632 387.459 59.9312 387.516 60.009 387.555C60.0869 387.595 60.1725 387.617 60.2599 387.62Z" fill="#0B0B0B"/>
<path d="M55 380.8C54.2866 379.76 53.5966 378.71 52.93 377.65C52.8398 377.504 52.8053 377.331 52.8328 377.162C52.8604 376.993 52.9482 376.839 53.08 376.73C53.1422 376.681 53.2143 376.645 53.2915 376.627C53.3686 376.608 53.4489 376.606 53.5268 376.621C53.6047 376.636 53.6784 376.668 53.7428 376.715C53.8072 376.761 53.8608 376.821 53.9 376.89C54.57 377.89 55.25 378.98 55.9 380.01C55.9979 380.151 56.0399 380.323 56.0177 380.493C55.9955 380.663 55.9107 380.819 55.78 380.93C55.6829 381.014 55.5585 381.06 55.43 381.06C55.3436 381.051 55.2602 381.023 55.1859 380.978C55.1116 380.933 55.0481 380.872 55 380.8ZM49.71 372.21C49.1 371.09 48.5 369.97 47.93 368.84C47.8516 368.688 47.8318 368.512 47.8742 368.346C47.9165 368.18 48.0182 368.036 48.16 367.94C48.2288 367.897 48.306 367.871 48.3862 367.861C48.4664 367.851 48.5478 367.859 48.6248 367.883C48.7017 367.908 48.7724 367.949 48.832 368.004C48.8916 368.058 48.9387 368.125 48.97 368.2C49.53 369.31 50.12 370.42 50.72 371.52C50.8051 371.669 50.8328 371.843 50.7978 372.011C50.7628 372.179 50.6675 372.328 50.53 372.43C50.4366 372.487 50.3295 372.518 50.22 372.52C50.1134 372.52 50.0087 372.491 49.9172 372.437C49.8256 372.382 49.7505 372.304 49.7 372.21H49.71ZM45.25 363.05C44.75 361.86 44.25 360.66 43.83 359.47C43.7686 359.312 43.7673 359.138 43.8263 358.979C43.8853 358.82 44.0005 358.689 44.15 358.61C44.2244 358.578 44.3047 358.563 44.3856 358.564C44.4665 358.565 44.5462 358.583 44.6197 358.617C44.6931 358.651 44.7587 358.7 44.8121 358.761C44.8656 358.821 44.9057 358.893 44.93 358.97C45.36 360.14 45.83 361.32 46.33 362.49C46.3972 362.647 46.4048 362.823 46.3514 362.985C46.298 363.147 46.1872 363.284 46.04 363.37C45.9623 363.409 45.8768 363.429 45.79 363.43C45.6709 363.428 45.5551 363.391 45.4571 363.324C45.3592 363.256 45.2836 363.161 45.24 363.05H45.25ZM41.79 353.36C41.43 352.11 41.09 350.85 40.79 349.62C40.7422 349.457 40.7592 349.282 40.8374 349.131C40.9157 348.98 41.0491 348.865 41.21 348.81C41.2876 348.789 41.3687 348.785 41.448 348.797C41.5274 348.81 41.6033 348.838 41.671 348.882C41.7387 348.925 41.7967 348.982 41.8412 349.049C41.8858 349.115 41.916 349.191 41.93 349.27C42.23 350.49 42.56 351.73 42.93 352.96C42.9809 353.121 42.9702 353.295 42.8999 353.448C42.8297 353.602 42.705 353.723 42.55 353.79H42.37C42.2384 353.791 42.1099 353.75 42.0035 353.673C41.8972 353.595 41.8188 353.486 41.78 353.36H41.79ZM39.49 343.26C39.29 341.99 39.1 340.69 38.96 339.4C38.9307 339.234 38.9678 339.064 39.0632 338.925C39.1587 338.787 39.3048 338.691 39.47 338.66C39.6339 338.649 39.7957 338.702 39.9209 338.809C40.0461 338.915 40.1247 339.066 40.14 339.23C40.28 340.5 40.46 341.78 40.66 343.03C40.6936 343.193 40.6637 343.362 40.5763 343.503C40.4889 343.645 40.3506 343.747 40.19 343.79H40.08C39.934 343.785 39.7944 343.729 39.685 343.632C39.5755 343.536 39.503 343.404 39.48 343.26H39.49ZM38.49 332.9C38.49 331.9 38.43 330.9 38.43 329.83V329C38.4259 328.918 38.438 328.837 38.4655 328.76C38.493 328.683 38.5353 328.613 38.5901 328.552C38.6449 328.492 38.7111 328.443 38.7849 328.408C38.8586 328.374 38.9385 328.354 39.02 328.35C39.1854 328.363 39.3391 328.44 39.4477 328.566C39.5563 328.691 39.611 328.854 39.6 329.02V329.84C39.6 330.84 39.6 331.84 39.6 332.84C39.614 333.007 39.5622 333.172 39.4556 333.301C39.3491 333.43 39.1963 333.512 39.03 333.53C38.8726 333.517 38.726 333.445 38.6201 333.328C38.5142 333.211 38.4569 333.058 38.46 332.9H38.49ZM39.28 323.2C39.1171 323.173 38.971 323.084 38.8722 322.951C38.7735 322.819 38.7297 322.654 38.75 322.49C38.86 321.2 39 319.89 39.16 318.6C39.166 318.518 39.1888 318.439 39.2268 318.366C39.2648 318.293 39.3173 318.229 39.381 318.178C39.4447 318.126 39.5183 318.088 39.5972 318.066C39.6762 318.044 39.7588 318.039 39.84 318.05C40.0033 318.084 40.147 318.18 40.2404 318.318C40.3338 318.456 40.3695 318.626 40.34 318.79C40.18 320.06 40.04 321.34 39.93 322.61C39.9229 322.765 39.8587 322.912 39.7498 323.023C39.6409 323.134 39.495 323.2 39.34 323.21L39.28 323.2ZM40.65 313C40.4898 312.949 40.3552 312.839 40.2734 312.692C40.1916 312.545 40.169 312.373 40.21 312.21C40.47 310.94 40.77 309.67 41.1 308.42C41.1149 308.341 41.1463 308.265 41.192 308.199C41.2377 308.132 41.2968 308.076 41.3656 308.034C41.4343 307.991 41.5111 307.964 41.591 307.953C41.671 307.942 41.7524 307.948 41.83 307.97C41.9897 308.029 42.121 308.146 42.1972 308.299C42.2733 308.451 42.2886 308.627 42.24 308.79C41.92 310.01 41.62 311.26 41.36 312.5C41.3413 312.64 41.2739 312.769 41.1696 312.864C41.0654 312.959 40.9309 313.014 40.79 313.02L40.65 313ZM43.35 303.11C43.1978 303.036 43.0793 302.907 43.0181 302.75C42.9569 302.592 42.9575 302.417 43.02 302.26C43.45 301.05 43.93 299.85 44.43 298.67C44.4582 298.595 44.5017 298.527 44.5576 298.469C44.6135 298.412 44.6807 298.367 44.7549 298.337C44.8291 298.307 44.9088 298.293 44.9888 298.295C45.0688 298.297 45.1475 298.316 45.22 298.35C45.3657 298.438 45.4751 298.575 45.5283 298.736C45.5815 298.898 45.575 299.073 45.51 299.23C45.01 300.39 44.51 301.57 44.12 302.75C44.0825 302.867 44.0093 302.97 43.9107 303.043C43.8121 303.117 43.6929 303.157 43.57 303.16C43.4926 303.16 43.4167 303.139 43.35 303.1V303.11ZM47.41 293.82C47.2691 293.721 47.1698 293.573 47.131 293.405C47.0923 293.237 47.1168 293.061 47.2 292.91C47.81 291.79 48.45 290.69 49.1 289.61C49.1404 289.541 49.1949 289.481 49.2599 289.435C49.3248 289.388 49.3989 289.356 49.4771 289.34C49.5554 289.324 49.6361 289.325 49.7141 289.342C49.7922 289.359 49.8657 289.392 49.93 289.44C50.0616 289.549 50.15 289.702 50.1793 289.87C50.2086 290.039 50.177 290.213 50.09 290.36C49.44 291.36 48.81 292.5 48.22 293.59C48.1724 293.685 48.0997 293.765 48.0097 293.821C47.9198 293.878 47.8161 293.908 47.71 293.91C47.6023 293.907 47.498 293.872 47.41 293.81V293.82ZM52.72 285.33C52.598 285.209 52.5237 285.049 52.5108 284.878C52.498 284.707 52.5474 284.537 52.65 284.4C53.4 283.4 54.19 282.4 54.98 281.47C55.0316 281.409 55.0959 281.36 55.1684 281.326C55.241 281.292 55.32 281.275 55.4 281.275C55.4799 281.275 55.5589 281.292 55.6315 281.326C55.704 281.36 55.7683 281.409 55.82 281.47C55.9338 281.598 55.9967 281.763 55.9967 281.935C55.9967 282.106 55.9338 282.272 55.82 282.4C55.04 283.32 54.27 284.29 53.53 285.28C53.4761 285.352 53.4069 285.411 53.3272 285.452C53.2476 285.494 53.1597 285.517 53.07 285.52C52.9318 285.501 52.8064 285.429 52.72 285.32V285.33ZM59.15 277.85C59.0428 277.716 58.9886 277.547 58.9979 277.375C59.0071 277.204 59.079 277.042 59.2 276.92C60.08 276.05 60.99 275.2 61.9 274.4C61.96 274.346 62.0308 274.307 62.1076 274.283C62.1844 274.259 62.2654 274.252 62.3451 274.263C62.4248 274.273 62.5013 274.301 62.5694 274.343C62.6376 274.386 62.6957 274.443 62.74 274.51C62.8381 274.649 62.8821 274.819 62.8637 274.989C62.8453 275.158 62.7657 275.315 62.64 275.43C61.74 276.22 60.85 277.05 59.98 277.9C59.8774 278.006 59.7373 278.067 59.59 278.07C59.504 278.067 59.4198 278.045 59.3436 278.005C59.2674 277.965 59.2012 277.909 59.15 277.84V277.85ZM66.51 271.52C66.4279 271.371 66.4009 271.199 66.4339 271.032C66.4668 270.866 66.5575 270.716 66.69 270.61C67.69 269.89 68.69 269.22 69.69 268.61C69.7584 268.569 69.8348 268.544 69.9139 268.535C69.993 268.526 70.0731 268.534 70.1488 268.559C70.2245 268.584 70.2941 268.624 70.3529 268.678C70.4117 268.731 70.4585 268.797 70.49 268.87C70.5677 269.021 70.5872 269.195 70.5447 269.359C70.5023 269.523 70.4009 269.666 70.26 269.76C69.26 270.36 68.26 271.02 67.26 271.76C67.1663 271.826 67.0544 271.861 66.94 271.86C66.8457 271.84 66.7576 271.797 66.6829 271.737C66.6082 271.676 66.5489 271.598 66.51 271.51V271.52Z" fill="#0B0B0B"/>
<path d="M75.3602 267.19H75.5402C76.0684 266.99 76.6141 266.839 77.1702 266.74C77.3343 266.704 77.4781 266.605 77.5713 266.466C77.6645 266.326 77.7 266.155 77.6702 265.99C77.6639 265.909 77.6415 265.83 77.6042 265.757C77.567 265.685 77.5156 265.621 77.4532 265.569C77.3908 265.517 77.3185 265.477 77.2407 265.454C77.1629 265.43 77.0811 265.422 77.0002 265.43C76.3807 265.546 75.7719 265.713 75.1802 265.93C75.0218 265.993 74.8934 266.114 74.8209 266.268C74.7485 266.422 74.7375 266.598 74.7902 266.76C74.828 266.882 74.9034 266.99 75.0057 267.067C75.108 267.144 75.232 267.187 75.3602 267.19Z" fill="#0B0B0B"/>
<path d="M356.16 37.14L294.66 18.29L342.04 50.84L356.16 37.14Z" fill="#FECA13"/>
<path opacity="0.15" d="M356.16 37.14L294.66 18.29L342.04 50.84L356.16 37.14Z" fill="white"/>
<path d="M294.66 18.29L360.85 28.94L374.97 15.24L294.66 18.29Z" fill="#FECA13"/>
<path opacity="0.15" d="M294.66 18.29L360.85 28.94L374.97 15.24L294.66 18.29Z" fill="white"/>
<path d="M360.85 28.94L360.92 45.3L356.16 37.14L294.66 18.29L360.85 28.94Z" fill="#FECA13"/>
<path opacity="0.2" d="M360.85 28.94L360.92 45.3L356.16 37.14L294.66 18.29L360.85 28.94Z" fill="black"/>
<path d="M360.92 45.2999L351.45 41.6999L356.16 37.1399L360.92 45.2999Z" fill="#FECA13"/>
<path opacity="0.2" d="M356.16 37.1399L351.45 41.6999L352.96 42.2799L356.16 37.1399Z" fill="black"/>
<path d="M373.32 34.26C373.263 34.3027 373.214 34.3566 373.178 34.4185C373.142 34.4804 373.119 34.5489 373.11 34.62C373.089 34.7907 373.131 34.9632 373.226 35.1062C373.321 35.2493 373.465 35.3535 373.63 35.4L375.45 35.89C375.527 35.914 375.607 35.9211 375.687 35.9107C375.766 35.9004 375.842 35.8728 375.91 35.8299C375.977 35.7871 376.035 35.73 376.078 35.6626C376.121 35.5953 376.149 35.5193 376.16 35.44C376.184 35.2717 376.147 35.1004 376.055 34.9572C375.963 34.8141 375.823 34.7086 375.66 34.66L373.82 34.17C373.736 34.1453 373.646 34.1406 373.56 34.1562C373.473 34.1718 373.391 34.2074 373.32 34.26Z" fill="#0B0B0B"/>
<path d="M381.65 36.4901C382.84 36.8901 384.03 37.3001 385.2 37.7401C385.361 37.8008 385.494 37.9167 385.576 38.0671C385.659 38.2174 385.685 38.3922 385.65 38.5601C385.629 38.6375 385.592 38.7095 385.541 38.7713C385.49 38.8331 385.426 38.8832 385.354 38.9183C385.282 38.9533 385.204 38.9725 385.124 38.9746C385.043 38.9766 384.964 38.9614 384.89 38.9301C383.73 38.5001 382.55 38.0901 381.37 37.6901C381.209 37.6352 381.074 37.5238 380.99 37.3766C380.905 37.2294 380.877 37.0565 380.91 36.8901C380.933 36.7618 381.005 36.6473 381.11 36.5701C381.186 36.5126 381.276 36.4752 381.37 36.4612C381.464 36.4473 381.561 36.4572 381.65 36.4901ZM391.06 40.1101C392.23 40.6301 393.38 41.1101 394.52 41.7201C394.675 41.7923 394.797 41.9191 394.863 42.076C394.93 42.233 394.936 42.409 394.88 42.5701C394.849 42.6437 394.803 42.7101 394.745 42.7651C394.687 42.8201 394.619 42.8626 394.543 42.8898C394.468 42.917 394.388 42.9284 394.309 42.9233C394.229 42.9182 394.151 42.8967 394.08 42.8601C392.96 42.3101 391.82 41.7801 390.67 41.2801C390.515 41.2099 390.391 41.0866 390.319 40.9324C390.248 40.7783 390.234 40.6036 390.28 40.4401C390.313 40.3321 390.38 40.2376 390.47 40.1701C390.554 40.1079 390.653 40.0695 390.757 40.059C390.861 40.0484 390.965 40.0661 391.06 40.1101ZM400.16 44.7001C401.28 45.3667 402.38 46.0334 403.46 46.7001C403.604 46.7893 403.71 46.9277 403.76 47.0895C403.81 47.2512 403.799 47.4255 403.73 47.5801C403.69 47.6509 403.636 47.7125 403.571 47.761C403.506 47.8096 403.432 47.8439 403.352 47.8618C403.273 47.8797 403.191 47.8808 403.112 47.865C403.032 47.8492 402.956 47.8169 402.89 47.7701C401.83 47.1001 400.74 46.4501 399.64 45.7701C399.492 45.6874 399.379 45.5529 399.324 45.3924C399.269 45.2319 399.274 45.0566 399.34 44.9001C399.373 44.8168 399.429 44.7441 399.5 44.6901C399.599 44.627 399.714 44.5944 399.832 44.5962C399.949 44.5979 400.063 44.6341 400.16 44.7001ZM408.78 50.3101C409.83 51.0801 410.86 51.8801 411.85 52.6801C411.984 52.7834 412.074 52.9336 412.102 53.1006C412.13 53.2676 412.093 53.4389 412 53.5801C411.951 53.6448 411.888 53.6985 411.817 53.7375C411.746 53.7766 411.667 53.8002 411.586 53.8068C411.505 53.8134 411.423 53.8029 411.346 53.7759C411.27 53.7489 411.199 53.706 411.14 53.6501C410.14 52.8601 409.14 52.0801 408.14 51.3201C408 51.2226 407.901 51.0759 407.864 50.9092C407.827 50.7424 407.854 50.5678 407.94 50.4201C407.969 50.3677 408.01 50.3231 408.06 50.2901C408.166 50.215 408.294 50.1764 408.423 50.18C408.553 50.1836 408.678 50.2293 408.78 50.3101ZM416.78 56.9501C417.72 57.8401 418.65 58.7601 419.55 59.7001C419.666 59.8211 419.731 59.9824 419.731 60.1501C419.731 60.3178 419.666 60.479 419.55 60.6001C419.426 60.7085 419.264 60.7639 419.1 60.7546C418.935 60.7453 418.781 60.6718 418.67 60.5501C417.79 59.6301 416.87 58.7201 415.95 57.8501C415.825 57.7384 415.747 57.5831 415.732 57.4159C415.717 57.2487 415.767 57.0821 415.87 56.9501C415.894 56.921 415.921 56.8942 415.95 56.8701C416.075 56.7976 416.221 56.7709 416.364 56.7946C416.506 56.8183 416.636 56.891 416.73 57.0001L416.78 56.9501ZM423.87 64.5701C424.52 65.3601 425.15 66.1601 425.78 66.9801L426.28 67.6501C426.385 67.7779 426.435 67.9418 426.42 68.1065C426.405 68.2711 426.326 68.4232 426.2 68.5301C426.132 68.5769 426.056 68.6098 425.975 68.6266C425.894 68.6434 425.81 68.6439 425.729 68.6281C425.648 68.6123 425.571 68.5804 425.503 68.5344C425.434 68.4883 425.375 68.4291 425.33 68.3601L424.83 67.7001C424.22 66.8901 423.6 66.1101 422.96 65.3301C422.845 65.2107 422.78 65.0512 422.78 64.8851C422.78 64.719 422.845 64.5594 422.96 64.4401C423.092 64.3446 423.256 64.3047 423.417 64.329C423.578 64.3533 423.723 64.4399 423.82 64.5701H423.87ZM429.12 72.7701C429.267 72.6927 429.438 72.6744 429.598 72.7191C429.758 72.7637 429.895 72.8678 429.98 73.0101C430.67 74.1001 431.35 75.2301 431.98 76.3501C432.024 76.4195 432.054 76.497 432.067 76.578C432.081 76.659 432.079 76.7419 432.06 76.8219C432.041 76.9019 432.007 76.9775 431.959 77.0441C431.911 77.1107 431.85 77.1671 431.78 77.2101C431.628 77.2779 431.456 77.2857 431.298 77.232C431.141 77.1782 431.009 77.0668 430.93 76.9201C430.29 75.8101 429.62 74.7001 428.93 73.6301C428.841 73.503 428.804 73.3473 428.824 73.1937C428.844 73.0401 428.921 72.8997 429.04 72.8001L429.12 72.7701ZM434.19 81.7701C434.35 81.7126 434.525 81.7178 434.681 81.7846C434.837 81.8514 434.962 81.9749 435.03 82.1301C435.58 83.3001 436.12 84.4901 436.61 85.6801C436.645 85.7533 436.664 85.8329 436.667 85.9139C436.671 85.9948 436.657 86.0756 436.628 86.1513C436.599 86.227 436.555 86.2961 436.499 86.3543C436.442 86.4125 436.375 86.4587 436.3 86.4901C436.137 86.5363 435.962 86.5199 435.811 86.444C435.659 86.3682 435.541 86.2384 435.48 86.0801C435 84.9101 434.48 83.7401 433.93 82.6001C433.861 82.4761 433.839 82.3318 433.866 82.1926C433.894 82.0535 433.969 81.9286 434.08 81.8401C434.095 81.8041 434.115 81.7704 434.14 81.7401L434.19 81.7701ZM438.04 91.2701C438.207 91.2386 438.379 91.2703 438.523 91.3591C438.667 91.4479 438.773 91.5873 438.82 91.7501C439.2 92.9701 439.56 94.2201 439.87 95.4601C439.894 95.537 439.901 95.618 439.892 95.698C439.882 95.778 439.856 95.855 439.814 95.9239C439.773 95.9929 439.717 96.0523 439.651 96.0982C439.584 96.144 439.509 96.1754 439.43 96.1901C439.261 96.2115 439.091 96.1689 438.952 96.0708C438.813 95.9727 438.716 95.8262 438.68 95.6601C438.37 94.4501 438.02 93.2201 437.68 92.0301C437.642 91.9121 437.64 91.7856 437.674 91.6664C437.708 91.5473 437.776 91.4407 437.87 91.3601C437.908 91.3145 437.952 91.2742 438 91.2401L438.04 91.2701ZM440.44 101.12C440.611 101.116 440.778 101.175 440.909 101.285C441.04 101.396 441.126 101.551 441.15 101.72C441.35 102.97 441.51 104.24 441.64 105.5C441.65 105.578 441.643 105.658 441.62 105.734C441.597 105.809 441.558 105.879 441.506 105.938C441.454 105.998 441.391 106.046 441.319 106.079C441.247 106.112 441.169 106.129 441.09 106.13C440.919 106.126 440.756 106.06 440.631 105.944C440.506 105.828 440.427 105.67 440.41 105.5C440.28 104.27 440.13 103.03 439.93 101.8C439.913 101.695 439.924 101.587 439.961 101.488C439.997 101.388 440.059 101.299 440.14 101.23C440.212 101.165 440.297 101.117 440.39 101.09L440.44 101.12Z" fill="#0B0B0B"/>
<path d="M451.34 260.82C448.66 259.22 444.88 259.44 440.68 261.82L364.52 305.82C356.39 310.51 349.79 321.67 349.79 330.73C349.79 335.16 351.37 338.27 353.93 339.73L362.1 344.44C364.77 345.96 368.5 345.71 372.64 343.33L448.81 299.33C456.94 294.64 463.53 283.48 463.53 274.41C463.53 270 461.97 266.9 459.43 265.41C458 264.66 452.68 261.62 451.34 260.82Z" fill="#E0E0E0"/>
<path d="M365.88 344.94C361.28 344.94 358.42 341.3 358.42 335.45C358.42 326.56 364.91 315.57 372.89 310.97L449.06 266.97C451.021 265.753 453.264 265.064 455.57 264.97C460.17 264.97 463.03 268.61 463.03 274.46C463.03 283.36 456.54 294.34 448.56 298.95L372.39 342.95C370.43 344.168 368.186 344.854 365.88 344.94Z" fill="#FAFAFA"/>
<path d="M455.57 265.48C459.86 265.48 462.57 268.93 462.57 274.48C462.57 283.22 456.19 294.01 448.35 298.48L372.18 342.48C370.296 343.656 368.139 344.324 365.92 344.42C364.97 344.452 364.025 344.266 363.159 343.876C362.292 343.486 361.526 342.902 360.92 342.17C359.499 340.219 358.793 337.84 358.92 335.43C358.92 326.7 365.3 315.91 373.14 311.38L449.31 267.38C451.194 266.204 453.351 265.536 455.57 265.44M455.57 264.44C453.174 264.531 450.843 265.248 448.81 266.52L372.64 310.52C364.51 315.22 357.92 326.37 357.92 335.44C357.92 341.79 361.15 345.44 365.92 345.44C368.315 345.347 370.644 344.634 372.68 343.37L448.85 299.37C456.98 294.68 463.57 283.52 463.57 274.45C463.57 268.1 460.34 264.45 455.57 264.45V264.44Z" fill="#EBEBEB"/>
<path d="M384.58 320.34C384.89 319.76 384.83 319.17 384.58 319.01L382 317.54C381.946 317.512 381.886 317.497 381.825 317.497C381.764 317.497 381.704 317.512 381.65 317.54L379.31 318.44L378.54 316.8C378.502 316.719 378.439 316.652 378.36 316.61L375.81 315.13C375.49 314.95 374.96 315.36 374.75 316.04L373.16 321.25C373.073 321.564 372.892 321.843 372.64 322.05L369.09 324.79C368.52 325.23 368.3 326.29 368.71 326.58L371.28 328.44C371.369 328.531 371.433 328.643 371.468 328.765C371.503 328.887 371.507 329.016 371.48 329.14L370.87 334.21C370.82 334.58 370.93 334.83 371.1 334.92L373.65 336.4C373.85 336.51 374.15 336.4 374.42 336.07L377.6 332C377.666 331.889 377.76 331.796 377.872 331.732C377.984 331.667 378.111 331.632 378.24 331.63L381.42 332.02C381.92 332.08 382.51 331.17 382.42 330.48L381.81 326.11C381.782 325.787 381.852 325.463 382.01 325.18L384.58 320.34Z" fill="#FECA13"/>
<path opacity="0.15" d="M384.55 319C384.495 318.975 384.435 318.962 384.375 318.962C384.315 318.962 384.255 318.975 384.2 319L380.64 320.36C380.594 320.383 380.543 320.396 380.492 320.398C380.44 320.4 380.389 320.391 380.341 320.373C380.293 320.354 380.249 320.325 380.213 320.288C380.177 320.252 380.148 320.208 380.13 320.16L379.31 318.42L381.65 317.53C381.704 317.502 381.764 317.488 381.825 317.488C381.886 317.488 381.946 317.502 382 317.53L384.55 319Z" fill="white"/>
<path opacity="0.15" d="M375.71 322.71C375.621 323.023 375.44 323.302 375.19 323.51L371.64 326.25C371.477 326.377 371.346 326.542 371.26 326.73L368.71 325.25C368.802 325.065 368.931 324.902 369.09 324.77L372.64 322.03C372.892 321.823 373.073 321.544 373.16 321.23L375.71 322.71Z" fill="white"/>
<path opacity="0.1" d="M378.38 316.6C378.06 316.39 377.52 316.8 377.3 317.5L375.71 322.71L373.16 321.23L374.75 316.02C374.96 315.34 375.49 314.93 375.81 315.11C375.88 315.11 378.04 316.41 378.37 316.58C378.37 316.59 378.38 316.59 378.38 316.6Z" fill="black"/>
<path opacity="0.25" d="M373.83 329.89L371.3 328.44L368.73 326.58C368.43 326.36 368.47 325.76 368.73 325.27L371.28 326.75C371.02 327.23 370.98 327.84 371.28 328.05L373.83 329.89Z" fill="black"/>
<path opacity="0.15" d="M373.42 335.66C373.42 336.04 373.48 336.29 373.67 336.39L371.11 334.91C370.94 334.81 370.84 334.57 370.89 334.2L371.5 329.13C371.525 329.01 371.522 328.887 371.491 328.768C371.46 328.65 371.401 328.541 371.32 328.45L373.85 329.9C373.932 329.989 373.991 330.096 374.022 330.213C374.053 330.33 374.056 330.452 374.03 330.57L373.42 335.66Z" fill="black"/>
<path d="M378.54 316.78L380.13 320.16C380.148 320.208 380.176 320.252 380.213 320.288C380.249 320.325 380.293 320.354 380.341 320.373C380.389 320.391 380.44 320.4 380.492 320.398C380.543 320.396 380.594 320.383 380.64 320.36L384.2 319C384.76 318.78 384.99 319.58 384.58 320.34L382 325.17C381.842 325.453 381.772 325.777 381.8 326.1L382.41 330.47C382.5 331.16 381.91 332.07 381.41 332.01L378.23 331.62C378.101 331.622 377.974 331.657 377.862 331.722C377.75 331.786 377.656 331.879 377.59 331.99L374.41 336.05C373.9 336.7 373.31 336.47 373.41 335.66L374.02 330.59C374.049 330.466 374.045 330.336 374.01 330.214C373.975 330.091 373.91 329.98 373.82 329.89L371.26 328C370.85 327.7 371.08 326.65 371.64 326.21L375.19 323.47C375.441 323.263 375.623 322.984 375.71 322.67L377.3 317.46C377.55 316.67 378.28 316.25 378.54 316.78Z" fill="#FECA13"/>
<path opacity="0.5" d="M378.54 316.78L380.13 320.16C380.148 320.208 380.176 320.252 380.213 320.288C380.249 320.325 380.293 320.354 380.341 320.373C380.389 320.391 380.44 320.4 380.492 320.398C380.543 320.396 380.594 320.383 380.64 320.36L384.2 319C384.76 318.78 384.99 319.58 384.58 320.34L382 325.17C381.842 325.453 381.772 325.777 381.8 326.1L382.41 330.47C382.5 331.16 381.91 332.07 381.41 332.01L378.23 331.62C378.101 331.622 377.974 331.657 377.862 331.722C377.75 331.786 377.656 331.879 377.59 331.99L374.41 336.05C373.9 336.7 373.31 336.47 373.41 335.66L374.02 330.59C374.049 330.466 374.045 330.336 374.01 330.214C373.975 330.091 373.91 329.98 373.82 329.89L371.26 328C370.85 327.7 371.08 326.65 371.64 326.21L375.19 323.47C375.441 323.263 375.623 322.984 375.71 322.67L377.3 317.46C377.55 316.67 378.28 316.25 378.54 316.78Z" fill="white"/>
<path d="M402.43 310.05C402.74 309.47 402.68 308.88 402.43 308.72L399.89 307.24C399.834 307.214 399.772 307.201 399.71 307.201C399.648 307.201 399.587 307.214 399.53 307.24L397.2 308.14L396.42 306.5C396.389 306.418 396.328 306.35 396.25 306.31L393.7 304.83C393.38 304.65 392.85 305.06 392.64 305.74L391 310.94C390.909 311.252 390.728 311.53 390.48 311.74L386.93 314.48C386.36 314.92 386.14 315.97 386.54 316.27L389.12 318.13C389.209 318.22 389.274 318.332 389.307 318.455C389.34 318.578 389.341 318.707 389.31 318.83L388.71 323.9C388.66 324.27 388.71 324.51 388.93 324.61L391.49 326.09C391.69 326.2 391.98 326.09 392.26 325.76L395.44 321.7C395.507 321.589 395.6 321.496 395.712 321.432C395.824 321.367 395.951 321.332 396.08 321.33L399.26 321.72C399.76 321.78 400.35 320.87 400.26 320.18L399.66 315.81C399.628 315.486 399.698 315.161 399.86 314.88L402.43 310.05Z" fill="#FECA13"/>
<path opacity="0.15" d="M402.4 308.71C402.345 308.685 402.285 308.673 402.225 308.673C402.165 308.673 402.105 308.685 402.05 308.71L398.49 310.07C398.443 310.093 398.392 310.106 398.34 310.108C398.288 310.111 398.235 310.102 398.187 310.083C398.138 310.065 398.093 310.036 398.056 309.999C398.019 309.962 397.99 309.918 397.97 309.87L397.16 308.13L399.49 307.24C399.546 307.212 399.608 307.198 399.67 307.198C399.733 307.198 399.794 307.212 399.85 307.24L402.4 308.71Z" fill="white"/>
<path opacity="0.15" d="M393.56 312.41C393.473 312.727 393.292 313.009 393.04 313.22L389.49 316C389.326 316.127 389.196 316.292 389.11 316.48L386.55 315C386.648 314.817 386.781 314.654 386.94 314.52L390.49 311.78C390.738 311.57 390.919 311.292 391.01 310.98L393.56 312.41Z" fill="white"/>
<path opacity="0.1" d="M396.23 306.31C395.91 306.1 395.37 306.51 395.15 307.2L393.56 312.41L391 310.94L392.59 305.73C392.8 305.05 393.33 304.64 393.65 304.82C393.72 304.82 395.88 306.12 396.2 306.29L396.23 306.31Z" fill="black"/>
<path opacity="0.25" d="M391.68 319.6L389.15 318.15L386.58 316.29C386.29 316.07 386.33 315.47 386.58 314.98L389.14 316.46C388.88 316.94 388.84 317.55 389.14 317.76L391.68 319.6Z" fill="black"/>
<path opacity="0.15" d="M391.27 325.37C391.27 325.75 391.33 326 391.51 326.1L388.96 324.62C388.79 324.52 388.69 324.28 388.74 323.91L389.35 318.83C389.372 318.712 389.368 318.59 389.336 318.474C389.305 318.358 389.248 318.251 389.17 318.16L391.7 319.61C391.782 319.699 391.841 319.806 391.872 319.923C391.903 320.04 391.906 320.162 391.88 320.28L391.27 325.37Z" fill="black"/>
<path d="M396.38 306.49L397.97 309.87C397.99 309.918 398.019 309.963 398.056 309.999C398.093 310.036 398.138 310.065 398.187 310.083C398.235 310.102 398.288 310.111 398.34 310.108C398.392 310.106 398.443 310.093 398.49 310.07L402.05 308.71C402.61 308.49 402.84 309.29 402.43 310.05L399.86 314.88C399.698 315.161 399.628 315.487 399.66 315.81L400.26 320.18C400.36 320.87 399.77 321.78 399.26 321.72L396.08 321.33C395.951 321.332 395.824 321.367 395.712 321.432C395.6 321.497 395.507 321.589 395.44 321.7L392.26 325.76C391.75 326.41 391.16 326.18 391.26 325.37L391.87 320.3C391.897 320.176 391.893 320.047 391.858 319.925C391.823 319.803 391.759 319.691 391.67 319.6L389.1 317.74C388.69 317.45 388.91 316.39 389.48 315.96L393.03 313.22C393.282 313.013 393.463 312.734 393.55 312.42L395.14 307.21C395.4 306.38 396.13 306 396.38 306.49Z" fill="#FECA13"/>
<path opacity="0.5" d="M396.38 306.49L397.97 309.87C397.99 309.918 398.019 309.963 398.056 309.999C398.093 310.036 398.138 310.065 398.187 310.083C398.235 310.102 398.288 310.111 398.34 310.108C398.392 310.106 398.443 310.093 398.49 310.07L402.05 308.71C402.61 308.49 402.84 309.29 402.43 310.05L399.86 314.88C399.698 315.161 399.628 315.487 399.66 315.81L400.26 320.18C400.36 320.87 399.77 321.78 399.26 321.72L396.08 321.33C395.951 321.332 395.824 321.367 395.712 321.432C395.6 321.497 395.507 321.589 395.44 321.7L392.26 325.76C391.75 326.41 391.16 326.18 391.26 325.37L391.87 320.3C391.897 320.176 391.893 320.047 391.858 319.925C391.823 319.803 391.759 319.691 391.67 319.6L389.1 317.74C388.69 317.45 388.91 316.39 389.48 315.96L393.03 313.22C393.282 313.013 393.463 312.734 393.55 312.42L395.14 307.21C395.4 306.38 396.13 306 396.38 306.49Z" fill="white"/>
<path d="M420.28 299.76C420.58 299.18 420.53 298.59 420.28 298.43L417.7 297C417.643 296.974 417.582 296.961 417.52 296.961C417.458 296.961 417.397 296.974 417.34 297L415 297.9L414.23 296.26C414.196 296.177 414.137 296.107 414.06 296.06C413.74 295.89 411.58 294.63 411.51 294.59C411.19 294.41 410.65 294.82 410.45 295.5L408.86 300.71C408.769 301.022 408.588 301.3 408.34 301.51L404.78 304.25C404.22 304.69 403.99 305.74 404.4 306.04L406.97 307.9C407.063 307.986 407.13 308.096 407.165 308.217C407.2 308.339 407.202 308.467 407.17 308.59L406.56 313.66C406.56 314.03 406.62 314.28 406.79 314.38L409.34 315.86C409.55 315.97 409.84 315.86 410.12 315.53L413.29 311.47C413.357 311.357 413.452 311.264 413.566 311.199C413.68 311.134 413.809 311.1 413.94 311.1L417.11 311.49C417.62 311.55 418.21 310.64 418.11 309.95L417.51 305.58C417.478 305.258 417.544 304.933 417.7 304.65L420.28 299.76Z" fill="#FECA13"/>
<path opacity="0.15" d="M420.25 298.42C420.193 298.395 420.132 298.382 420.07 298.382C420.008 298.382 419.947 298.395 419.89 298.42L416.34 299.78C416.293 299.803 416.242 299.816 416.19 299.818C416.137 299.821 416.085 299.812 416.036 299.793C415.988 299.775 415.943 299.746 415.906 299.709C415.869 299.673 415.839 299.628 415.82 299.58L415 297.84L417.34 296.95C417.394 296.92 417.454 296.905 417.515 296.905C417.576 296.905 417.636 296.92 417.69 296.95L420.25 298.42Z" fill="white"/>
<path opacity="0.15" d="M411.41 302.12C411.319 302.435 411.139 302.716 410.89 302.93L407.34 305.67C407.176 305.799 407.043 305.963 406.95 306.15L404.4 304.67C404.498 304.487 404.631 304.324 404.79 304.19L408.34 301.45C408.588 301.24 408.769 300.962 408.86 300.65L411.41 302.12Z" fill="white"/>
<path opacity="0.1" d="M414.08 296C413.76 295.79 413.21 296.2 413 296.89L411.41 302.1L408.86 300.63L410.45 295.42C410.66 294.74 411.19 294.33 411.51 294.51C411.58 294.51 413.73 295.81 414.06 295.98L414.08 296Z" fill="black"/>
<path opacity="0.25" d="M409.52 309.31L407 307.86L404.4 306C404.11 305.78 404.14 305.18 404.4 304.69L406.95 306.17C406.7 306.65 406.66 307.26 406.95 307.47L409.52 309.31Z" fill="black"/>
<path opacity="0.15" d="M409.12 315.08C409.07 315.46 409.18 315.71 409.36 315.81L406.81 314.33C406.64 314.23 406.54 313.99 406.58 313.62L407.19 308.54C407.216 308.423 407.214 308.301 407.185 308.185C407.155 308.068 407.099 307.961 407.02 307.87L409.54 309.32C409.618 309.411 409.675 309.518 409.707 309.634C409.738 309.75 409.742 309.872 409.72 309.99L409.12 315.08Z" fill="black"/>
<path d="M414.23 296.2L415.82 299.58C415.84 299.628 415.869 299.672 415.906 299.709C415.943 299.746 415.988 299.774 416.036 299.793C416.085 299.812 416.137 299.82 416.19 299.818C416.242 299.816 416.293 299.803 416.34 299.78L419.89 298.42C420.46 298.2 420.68 299 420.28 299.76L417.7 304.59C417.544 304.873 417.478 305.198 417.51 305.52L418.11 309.89C418.21 310.58 417.62 311.49 417.11 311.43L413.94 311.04C413.809 311.04 413.68 311.074 413.566 311.139C413.453 311.204 413.357 311.297 413.29 311.41L410.12 315.47C409.61 316.12 409.02 315.89 409.12 315.08L409.72 310.01C409.75 309.887 409.749 309.758 409.715 309.635C409.682 309.513 409.618 309.401 409.53 309.31L407 307.45C406.6 307.16 406.82 306.1 407.39 305.67L410.94 302.93C411.187 302.719 411.367 302.441 411.46 302.13L413.05 296.91C413.25 296.09 414 295.67 414.23 296.2Z" fill="#FECA13"/>
<path opacity="0.5" d="M414.23 296.2L415.82 299.58C415.84 299.628 415.869 299.672 415.906 299.709C415.943 299.746 415.988 299.774 416.036 299.793C416.085 299.812 416.137 299.82 416.19 299.818C416.242 299.816 416.293 299.803 416.34 299.78L419.89 298.42C420.46 298.2 420.68 299 420.28 299.76L417.7 304.59C417.544 304.873 417.478 305.198 417.51 305.52L418.11 309.89C418.21 310.58 417.62 311.49 417.11 311.43L413.94 311.04C413.809 311.04 413.68 311.074 413.566 311.139C413.453 311.204 413.357 311.297 413.29 311.41L410.12 315.47C409.61 316.12 409.02 315.89 409.12 315.08L409.72 310.01C409.75 309.887 409.749 309.758 409.715 309.635C409.682 309.513 409.618 309.401 409.53 309.31L407 307.45C406.6 307.16 406.82 306.1 407.39 305.67L410.94 302.93C411.187 302.719 411.367 302.441 411.46 302.13L413.05 296.91C413.25 296.09 414 295.67 414.23 296.2Z" fill="white"/>
<path d="M438.12 289.47C438.43 288.89 438.38 288.3 438.12 288.13L435.58 286.66C435.523 286.634 435.462 286.621 435.4 286.621C435.338 286.621 435.276 286.634 435.22 286.66L432.88 287.56L432.11 285.92C432.076 285.837 432.016 285.767 431.94 285.72C431.62 285.55 429.46 284.29 429.39 284.25C429.07 284.07 428.53 284.47 428.32 285.16L426.73 290.37C426.643 290.681 426.465 290.96 426.22 291.17L422.66 293.91C422.1 294.35 421.87 295.4 422.28 295.7L424.85 297.56C424.941 297.647 425.007 297.757 425.042 297.878C425.077 297.999 425.08 298.127 425.05 298.25L424.44 303.32C424.44 303.69 424.5 303.94 424.67 304.04L427.22 305.52C427.42 305.63 427.72 305.52 427.99 305.19L431.17 301.13C431.236 301.019 431.33 300.927 431.442 300.862C431.554 300.797 431.681 300.762 431.81 300.76L434.99 301.15C435.5 301.21 436.09 300.3 435.99 299.61L435.38 295.24C435.356 294.917 435.426 294.594 435.58 294.31L438.12 289.47Z" fill="#FECA13"/>
<path opacity="0.15" d="M438.09 288.13C438.036 288.103 437.976 288.088 437.915 288.088C437.854 288.088 437.794 288.103 437.74 288.13L434.18 289.49C434.134 289.513 434.083 289.526 434.032 289.528C433.98 289.53 433.929 289.522 433.881 289.503C433.833 289.484 433.789 289.455 433.753 289.419C433.717 289.382 433.688 289.338 433.67 289.29L432.85 287.55L435.19 286.65C435.244 286.622 435.304 286.607 435.365 286.607C435.426 286.607 435.486 286.622 435.54 286.65L438.09 288.13Z" fill="white"/>
<path opacity="0.15" d="M429.26 291.83C429.169 292.145 428.989 292.426 428.74 292.64L425.19 295.38C425.026 295.509 424.893 295.673 424.8 295.86L422.25 294.38C422.345 294.197 422.474 294.034 422.63 293.9L426.18 291.16C426.435 290.954 426.62 290.675 426.71 290.36L429.26 291.83Z" fill="white"/>
<path opacity="0.1" d="M431.93 285.72C431.61 285.52 431.06 285.93 430.85 286.62L429.26 291.83L426.71 290.36L428.3 285.15C428.5 284.47 429.04 284.06 429.36 284.24C429.43 284.24 431.58 285.54 431.91 285.71L431.93 285.72Z" fill="black"/>
<path opacity="0.25" d="M427.37 299L424.85 297.55L422.28 295.69C421.98 295.47 422.02 294.87 422.28 294.38L424.83 295.86C424.57 296.34 424.54 296.95 424.83 297.16L427.37 299Z" fill="black"/>
<path opacity="0.15" d="M427 304.79C427 305.17 427.07 305.42 427.25 305.51L424.64 304C424.47 303.9 424.37 303.66 424.41 303.28L425.02 298.21C425.044 298.092 425.041 297.971 425.011 297.855C424.982 297.74 424.927 297.632 424.85 297.54L427.37 298.99C427.449 299.08 427.506 299.188 427.536 299.304C427.565 299.421 427.567 299.543 427.54 299.66L427 304.79Z" fill="black"/>
<path d="M432.08 285.91L433.67 289.29C433.689 289.338 433.719 289.382 433.756 289.419C433.793 289.456 433.838 289.484 433.886 289.503C433.935 289.522 433.987 289.531 434.04 289.528C434.092 289.526 434.143 289.513 434.19 289.49L437.74 288.13C438.31 287.91 438.53 288.71 438.12 289.47L435.55 294.3C435.396 294.584 435.326 294.907 435.35 295.23L435.96 299.6C436.06 300.29 435.47 301.2 434.96 301.14L431.78 300.75C431.651 300.752 431.524 300.787 431.412 300.852C431.3 300.916 431.206 301.009 431.14 301.12L428 305.18C427.5 305.83 426.91 305.59 427 304.79L427.61 299.72C427.642 299.596 427.64 299.466 427.605 299.343C427.57 299.22 427.502 299.108 427.41 299.02L424.84 297.16C424.43 296.87 424.66 295.81 425.22 295.38L428.78 292.64C429.024 292.426 429.204 292.149 429.3 291.84L430.89 286.62C431.1 285.8 431.83 285.37 432.08 285.91Z" fill="#FECA13"/>
<path opacity="0.5" d="M432.08 285.91L433.67 289.29C433.689 289.338 433.719 289.382 433.756 289.419C433.793 289.456 433.838 289.484 433.886 289.503C433.935 289.522 433.987 289.531 434.04 289.528C434.092 289.526 434.143 289.513 434.19 289.49L437.74 288.13C438.31 287.91 438.53 288.71 438.12 289.47L435.55 294.3C435.396 294.584 435.326 294.907 435.35 295.23L435.96 299.6C436.06 300.29 435.47 301.2 434.96 301.14L431.78 300.75C431.651 300.752 431.524 300.787 431.412 300.852C431.3 300.916 431.206 301.009 431.14 301.12L428 305.18C427.5 305.83 426.91 305.59 427 304.79L427.61 299.72C427.642 299.596 427.64 299.466 427.605 299.343C427.57 299.22 427.502 299.108 427.41 299.02L424.84 297.16C424.43 296.87 424.66 295.81 425.22 295.38L428.78 292.64C429.024 292.426 429.204 292.149 429.3 291.84L430.89 286.62C431.1 285.8 431.83 285.37 432.08 285.91Z" fill="white"/>
<path d="M456 279.18C456.31 278.6 456.26 278.01 456 277.84L453.45 276.37C453.395 276.345 453.336 276.332 453.275 276.332C453.215 276.332 453.155 276.345 453.1 276.37L450.76 277.27L449.99 275.63C449.95 275.551 449.891 275.483 449.82 275.43C449.49 275.25 447.33 274 447.27 273.96C446.94 273.78 446.41 274.18 446.2 274.87L444.61 280.08C444.523 280.394 444.342 280.673 444.09 280.88L440.54 283.62C439.97 284.06 439.75 285.11 440.16 285.41L442.73 287.26C442.82 287.35 442.886 287.461 442.921 287.584C442.956 287.706 442.959 287.836 442.93 287.96L442.32 293.03C442.32 293.4 442.38 293.65 442.55 293.75L445.1 295.23C445.3 295.34 445.6 295.23 445.87 294.9L449.05 290.84C449.117 290.729 449.21 290.636 449.322 290.572C449.434 290.507 449.561 290.472 449.69 290.47L452.87 290.86C453.37 290.92 453.96 290.01 453.87 289.31L453.26 284.95C453.232 284.627 453.301 284.303 453.46 284.02L456 279.18Z" fill="#FECA13"/>
<path opacity="0.15" d="M455.94 277.84C455.885 277.815 455.825 277.802 455.765 277.802C455.705 277.802 455.645 277.815 455.59 277.84L452 279.2C451.954 279.223 451.903 279.236 451.852 279.238C451.8 279.24 451.749 279.232 451.701 279.213C451.653 279.194 451.609 279.165 451.573 279.129C451.536 279.092 451.508 279.048 451.49 279L450.67 277.26L453.01 276.36C453.064 276.332 453.124 276.317 453.185 276.317C453.246 276.317 453.306 276.332 453.36 276.36L455.94 277.84Z" fill="white"/>
<path opacity="0.15" d="M447.11 281.54C447.016 281.856 446.832 282.137 446.58 282.35L443 285.09C442.842 285.218 442.712 285.378 442.62 285.56L440.07 284.09C440.161 283.905 440.291 283.741 440.45 283.61L444 280.87C444.251 280.663 444.433 280.384 444.52 280.07L447.11 281.54Z" fill="white"/>
<path opacity="0.1" d="M449.78 275.43C449.46 275.23 448.91 275.63 448.7 276.33L447.11 281.54L444.55 280.07L446.14 274.86C446.35 274.18 446.89 273.77 447.21 273.95C447.28 273.95 449.43 275.25 449.76 275.42L449.78 275.43Z" fill="black"/>
<path opacity="0.25" d="M445.22 288.73L442.69 287.28L440.12 285.42C439.82 285.21 439.86 284.61 440.12 284.12L442.67 285.59C442.41 286.08 442.37 286.69 442.67 286.9L445.22 288.73Z" fill="black"/>
<path opacity="0.15" d="M444.81 294.5C444.81 294.88 444.87 295.13 445.06 295.22L442.51 293.74C442.34 293.64 442.24 293.39 442.28 293.02L442.89 287.95C442.915 287.832 442.911 287.71 442.88 287.593C442.849 287.477 442.791 287.37 442.71 287.28L445.24 288.73C445.32 288.82 445.376 288.928 445.406 289.044C445.435 289.161 445.437 289.283 445.41 289.4L444.81 294.5Z" fill="black"/>
<path d="M449.93 275.62L451.52 279C451.539 279.048 451.569 279.092 451.606 279.129C451.643 279.166 451.688 279.194 451.736 279.213C451.785 279.232 451.837 279.241 451.89 279.238C451.942 279.236 451.993 279.223 452.04 279.2L455.59 277.84C456.15 277.62 456.38 278.41 455.97 279.18L453.4 284C453.241 284.283 453.171 284.607 453.2 284.93L453.81 289.29C453.9 289.99 453.31 290.9 452.81 290.84L449.63 290.45C449.501 290.452 449.374 290.487 449.262 290.552C449.15 290.616 449.056 290.709 448.99 290.82L445.81 294.88C445.31 295.52 444.72 295.29 444.81 294.49L445.42 289.42C445.449 289.296 445.446 289.166 445.411 289.044C445.376 288.921 445.31 288.81 445.22 288.72L442.65 286.86C442.24 286.57 442.47 285.51 443.03 285.08L446.59 282.34C446.834 282.124 447.011 281.843 447.1 281.53L448.69 276.32C449 275.51 449.68 275.08 449.93 275.62Z" fill="#FECA13"/>
<path opacity="0.5" d="M449.93 275.62L451.52 279C451.539 279.048 451.569 279.092 451.606 279.129C451.643 279.166 451.688 279.194 451.736 279.213C451.785 279.232 451.837 279.241 451.89 279.238C451.942 279.236 451.993 279.223 452.04 279.2L455.59 277.84C456.15 277.62 456.38 278.41 455.97 279.18L453.4 284C453.241 284.283 453.171 284.607 453.2 284.93L453.81 289.29C453.9 289.99 453.31 290.9 452.81 290.84L449.63 290.45C449.501 290.452 449.374 290.487 449.262 290.552C449.15 290.616 449.056 290.709 448.99 290.82L445.81 294.88C445.31 295.52 444.72 295.29 444.81 294.49L445.42 289.42C445.449 289.296 445.446 289.166 445.411 289.044C445.376 288.921 445.31 288.81 445.22 288.72L442.65 286.86C442.24 286.57 442.47 285.51 443.03 285.08L446.59 282.34C446.834 282.124 447.011 281.843 447.1 281.53L448.69 276.32C449 275.51 449.68 275.08 449.93 275.62Z" fill="white"/>
<path d="M363 83.9999C355.47 79.6399 345.12 80.2299 333.68 86.8299C310.68 100.13 291.99 132.7 291.99 159.59C291.99 173.12 296.73 182.59 304.36 187.02C306.13 188.02 313.05 192.02 313.05 192.02C312.724 195.064 311.671 197.985 309.979 200.536C308.288 203.088 306.007 205.195 303.33 206.68C302.9 206.93 303.17 207.36 303.56 207.58L314.13 213.68C314.272 213.768 314.434 213.82 314.6 213.83C325.01 213.83 337.06 206.83 340.42 192.29C341.68 191.69 342.95 191.04 344.24 190.29C367.24 177 385.93 144.42 385.93 117.53C385.93 104 381.2 94.5299 373.57 90.0799L363 83.9999Z" fill="#65B48F"/>
<path d="M344.24 92.9199C321.24 106.21 302.55 138.78 302.55 165.67C302.55 183.92 311.14 194.84 323.86 195.84C323.38 201.64 321.69 208.16 313.86 212.77C313.24 213.13 314.05 213.83 314.57 213.83C324.98 213.83 337.03 206.83 340.39 192.29C341.65 191.69 342.92 191.04 344.21 190.29C367.21 177 385.9 144.42 385.9 117.54C385.9 90.6599 367.26 79.6199 344.24 92.9199Z" fill="#009460"/>
<path d="M313.89 212.77C313.51 213 313.68 213.36 314 213.6L303.56 207.6C303.17 207.36 302.9 206.95 303.34 206.69C306.02 205.202 308.302 203.09 309.992 200.533C311.682 197.976 312.731 195.049 313.05 192L314.2 192.68L315.26 193.3C317.911 194.752 320.845 195.612 323.86 195.82C323.39 201.64 321.69 208.16 313.89 212.77Z" fill="#007C49"/>
<path d="M339.84 169.88C338.73 169.09 338.17 167.67 338.17 165.62C338.195 163.484 338.759 161.389 339.81 159.53C340.757 157.658 342.208 156.089 344 155C345.7 154.02 347.097 153.9 348.19 154.64C349.28 155.39 349.83 156.79 349.83 158.84C349.799 161.01 349.225 163.138 348.16 165.03C347.236 166.912 345.792 168.491 344 169.58C342.347 170.567 340.96 170.667 339.84 169.88ZM338.35 115.52L349.66 109L347.77 147.12L340.24 151.47L338.35 115.52Z" fill="#FAFAFA"/>
<path opacity="0.2" d="M349.8 186.63C362.08 177.63 372.67 163.37 379.15 148.05C366.87 157.06 356.28 171.32 349.8 186.63Z" fill="black"/>
<path d="M428.32 238.74C424.06 238.74 420.89 235.81 418.9 232.06C431.66 216.37 440.29 195.47 440.29 177.19C440.29 163.64 435.54 154.12 427.89 149.71C426.12 148.71 419.1 144.65 417.34 143.63C409.81 139.29 399.47 139.89 388.04 146.48C365.04 159.78 346.35 192.35 346.35 219.24C346.35 232.77 351.08 242.24 358.71 246.69C360.49 247.69 367.5 251.75 369.23 252.76C376.77 257.15 387.14 256.57 398.6 249.95C401.669 248.164 404.582 246.123 407.31 243.85C415.05 249.98 424.49 243.3 428.23 240.1C428.73 239.68 428.79 238.74 428.32 238.74Z" fill="#CF2029"/>
<path opacity="0.3" d="M428.32 238.74C424.06 238.74 420.89 235.81 418.9 232.06C431.66 216.37 440.29 195.47 440.29 177.19C440.29 163.64 435.54 154.12 427.89 149.71C426.12 148.71 419.1 144.65 417.34 143.63C409.81 139.29 399.47 139.89 388.04 146.48C365.04 159.78 346.35 192.35 346.35 219.24C346.35 232.77 351.08 242.24 358.71 246.69C360.49 247.69 367.5 251.75 369.23 252.76C376.77 257.15 387.14 256.57 398.6 249.95C401.669 248.164 404.582 246.123 407.31 243.85C415.05 249.98 424.49 243.3 428.23 240.1C428.73 239.68 428.79 238.74 428.32 238.74Z" fill="#DBDBDB"/>
<path d="M380.15 254.94C366.21 254.94 357.56 243.59 357.56 225.33C357.56 198.69 376.12 166.33 398.92 153.14C405.3 149.46 411.4 147.59 417.05 147.59C430.98 147.59 439.64 158.93 439.64 177.19C439.64 194.67 431.5 215.54 418.4 231.65L418.13 231.99L418.33 232.37C420.68 236.79 424.09 239.28 427.95 239.37C427.923 239.454 427.875 239.53 427.81 239.59C425.15 241.86 419.87 245.68 414.4 245.68C411.964 245.691 409.6 244.857 407.71 243.32L407.3 243L406.89 243.33C404.188 245.565 401.304 247.572 398.27 249.33C391.9 253.07 385.8 254.94 380.15 254.94Z" fill="#CF2029"/>
<path d="M417.05 146.94V148.24C430.58 148.24 438.99 159.34 438.99 177.19C438.99 194.53 430.91 215.24 417.9 231.24L417.35 231.91L417.76 232.67C419.92 236.75 422.96 239.26 426.45 239.89C423.68 242.1 419.09 245.05 414.4 245.05C412.11 245.061 409.886 244.276 408.11 242.83L407.29 242.18L406.48 242.85C403.807 245.081 400.954 247.088 397.95 248.85C391.67 252.47 385.68 254.31 380.15 254.31C366.62 254.31 358.21 243.21 358.21 225.31C358.21 198.88 376.62 166.75 399.21 153.68C405.49 150.06 411.48 148.22 417.01 148.22V146.92M417.01 146.92C411.45 146.92 405.19 148.73 398.56 152.56C375.56 165.85 356.87 198.42 356.87 225.31C356.87 244.46 366.34 255.57 380.11 255.57C385.67 255.57 391.93 253.76 398.56 249.93C401.629 248.144 404.542 246.103 407.27 243.83C409.27 245.463 411.778 246.347 414.36 246.33C420.08 246.33 425.55 242.33 428.19 240.08C428.69 239.66 428.75 238.72 428.28 238.72H428.18C423.98 238.72 420.84 235.72 418.86 232.04C431.62 216.35 440.25 195.45 440.25 177.17C440.25 158.02 430.78 146.92 417.01 146.92Z" fill="#CF2029"/>
<path d="M396.48 205.84C397.693 202.929 399.086 200.097 400.65 197.36C401.727 195.481 402.709 193.548 403.59 191.57C404.214 190.216 404.554 188.75 404.59 187.26C404.59 185.26 403.99 184.02 402.79 183.55C401.59 183.08 400.01 183.42 398.02 184.55C396.054 185.711 394.332 187.243 392.95 189.06C391.409 191.072 390.15 193.286 389.21 195.64L381.86 194.13C383.504 189.787 385.834 185.735 388.76 182.13C391.62 178.588 395.113 175.608 399.06 173.34C403.727 170.673 407.463 169.84 410.27 170.84C413.077 171.84 414.483 174.7 414.49 179.42C414.503 181.55 414.227 183.673 413.67 185.73C413.175 187.592 412.505 189.403 411.67 191.14C410.88 192.76 409.85 194.69 408.6 196.92C407.39 198.991 406.295 201.128 405.32 203.32C404.649 204.901 404.309 206.602 404.32 208.32L395.15 213.62C395.096 210.966 395.547 208.325 396.48 205.84ZM395.48 231.57C394.37 230.78 393.81 229.36 393.81 227.3C393.834 225.164 394.398 223.069 395.45 221.21C396.404 219.354 397.855 217.8 399.64 216.72C401.35 215.72 402.74 215.62 403.84 216.37C404.94 217.12 405.48 218.51 405.48 220.57C405.446 222.74 404.872 224.867 403.81 226.76C402.875 228.638 401.43 230.215 399.64 231.31C398 232.27 396.63 232.35 395.51 231.57H395.48Z" fill="white"/>
<path d="M185.24 160.29L139.24 186.92L157.51 218C157.862 218.838 158.476 219.54 159.26 220C161.44 221.23 174.35 228.71 175.06 229.12C175.613 229.44 176.232 229.63 176.87 229.676C177.508 229.722 178.147 229.623 178.741 229.386C179.335 229.149 179.867 228.781 180.298 228.309C180.729 227.837 181.048 227.273 181.23 226.66L201.07 169.48L185.24 160.29Z" fill="#009460"/>
<path opacity="0.2" d="M185.24 160.29L139.24 186.92L157.51 218C157.862 218.838 158.476 219.54 159.26 220C161.44 221.23 174.35 228.71 175.06 229.12C175.613 229.44 176.232 229.63 176.87 229.676C177.508 229.722 178.147 229.623 178.741 229.386C179.335 229.149 179.867 228.781 180.298 228.309C180.729 227.837 181.048 227.273 181.23 226.66L201.07 169.48L185.24 160.29Z" fill="black"/>
<path d="M155.07 196.07L173.34 227.13C173.689 227.919 174.272 228.581 175.01 229.028C175.748 229.475 176.606 229.684 177.467 229.627C178.327 229.57 179.15 229.251 179.823 228.711C180.496 228.171 180.987 227.438 181.23 226.61L201.07 169.43L155.07 196.07Z" fill="#009460"/>
<path d="M236.56 1L63.0898 101.12C61.9269 101.874 60.9584 102.892 60.2633 104.091C59.5682 105.29 59.1661 106.636 59.0898 108.02V228.41C59.1635 229.789 59.5648 231.131 60.2604 232.324C60.9561 233.517 61.926 234.527 63.0898 235.27L77.3598 243.27C78.6015 243.892 79.9711 244.216 81.3598 244.216C82.7486 244.216 84.1182 243.892 85.3598 243.27L258.84 143.08C260.001 142.324 260.968 141.306 261.663 140.107C262.358 138.909 262.761 137.563 262.84 136.18V15.79C262.765 14.4112 262.364 13.0699 261.668 11.877C260.973 10.6841 260.003 9.67396 258.84 8.93L244.58 0.930003C243.33 0.314758 241.954 0.000635466 240.562 0.012791C239.169 0.0249465 237.798 0.363042 236.56 1Z" fill="#009460"/>
<path opacity="0.3" d="M262.76 15.0601C262.45 13.0601 260.82 12.3401 258.83 13.4801L85.3696 113.64C84.1876 114.378 83.219 115.412 82.5596 116.64L60.3496 104C61.0104 102.841 61.9528 101.868 63.0896 101.17L236.57 1.00007C237.811 0.375722 239.18 0.0505371 240.57 0.0505371C241.959 0.0505371 243.329 0.375722 244.57 1.00007L258.83 9.00007C259.879 9.67176 260.772 10.5599 261.45 11.6051C262.128 12.6503 262.574 13.8282 262.76 15.0601Z" fill="white"/>
<path d="M81.3799 241.39V121C81.4561 119.617 81.8582 118.273 82.5534 117.075C83.2486 115.878 84.2171 114.862 85.3799 114.11L258.84 13.9999C261.03 12.7299 262.84 13.7599 262.84 16.2999V136.64C262.761 138.023 262.358 139.369 261.663 140.567C260.968 141.766 260.001 142.784 258.84 143.54L85.3599 243.69C83.1599 245 81.3799 243.93 81.3799 241.39Z" fill="#009460"/>
<path opacity="0.2" d="M85.3596 243.23C84.114 243.839 82.746 244.155 81.3596 244.155C79.9733 244.155 78.6052 243.839 77.3596 243.23L63.0996 235.23C61.9367 234.49 60.9671 233.484 60.2714 232.294C59.5757 231.105 59.174 229.766 59.0996 228.39V108C59.1706 106.579 59.6081 105.201 60.3696 104L82.5596 116.67C81.8282 117.846 81.4211 119.195 81.3796 120.58V240.92C81.3796 243.25 82.9996 244.59 85.3596 243.23Z" fill="black"/>
<path d="M130.05 145L128.32 144C127.657 143.621 126.908 143.422 126.145 143.422C125.382 143.422 124.632 143.621 123.97 144L113.4 150.1V135.65L133 124.36C133.917 123.819 134.677 123.046 135.203 122.12C135.73 121.194 136.004 120.145 136 119.08V111C136.002 109.936 135.727 108.89 135.201 107.966C134.675 107.041 133.916 106.271 133 105.73C132.074 105.195 131.024 104.913 129.955 104.913C128.885 104.913 127.835 105.195 126.91 105.73L99.7396 121.37C98.1328 122.299 96.7988 123.634 95.872 125.242C94.9451 126.85 94.458 128.674 94.4596 130.53V205.72C94.4537 206.784 94.7278 207.832 95.2543 208.757C95.7809 209.681 96.5414 210.452 97.4596 210.99C98.385 211.526 99.4353 211.808 100.505 211.808C101.574 211.808 102.624 211.526 103.55 210.99L110.32 207.09C111.237 206.549 111.997 205.776 112.523 204.85C113.05 203.924 113.324 202.875 113.32 201.81V172.33L129.97 162.71C130.632 162.329 131.183 161.779 131.565 161.118C131.948 160.456 132.15 159.705 132.15 158.94V148.77C132.16 148.013 131.971 147.266 131.603 146.605C131.234 145.943 130.699 145.39 130.05 145Z" fill="#E0E0E0"/>
<path opacity="0.1" d="M104.17 210.65L103.59 210.99C102.664 211.522 101.614 211.802 100.546 211.802C99.4774 211.801 98.4281 211.52 97.5027 210.986C96.5773 210.452 95.8082 209.685 95.2724 208.761C94.7367 207.837 94.4529 206.788 94.4497 205.72V130.53C94.4523 128.784 94.8887 127.066 95.7197 125.53L101.81 129.04C100.975 130.574 100.539 132.293 100.54 134.04V208.53C100.541 208.955 100.654 209.371 100.866 209.739C101.078 210.107 101.383 210.413 101.749 210.627C102.116 210.841 102.532 210.956 102.956 210.96C103.381 210.964 103.799 210.857 104.17 210.65Z" fill="black"/>
<path d="M113.4 135.65V157.13L130.03 147.53C130.254 147.402 130.507 147.335 130.765 147.336C131.023 147.337 131.276 147.406 131.499 147.535C131.722 147.665 131.907 147.851 132.035 148.075C132.163 148.299 132.231 148.552 132.23 148.81V159C132.231 159.758 132.031 160.504 131.652 161.16C131.273 161.817 130.727 162.362 130.07 162.74L113.4 172.37V201.86C113.404 202.923 113.129 203.968 112.603 204.891C112.076 205.814 111.317 206.583 110.4 207.12L104.24 210.68C103.87 210.895 103.45 211.008 103.022 211.009C102.594 211.009 102.174 210.896 101.804 210.682C101.433 210.468 101.126 210.16 100.913 209.789C100.7 209.418 100.588 208.998 100.59 208.57V134C100.59 132.146 101.078 130.324 102.005 128.718C102.932 127.112 104.265 125.778 105.87 124.85L132.75 109.33C133.085 109.137 133.464 109.035 133.851 109.035C134.238 109.036 134.617 109.138 134.952 109.331C135.287 109.525 135.564 109.803 135.757 110.138C135.95 110.474 136.051 110.854 136.05 111.24V119.07C136.053 120.13 135.777 121.172 135.25 122.091C134.724 123.011 133.965 123.776 133.05 124.31L113.4 135.65Z" fill="#FAFAFA"/>
<path d="M171.45 90.2301C171.143 89.1907 170.606 88.2339 169.878 87.431C169.15 86.6282 168.25 86 167.246 85.5934C166.241 85.1868 165.158 85.0122 164.076 85.0826C162.995 85.153 161.943 85.4667 161 86.0001L154.27 89.8901C153.403 90.3897 152.65 91.065 152.059 91.8727C151.469 92.6803 151.053 93.6025 150.84 94.5801L130.73 186C130.561 186.778 130.644 187.589 130.965 188.317C131.287 189.044 131.831 189.651 132.52 190.05L134.36 191.11C134.93 191.439 135.577 191.613 136.235 191.613C136.893 191.613 137.54 191.439 138.11 191.11L146.22 186.43C147.348 185.739 148.268 184.754 148.88 183.58C149.564 182.395 150.066 181.114 150.37 179.78L153.63 163.12L170 153.6L171.7 160.37C171.94 161.253 172.491 162.02 173.25 162.53C173.93 162.93 178.66 165.64 179.34 166.05C179.779 166.238 180.261 166.304 180.734 166.241C181.208 166.177 181.656 165.987 182.03 165.69L192 160L171.45 90.2301ZM158.12 140.06L161.64 121.94C161.713 121.627 161.783 121.293 161.85 120.94L165.57 135.71L158.12 140.06Z" fill="#E0E0E0"/>
<path opacity="0.1" d="M179.29 166C178.4 165.47 173.94 162.92 173.29 162.53C172.53 162.02 171.98 161.253 171.74 160.37L170 153.6L174.54 150.98L177.79 163.88C178.04 164.734 178.568 165.48 179.29 166Z" fill="black"/>
<path opacity="0.1" d="M171.66 139.27L165.57 135.75L161.85 121C161.85 121 161.85 121 161.85 120.94C162.17 119.5 162.49 117.86 162.85 116.04C163.28 113.77 163.68 111.35 164.06 108.76C164.493 110.84 164.923 112.757 165.35 114.51C165.78 116.26 166.18 117.76 166.56 119.02L171.66 139.27Z" fill="black"/>
<path opacity="0.1" d="M136.93 189C136.876 189.24 136.885 189.49 136.956 189.726C137.027 189.961 137.159 190.174 137.337 190.343C137.516 190.513 137.735 190.633 137.974 190.692C138.213 190.751 138.463 190.747 138.7 190.68V190.76L138.13 191.08C137.56 191.409 136.913 191.583 136.255 191.583C135.597 191.583 134.95 191.409 134.38 191.08L132.52 190C131.831 189.601 131.287 188.994 130.965 188.267C130.644 187.539 130.561 186.728 130.73 185.95L150.79 94.6102C150.974 93.7652 151.313 92.9617 151.79 92.2402L157.88 95.7602C157.397 96.475 157.058 97.2764 156.88 98.1202L136.93 189Z" fill="black"/>
<path d="M192 160L182.09 165.72C180.98 166.36 180.09 166.48 179.41 166.08C178.652 165.568 178.102 164.802 177.86 163.92L174.58 151L153.58 163.09L150.33 179.75C150.018 181.083 149.513 182.364 148.83 183.55C148.224 184.728 147.303 185.714 146.17 186.4L139 190.54C138.76 190.681 138.484 190.748 138.207 190.735C137.929 190.721 137.661 190.627 137.436 190.463C137.211 190.3 137.039 190.075 136.94 189.815C136.841 189.555 136.82 189.272 136.88 189L156.83 98.1401C157.045 97.1643 157.46 96.244 158.051 95.4382C158.642 94.6323 159.394 93.9586 160.26 93.4601L166.73 89.7201C167.187 89.4542 167.697 89.295 168.224 89.2541C168.751 89.2133 169.28 89.292 169.773 89.4842C170.265 89.6765 170.707 89.9774 171.067 90.3646C171.427 90.7517 171.694 91.2151 171.85 91.7201L192 160ZM171.69 139.3L166.56 119C166.18 117.75 165.78 116.24 165.35 114.49C164.92 112.74 164.49 110.82 164.06 108.74C163.69 111.33 163.28 113.74 162.86 116.02C162.44 118.3 162.02 120.26 161.64 121.95L156.58 147.95L171.69 139.3Z" fill="#FAFAFA"/>
<path d="M239.369 125C241.116 121.998 242.65 118.877 243.959 115.66C245.312 112.344 246.448 108.944 247.359 105.48C248.288 101.968 248.996 98.4008 249.479 94.8001C249.97 91.1774 250.217 87.5259 250.219 83.8701C250.316 78.5077 249.622 73.1603 248.159 68.0001C247.119 64.1119 245.125 60.5444 242.359 57.6201C241.497 56.773 240.529 56.0403 239.479 55.4401L233.479 51.9701C231.58 50.869 229.443 50.2413 227.249 50.1401C223.729 49.9401 219.829 51.0768 215.549 53.5501C211.07 56.1804 207.1 59.5948 203.829 63.6301C200.213 68.017 197.169 72.8457 194.769 78.0001C189.615 89.092 186.927 101.169 186.889 113.4C186.799 118.795 187.51 124.174 188.999 129.36C190.037 133.26 192.038 136.836 194.819 139.76C195.687 140.62 196.666 141.36 197.729 141.96C198.729 142.52 202.679 144.82 203.659 145.39C205.583 146.503 207.749 147.131 209.969 147.22C213.489 147.387 217.396 146.237 221.689 143.77C223.516 142.716 225.252 141.511 226.879 140.17L229.359 143.02C229.698 143.367 230.081 143.666 230.499 143.91C231.199 144.32 236.179 147.18 236.559 147.41C237.227 147.821 238.008 148.01 238.789 147.95C240.238 147.777 241.628 147.282 242.859 146.5L253.369 140.44L239.369 125ZM229.999 99.9301C229.363 103.458 228.34 106.906 226.949 110.21C225.731 113.139 224.097 115.876 222.099 118.34C220.275 120.588 218.059 122.489 215.559 123.95C213.728 125.137 211.619 125.826 209.439 125.95C208.343 124.174 207.562 122.222 207.129 120.18C206.36 116.647 206.005 113.036 206.069 109.42C206.051 105.416 206.406 101.418 207.129 97.4801C207.75 93.954 208.756 90.5067 210.129 87.2001C211.354 84.2489 212.994 81.4878 214.999 79.0001C216.836 76.7218 219.073 74.797 221.599 73.3201C223.399 72.1697 225.467 71.508 227.599 71.4001C228.729 73.1906 229.541 75.163 229.999 77.2301C230.762 80.7478 231.117 84.3413 231.059 87.9401C231.075 91.9608 230.72 95.9744 229.999 99.9301Z" fill="#E0E0E0"/>
<path opacity="0.1" d="M203.359 145.24C202.089 144.51 198.599 142.48 197.679 141.96C196.616 141.36 195.637 140.62 194.769 139.76C191.988 136.836 189.987 133.26 188.949 129.36C187.48 124.181 186.786 118.813 186.889 113.43C186.906 107.27 187.613 101.132 188.999 95.1302C190.219 89.6626 191.988 84.3323 194.279 79.2202L200.369 82.7402C195.548 93.5205 193.037 105.191 192.999 117C192.881 122.36 193.554 127.708 194.999 132.87C196.035 136.774 198.037 140.354 200.819 143.28C201.59 144.026 202.442 144.684 203.359 145.24Z" fill="black"/>
<path opacity="0.1" d="M233 74.0002C232.412 73.2629 231.677 72.6556 230.842 72.2167C230.008 71.7778 229.091 71.5168 228.15 71.4502C227.98 71.4502 227.8 71.4502 227.63 71.4502C228.745 73.2269 229.547 75.182 230 77.2302C230.762 80.7478 231.118 84.3414 231.06 87.9402C231.076 91.9643 230.721 95.9812 230 99.9402C229.363 103.468 228.34 106.916 226.95 110.22C225.731 113.149 224.098 115.887 222.1 118.35C220.275 120.598 218.06 122.499 215.56 123.96C213.728 125.147 211.619 125.836 209.44 125.96C209.658 126.311 209.902 126.646 210.17 126.96C210.757 127.703 211.496 128.312 212.338 128.745C213.179 129.178 214.104 129.425 215.05 129.47C217.397 129.458 219.691 128.763 221.65 127.47C224.15 126.009 226.365 124.109 228.19 121.86C230.184 119.394 231.816 116.656 233.04 113.73C234.432 110.423 235.454 106.972 236.09 103.44C236.811 99.4813 237.166 95.4643 237.15 91.4402C237.208 87.8414 236.852 84.2478 236.09 80.7302C235.593 78.2786 234.535 75.9752 233 74.0002Z" fill="black"/>
<path opacity="0.1" d="M228.56 138.67C227.99 139.19 227.42 139.67 226.83 140.17L229.31 143.02C229.648 143.367 230.031 143.666 230.45 143.91C231.13 144.31 235.82 147 236.45 147.38C236.062 147.142 235.706 146.857 235.39 146.53L228.56 138.67Z" fill="black"/>
<path d="M253.32 140.44L242.81 146.51C241.579 147.283 240.193 147.775 238.75 147.95C238.12 147.981 237.492 147.87 236.912 147.624C236.332 147.378 235.815 147.004 235.4 146.53L228.56 138.67C226.445 140.616 224.125 142.327 221.64 143.77C217.346 146.243 213.44 147.393 209.92 147.22C206.511 147.095 203.276 145.688 200.86 143.28C198.066 140.355 196.051 136.776 195 132.87C193.56 127.707 192.886 122.359 193 117C193.037 104.769 195.726 92.692 200.88 81.6001C203.279 76.4457 206.323 71.617 209.94 67.2301C213.203 63.181 217.165 59.7499 221.64 57.1001C225.92 54.6201 229.82 53.4834 233.34 53.6901C236.734 53.8522 239.945 55.2792 242.34 57.6901C245.106 60.5899 247.106 64.1333 248.16 68.0001C249.627 73.1593 250.321 78.5074 250.22 83.8701C250.221 87.5257 249.977 91.1772 249.49 94.8001C249.001 98.3999 248.293 101.967 247.37 105.48C246.469 108.953 245.343 112.363 244 115.69C242.694 118.909 241.16 122.03 239.41 125.03L253.32 140.44ZM206.06 109.44C205.994 113.056 206.35 116.667 207.12 120.2C207.589 122.659 208.615 124.979 210.12 126.98C210.71 127.719 211.45 128.324 212.291 128.757C213.132 129.189 214.055 129.439 215 129.49C217.347 129.477 219.64 128.782 221.6 127.49C224.1 126.029 226.315 124.128 228.14 121.88C230.136 119.414 231.773 116.677 233 113.75C234.374 110.441 235.38 106.99 236 103.46C236.726 99.5018 237.081 95.4844 237.06 91.4601C237.123 87.8611 236.767 84.267 236 80.7501C235.53 78.3 234.504 75.9905 233 74.0001C232.41 73.2625 231.673 72.6552 230.837 72.2163C230 71.7774 229.082 71.5165 228.14 71.4501C225.817 71.4256 223.54 72.0941 221.6 73.3701C219.075 74.8283 216.838 76.7364 215 79.0001C212.997 81.4804 211.354 84.2308 210.12 87.1701C208.751 90.4783 207.745 93.9251 207.12 97.4501C206.395 101.392 206.04 105.392 206.06 109.4V109.44Z" fill="#FAFAFA"/>
</svg>
