<svg width="744" height="106" viewBox="0 0 744 106" fill="none" xmlns="http://www.w3.org/2000/svg">
<rect width="175.234" height="82.8381" rx="7.9652" transform="matrix(0.995989 0.0894806 0.0894806 -0.995989 0.774902 86.2001)" fill="#CE2029"/>
<path d="M32.6524 67.0506L36.1547 28.0666L61.5332 30.3466L60.8497 37.9546L44.9673 36.5277L44.2289 44.7466L56.1129 45.8143L55.4494 53.2001L43.5654 52.1324L42.1485 67.9037L32.6524 67.0506ZM62.5307 54.0602C63.4088 44.2865 70.0106 38.7217 77.6186 39.4052C82.2278 39.8193 85.3147 42.2239 86.7362 45.0947L87.1303 40.7076L96.6264 41.5607L93.8425 72.548L84.3464 71.6948L84.7406 67.3078C82.7746 69.8742 79.3086 71.6901 74.6993 71.276C67.1469 70.5975 61.6526 63.834 62.5307 54.0602ZM85.7384 56.2012C86.1824 51.2588 83.2615 48.2533 79.6519 47.929C76.0978 47.6097 72.6374 49.9859 72.1934 54.9283C71.7493 59.8707 74.7208 62.9367 78.2749 63.2561C81.8845 63.5803 85.2943 61.1436 85.7384 56.2012ZM126.677 66.429C126.193 71.8156 121.053 75.4405 113.279 74.742C105.004 73.9986 99.865 68.8905 99.9595 62.853L109.345 63.6962C109.372 65.8819 111.186 67.5004 113.796 67.7349C116.24 67.9544 117.617 66.9585 117.741 65.5702C118.19 60.5722 100.984 62.6652 102.007 51.281C102.481 46.0053 107.368 42.0779 115.476 42.8063C123.473 43.5247 127.516 48.3665 127.578 54.53L118.804 53.7417C118.716 51.6065 117.23 50.0735 114.565 49.834C112.343 49.6345 111.042 50.4132 110.907 51.9126C110.463 56.855 127.548 54.8632 126.677 66.429ZM134.146 65.3086L135.253 52.9803L131.477 52.641L132.186 44.7554L135.962 45.0946L136.64 37.5422L146.136 38.3953L145.458 45.9478L151.678 46.5066L150.969 54.3922L144.749 53.8334L143.632 66.2728C143.467 68.1053 144.175 68.9527 146.285 69.1422L149.673 69.4466L148.949 77.4988L144.118 77.0648C137.676 76.486 133.422 73.3608 134.146 65.3086Z" fill="white"/>
<rect width="247.718" height="82.8381" rx="7.9652" transform="matrix(0.995753 -0.0920635 -0.0920635 -0.995753 201.626 105.433)" fill="#FECA12"/>
<path d="M255.344 66.7453C255.949 73.2966 251.345 79.2097 242.239 80.0516C233.856 80.8267 226.92 77.2684 225.913 69.4103L236.018 68.4761C236.572 71.4485 238.594 72.7174 241.259 72.471C244.035 72.2144 245.683 70.6621 245.472 68.3858C244.805 61.1683 225.677 66.8564 224.51 53.0217C223.827 45.6376 229.499 40.9697 237.66 40.2151C246.155 39.4297 252.264 43.1205 253.34 50.5242L243.069 51.4738C242.671 48.9908 240.756 47.6561 238.197 47.8367C235.916 47.9916 234.302 49.3167 234.528 51.7595C235.154 58.5329 254.137 53.6981 255.344 66.7453ZM273.715 52.728C270.606 53.0155 268.393 55.1239 268.156 58.6174L280.037 57.5189C279.724 54.1322 276.879 52.4354 273.715 52.728ZM289.791 64.9042C288.851 71.0945 283.786 76.2663 276.069 76.9798C266.964 77.8216 259.848 72.3202 258.939 62.4932C258.031 52.6662 263.906 45.9636 273.123 45.1115C282.172 44.2748 289.111 49.6807 289.984 59.119C290.066 60.0073 290.098 60.9563 290.074 61.9104L268.588 63.8969C269.296 67.919 271.969 69.5757 275.022 69.2934C277.687 69.047 279.063 67.5759 279.686 65.8385L289.791 64.9042ZM293.151 59.3301C292.248 49.5587 298.118 42.8006 307.223 41.9587C314.996 41.2401 320.888 45.0069 323.181 52.2422L313.076 53.1764C312.099 51.083 310.416 49.8387 307.806 50.08C304.42 50.3931 302.334 53.2736 302.811 58.437C303.289 63.6003 305.867 66.0496 309.254 65.7365C311.863 65.4953 313.244 64.0797 313.866 61.7264L323.971 60.7922C323.023 68.1031 317.942 73.1084 310.17 73.827C301.065 74.6688 294.06 69.1571 293.151 59.3301ZM357.813 37.7293L360.678 68.7093L351.184 69.587L350.794 65.3676C349.152 68.207 345.996 70.4027 341.832 70.7877C334.67 71.4498 329.383 66.9552 328.618 58.6827L326.944 40.5833L336.383 39.7107L337.938 56.5332C338.328 60.7527 340.931 62.8638 344.484 62.5352C348.149 62.1964 350.265 59.649 349.875 55.4295L348.319 38.6071L357.813 37.7293ZM375.661 52.8214L376.991 67.201L367.497 68.0788L364.633 37.0988L374.126 36.2211L374.604 41.3844C376.466 37.9085 379.648 35.3746 383.812 34.9897L384.741 45.0387L382.131 45.28C377.634 45.6958 375.169 47.4916 375.661 52.8214ZM402.7 40.8025C399.591 41.09 397.378 43.1984 397.141 46.6919L409.023 45.5934C408.71 42.2067 405.865 40.5099 402.7 40.8025ZM418.777 52.9787C417.837 59.169 412.772 64.3408 405.055 65.0543C395.949 65.8961 388.833 60.3947 387.925 50.5677C387.016 40.7408 392.892 34.0381 402.108 33.186C411.158 32.3493 418.097 37.7552 418.97 47.1935C419.052 48.0818 419.083 49.0308 419.06 49.9849L397.574 51.9714C398.281 55.9935 400.954 57.6502 404.008 57.3679C406.673 57.1215 408.049 55.6504 408.672 53.913L418.777 52.9787Z" fill="white"/>
<rect width="281.172" height="82.8381" rx="7.9652" transform="matrix(0.998986 0.0450174 0.0450174 -0.998986 459.384 87.8356)" fill="#009460"/>
<path d="M509.274 68.1363L501.806 53.0094L499.523 52.9065L498.858 67.667L489.333 67.2378L491.095 28.1364L507.081 28.8568C510.163 28.9957 512.757 29.6521 514.862 30.826C517.004 32.0016 518.571 33.5606 519.563 35.5029C520.556 37.4081 521 39.5118 520.897 41.8141C520.78 44.4134 519.932 46.7008 518.355 48.6762C516.815 50.6532 514.596 52.0044 511.698 52.7296L520.024 68.6208L509.274 68.1363ZM499.826 46.1668L505.731 46.4329C507.476 46.5115 508.795 46.1431 509.687 45.3275C510.617 44.5136 511.117 43.3268 511.187 41.7672C511.254 40.2819 510.861 39.0921 510.009 38.1979C509.193 37.3053 507.913 36.8197 506.167 36.7411L500.263 36.475L499.826 46.1668ZM555.689 54.1538C555.649 55.045 555.552 55.9709 555.397 56.9313L533.841 55.9599C533.903 57.8976 534.448 59.4105 535.478 60.4988C536.547 61.5516 537.88 62.1139 539.477 62.1859C541.853 62.293 543.551 61.3648 544.569 59.4015L554.707 59.8583C554.095 61.8772 553.065 63.6726 551.618 65.2446C550.207 66.8182 548.46 68.0232 546.376 68.8595C544.292 69.6958 541.987 70.057 539.462 69.9432C536.417 69.806 533.736 69.034 531.418 67.6273C529.1 66.2205 527.327 64.2802 526.099 61.8063C524.871 59.3324 524.329 56.4801 524.475 53.2495C524.62 50.0189 525.397 47.2261 526.806 44.871C528.251 42.5176 530.192 40.7446 532.627 39.552C535.062 38.3594 537.821 37.8326 540.903 37.9715C543.91 38.107 546.556 38.8588 548.838 40.2267C551.121 41.5947 552.859 43.4776 554.053 45.8756C555.285 48.2752 555.83 51.0346 555.689 54.1538ZM546.055 51.2081C546.129 49.5742 545.63 48.2495 544.56 47.2338C543.489 46.2181 542.118 45.6727 540.447 45.5974C538.851 45.5254 537.474 45.9285 536.319 46.8066C535.2 47.6864 534.472 48.9745 534.135 50.671L546.055 51.2081ZM571.373 29.6331L569.516 70.8511L559.991 70.4218L561.849 29.2039L571.373 29.6331ZM582.755 37.0668C581.084 36.9915 579.732 36.4469 578.698 35.4329C577.704 34.3834 577.239 33.1346 577.304 31.6864C577.371 30.2011 577.946 28.9991 579.03 28.0805C580.152 27.1264 581.548 26.687 583.219 26.7623C584.853 26.836 586.167 27.3975 587.162 28.447C588.195 29.461 588.678 30.7106 588.611 32.196C588.546 33.6441 587.952 34.8453 586.83 35.7994C585.747 36.718 584.389 37.1405 582.755 37.0668ZM587.344 40.5108L585.943 71.5913L576.418 71.1621L577.819 40.0816L587.344 40.5108ZM591.655 56.221C591.798 53.0276 592.519 50.2508 593.816 47.8907C595.15 45.5322 596.886 43.75 599.024 42.5441C601.162 41.3381 603.512 40.7929 606.075 40.9083C608.265 41.0071 610.158 41.5388 611.751 42.5037C613.382 43.4702 614.611 44.6976 615.437 46.186L615.635 41.7857L625.16 42.2149L623.759 73.2954L614.234 72.8662L614.433 68.4659C613.439 69.8723 612.087 70.9834 610.375 71.7993C608.701 72.6169 606.769 72.9763 604.578 72.8776C602.053 72.7638 599.78 72.0102 597.759 70.6168C595.74 69.1863 594.172 67.2366 593.055 64.7677C591.978 62.2634 591.511 59.4145 591.655 56.221ZM614.935 57.3259C615.042 54.9494 614.458 53.0441 613.183 51.6099C611.945 50.1774 610.379 49.4185 608.486 49.3331C606.592 49.2478 604.946 49.862 603.547 51.1756C602.187 52.4539 601.453 54.2813 601.346 56.6578C601.239 59.0343 601.804 60.9574 603.04 62.427C604.315 63.8612 605.899 64.621 607.793 64.7063C609.687 64.7916 611.314 64.1766 612.676 62.8613C614.075 61.5476 614.827 59.7025 614.935 57.3259ZM641.377 47.3549C642.333 45.9469 643.667 44.8349 645.378 44.019C647.089 43.2031 649.022 42.8437 651.175 42.9407C653.738 43.0562 656.029 43.8106 658.05 45.204C660.071 46.5973 661.621 48.5276 662.701 50.9948C663.817 53.4637 664.304 56.2949 664.16 59.4884C664.016 62.6818 663.276 65.4763 661.94 67.8719C660.643 70.232 658.925 72.0336 656.785 73.2767C654.647 74.4827 652.297 75.0279 649.735 74.9125C647.544 74.8137 645.651 74.3005 644.055 73.3728C642.462 72.408 641.233 71.1806 640.37 69.6905L640.174 74.0351L630.65 73.6059L632.507 32.388L642.032 32.8172L641.377 47.3549ZM654.468 59.0516C654.575 56.6751 653.99 54.7883 652.714 53.3913C651.476 51.9588 649.892 51.199 647.961 51.112C646.067 51.0267 644.421 51.6408 643.022 52.9545C641.66 54.2699 640.926 56.1158 640.819 58.4924C640.712 60.8689 641.277 62.7734 642.515 64.2059C643.79 65.6401 645.374 66.3998 647.268 66.4852C649.162 66.5705 650.808 65.9563 652.207 64.6426C653.607 63.2918 654.361 61.4281 654.468 59.0516ZM679.836 34.5208L677.978 75.7387L668.454 75.3095L670.311 34.0916L679.836 34.5208ZM714.902 61.3284C714.862 62.2196 714.764 63.1455 714.609 64.1059L693.053 63.1345C693.115 65.0722 693.661 66.5851 694.691 67.6734C695.76 68.7262 697.092 69.2885 698.689 69.3605C701.066 69.4676 702.763 68.5394 703.782 66.5761L713.919 67.0329C713.307 69.0518 712.278 70.8472 710.83 72.4192C709.42 73.9928 707.672 75.1978 705.588 76.0341C703.504 76.8704 701.199 77.2316 698.674 77.1178C695.629 76.9806 692.948 76.2086 690.63 74.8019C688.312 73.3951 686.539 71.4548 685.311 68.9809C684.083 66.507 683.542 63.6547 683.687 60.4241C683.833 57.1935 684.61 54.4007 686.018 52.0456C687.464 49.6922 689.404 47.9192 691.839 46.7266C694.274 45.5341 697.033 45.0072 700.115 45.1461C703.123 45.2816 705.768 46.0334 708.051 47.4013C710.333 48.7693 712.071 50.6522 713.266 53.0502C714.497 55.4498 715.042 58.2093 714.902 61.3284ZM705.267 58.3827C705.341 56.7488 704.843 55.4241 703.772 54.4084C702.702 53.3927 701.331 52.8473 699.66 52.772C698.063 52.7 696.687 53.1031 695.531 53.9812C694.412 54.861 693.684 56.1491 693.348 57.8456L705.267 58.3827Z" fill="white"/>
</svg>
