<svg width="268" height="448" viewBox="0 0 268 448" fill="none" xmlns="http://www.w3.org/2000/svg">
<g clip-path="url(#clip0_4067_1607)">
<rect x="0.529785" y="0.647095" width="267.192" height="579.257" rx="20.3964" fill="white"/>
<rect x="20.9277" y="171.977" width="235.238" height="206.003" rx="11.5579" fill="#FCF9F9"/>
<path d="M94.1327 77.1606L95.1021 75.6003C95.4075 75.8482 95.7019 76.0518 95.9851 76.2112C96.2729 76.3661 96.5561 76.4812 96.835 76.5564C97.1138 76.6272 97.3993 76.6627 97.6915 76.6627C98.0367 76.6627 98.3355 76.614 98.5878 76.5166C98.8401 76.4192 99.0349 76.2798 99.1721 76.0983C99.3137 75.9168 99.3845 75.7066 99.3845 75.4676C99.3845 75.1887 99.296 74.9541 99.119 74.7638C98.9419 74.5734 98.7095 74.4075 98.4218 74.2658C98.1385 74.1198 97.8309 73.9803 97.4989 73.8475C97.1758 73.7147 96.8505 73.5709 96.5229 73.416C96.1998 73.2566 95.901 73.0685 95.6266 72.8516C95.3566 72.6347 95.1375 72.3714 94.9693 72.0615C94.8055 71.7473 94.7236 71.3666 94.7236 70.9195C94.7236 70.3353 94.8697 69.8307 95.1619 69.4058C95.4584 68.9808 95.8634 68.6533 96.3769 68.4231C96.8903 68.1929 97.4768 68.0779 98.1363 68.0779C98.6011 68.0779 99.0835 68.1398 99.5837 68.2638C100.088 68.3877 100.591 68.5758 101.091 68.8281L100.287 70.4813C99.9732 70.291 99.6346 70.1405 99.2717 70.0299C98.9087 69.9192 98.5679 69.8639 98.2492 69.8639C97.9615 69.8639 97.7092 69.9081 97.4923 69.9967C97.2798 70.0852 97.1138 70.2091 96.9943 70.3685C96.8748 70.5234 96.8151 70.7071 96.8151 70.9195C96.8151 71.1718 96.9014 71.3909 97.074 71.5768C97.2466 71.7583 97.4702 71.9199 97.7446 72.0615C98.0235 72.2032 98.3222 72.3448 98.6409 72.4865C98.9685 72.6281 99.2982 72.783 99.6302 72.9512C99.9666 73.1194 100.272 73.3186 100.546 73.5488C100.825 73.7745 101.049 74.0467 101.217 74.3654C101.39 74.6797 101.476 75.0581 101.476 75.5008C101.476 76.085 101.321 76.5985 101.011 77.0411C100.701 77.4793 100.27 77.8223 99.7165 78.0702C99.1632 78.3137 98.5192 78.4354 97.7844 78.4354C97.1116 78.4354 96.4676 78.3269 95.8524 78.1101C95.2371 77.8932 94.6639 77.5767 94.1327 77.1606ZM108.879 77.4926C108.056 78.0769 107.155 78.369 106.177 78.369C105.451 78.369 104.798 78.2141 104.218 77.9042C103.643 77.59 103.187 77.165 102.85 76.6295C102.518 76.0939 102.352 75.4897 102.352 74.8169C102.352 74.1751 102.503 73.6019 102.804 73.0973C103.109 72.5927 103.523 72.1943 104.045 71.9022C104.568 71.61 105.161 71.464 105.825 71.464C106.511 71.464 107.115 71.6255 107.637 71.9487C108.16 72.2673 108.567 72.7144 108.859 73.2898C109.151 73.8608 109.297 74.5225 109.297 75.275V75.4875H104.404C104.484 75.7486 104.612 75.9788 104.789 76.178C104.971 76.3727 105.196 76.5277 105.466 76.6427C105.741 76.7578 106.053 76.8154 106.402 76.8154C107.08 76.8154 107.71 76.5963 108.295 76.1581L108.879 77.4926ZM104.318 74.5181H107.538C107.502 74.2304 107.412 73.9781 107.266 73.7612C107.124 73.5399 106.936 73.3673 106.701 73.2433C106.471 73.1194 106.212 73.0574 105.924 73.0574C105.632 73.0574 105.371 73.1216 105.141 73.25C104.915 73.3783 104.731 73.551 104.59 73.7679C104.448 73.9848 104.357 74.2348 104.318 74.5181ZM117.132 78.2362H115.226V74.7837C115.226 74.2791 115.107 73.8852 114.868 73.6019C114.633 73.3186 114.308 73.177 113.892 73.177C113.6 73.177 113.341 73.2478 113.115 73.3894C112.894 73.5266 112.721 73.7236 112.597 73.9803C112.473 74.2326 112.411 74.5358 112.411 74.8899V78.2362H110.506V71.5968H112.046L112.112 72.6591C112.351 72.2696 112.67 71.973 113.068 71.7694C113.467 71.5658 113.927 71.464 114.449 71.464C115.282 71.464 115.937 71.7207 116.415 72.2342C116.893 72.7432 117.132 73.4425 117.132 74.3322V78.2362ZM125.458 78.2362H123.784L123.685 77.3332C123.402 77.6519 123.061 77.9042 122.662 78.0901C122.268 78.276 121.837 78.369 121.368 78.369C120.761 78.369 120.219 78.2207 119.741 77.9242C119.267 77.6232 118.893 77.2115 118.619 76.6892C118.345 76.1669 118.207 75.576 118.207 74.9165C118.207 74.2525 118.345 73.6616 118.619 73.1438C118.893 72.6215 119.267 72.212 119.741 71.9155C120.219 71.6145 120.761 71.464 121.368 71.464C121.801 71.464 122.204 71.5436 122.576 71.703C122.952 71.8579 123.278 72.0748 123.552 72.3537V68.277H125.458V78.2362ZM121.859 76.6627C122.173 76.6627 122.457 76.5918 122.709 76.4502C122.966 76.3086 123.169 76.116 123.32 75.8726C123.475 75.6247 123.552 75.3436 123.552 75.0294V74.7903C123.552 74.4761 123.475 74.1972 123.32 73.9538C123.169 73.7103 122.966 73.52 122.709 73.3828C122.457 73.2411 122.173 73.1703 121.859 73.1703C121.536 73.1703 121.246 73.2456 120.989 73.3961C120.733 73.5465 120.529 73.7546 120.378 74.0202C120.232 74.2813 120.159 74.5801 120.159 74.9165C120.159 75.2485 120.232 75.5472 120.378 75.8128C120.529 76.074 120.733 76.282 120.989 76.4369C121.246 76.5874 121.536 76.6627 121.859 76.6627ZM140.801 78.2362H138.756V71.1984L136.267 76.5631H134.686L132.203 71.2183V78.2362H130.158V68.277H132.754L135.477 74.2924L138.199 68.277H140.801V78.2362ZM145.582 78.369C144.9 78.369 144.289 78.2207 143.749 77.9242C143.209 77.6232 142.784 77.2137 142.475 76.6959C142.169 76.1736 142.016 75.5804 142.016 74.9165C142.016 74.257 142.169 73.6683 142.475 73.1504C142.784 72.6281 143.209 72.2164 143.749 71.9155C144.289 71.6145 144.9 71.464 145.582 71.464C146.263 71.464 146.87 71.6145 147.401 71.9155C147.937 72.2164 148.357 72.6281 148.662 73.1504C148.972 73.6683 149.127 74.257 149.127 74.9165C149.127 75.5804 148.972 76.1736 148.662 76.6959C148.357 77.2137 147.937 77.6232 147.401 77.9242C146.87 78.2207 146.263 78.369 145.582 78.369ZM145.575 76.6627C145.881 76.6627 146.153 76.5874 146.392 76.4369C146.635 76.282 146.826 76.074 146.963 75.8128C147.104 75.5472 147.175 75.2462 147.175 74.9098C147.175 74.5779 147.104 74.2813 146.963 74.0202C146.826 73.759 146.635 73.5532 146.392 73.4027C146.153 73.2478 145.881 73.1703 145.575 73.1703C145.265 73.1703 144.989 73.2478 144.745 73.4027C144.506 73.5532 144.316 73.759 144.174 74.0202C144.037 74.2813 143.968 74.5779 143.968 74.9098C143.968 75.2462 144.037 75.5472 144.174 75.8128C144.316 76.074 144.506 76.282 144.745 76.4369C144.989 76.5874 145.265 76.6627 145.575 76.6627ZM156.968 78.2362H155.063V74.7837C155.063 74.2791 154.943 73.8852 154.704 73.6019C154.47 73.3186 154.144 73.177 153.728 73.177C153.436 73.177 153.177 73.2478 152.952 73.3894C152.73 73.5266 152.558 73.7236 152.434 73.9803C152.31 74.2326 152.248 74.5358 152.248 74.8899V78.2362H150.342V71.5968H151.883L151.949 72.6591C152.188 72.2696 152.507 71.973 152.905 71.7694C153.303 71.5658 153.764 71.464 154.286 71.464C155.118 71.464 155.773 71.7207 156.251 72.2342C156.729 72.7432 156.968 73.4425 156.968 74.3322V78.2362ZM164.571 77.4926C163.747 78.0769 162.847 78.369 161.868 78.369C161.142 78.369 160.49 78.2141 159.91 77.9042C159.334 77.59 158.878 77.165 158.542 76.6295C158.21 76.0939 158.044 75.4897 158.044 74.8169C158.044 74.1751 158.194 73.6019 158.495 73.0973C158.801 72.5927 159.215 72.1943 159.737 71.9022C160.259 71.61 160.852 71.464 161.516 71.464C162.202 71.464 162.807 71.6255 163.329 71.9487C163.851 72.2673 164.259 72.7144 164.551 73.2898C164.843 73.8608 164.989 74.5225 164.989 75.275V75.4875H160.096C160.175 75.7486 160.304 75.9788 160.481 76.178C160.662 76.3727 160.888 76.5277 161.158 76.6427C161.432 76.7578 161.744 76.8154 162.094 76.8154C162.771 76.8154 163.402 76.5963 163.986 76.1581L164.571 77.4926ZM160.009 74.5181H163.229C163.194 74.2304 163.103 73.9781 162.957 73.7612C162.816 73.5399 162.627 73.3673 162.393 73.2433C162.163 73.1194 161.904 73.0574 161.616 73.0574C161.324 73.0574 161.063 73.1216 160.833 73.25C160.607 73.3783 160.423 73.551 160.281 73.7679C160.14 73.9848 160.049 74.2348 160.009 74.5181ZM169.258 81.5559H167.226L168.607 78.2296L165.254 71.5968H167.406L169.51 76.0585L171.356 71.5968H173.381L169.258 81.5559Z" fill="black"/>
<path d="M69.3521 135.145L70.0576 134.005C70.3172 134.209 70.5674 134.378 70.8082 134.513C71.0489 134.645 71.2916 134.743 71.5362 134.807C71.7807 134.871 72.029 134.903 72.2811 134.903C72.6047 134.903 72.885 134.854 73.122 134.756C73.3628 134.655 73.549 134.515 73.6807 134.338C73.8124 134.162 73.8782 133.955 73.8782 133.718C73.8782 133.451 73.7973 133.229 73.6356 133.052C73.4775 132.871 73.2687 132.717 73.0091 132.589C72.7495 132.457 72.4711 132.329 72.1739 132.205C71.903 132.092 71.6283 131.97 71.3499 131.838C71.0753 131.707 70.8251 131.551 70.5993 131.37C70.3736 131.186 70.1911 130.964 70.0519 130.704C69.9165 130.444 69.8488 130.13 69.8488 129.762C69.8488 129.284 69.9691 128.868 70.2099 128.514C70.4507 128.157 70.7837 127.882 71.2088 127.69C71.634 127.495 72.1193 127.397 72.6649 127.397C73.0486 127.397 73.4418 127.448 73.8444 127.549C74.2507 127.647 74.6514 127.798 75.0464 128.001L74.4539 129.203C74.1867 129.045 73.9027 128.923 73.6017 128.836C73.3007 128.746 73.0129 128.701 72.7382 128.701C72.4673 128.701 72.2284 128.744 72.0215 128.83C71.8183 128.913 71.6584 129.034 71.5418 129.192C71.4289 129.346 71.3725 129.526 71.3725 129.733C71.3725 129.978 71.4478 130.185 71.5982 130.354C71.7525 130.523 71.9538 130.674 72.2021 130.806C72.4504 130.934 72.7157 131.06 72.9978 131.184C73.28 131.308 73.5622 131.441 73.8444 131.584C74.1303 131.724 74.3899 131.889 74.6232 132.081C74.8602 132.273 75.0483 132.502 75.1875 132.77C75.3305 133.037 75.402 133.358 75.402 133.735C75.402 134.224 75.2741 134.655 75.0182 135.027C74.7661 135.396 74.4106 135.684 73.9516 135.89C73.4926 136.094 72.9565 136.195 72.3432 136.195C71.7939 136.195 71.2672 136.107 70.763 135.93C70.2589 135.753 69.7886 135.492 69.3521 135.145ZM81.7397 135.371C81.0361 135.883 80.2667 136.139 79.4315 136.139C78.8257 136.139 78.2821 136.007 77.8005 135.744C77.3189 135.48 76.937 135.121 76.6548 134.666C76.3764 134.211 76.2372 133.695 76.2372 133.119C76.2372 132.574 76.3633 132.087 76.6153 131.658C76.8712 131.229 77.2192 130.89 77.6594 130.642C78.1033 130.394 78.6037 130.269 79.1606 130.269C79.74 130.269 80.2479 130.407 80.6843 130.681C81.1245 130.952 81.4669 131.33 81.7114 131.816C81.956 132.297 82.0783 132.858 82.0783 133.498V133.678H77.7328C77.8005 133.934 77.919 134.16 78.0883 134.355C78.2614 134.551 78.4758 134.703 78.7317 134.813C78.9875 134.922 79.2753 134.976 79.5951 134.976C80.1971 134.976 80.7539 134.781 81.2656 134.389L81.7397 135.371ZM77.6763 132.866H80.7915C80.7614 132.583 80.6749 132.337 80.5319 132.126C80.3927 131.916 80.2103 131.752 79.9845 131.635C79.7625 131.515 79.5123 131.455 79.2339 131.455C78.9518 131.455 78.6997 131.515 78.4777 131.635C78.2557 131.756 78.0751 131.923 77.9359 132.137C77.7967 132.348 77.7102 132.591 77.6763 132.866ZM84.6856 136.026H83.2013V127.561H84.6856V136.026ZM91.3111 135.371C90.6075 135.883 89.8381 136.139 89.0029 136.139C88.3971 136.139 87.8535 136.007 87.3719 135.744C86.8903 135.48 86.5084 135.121 86.2263 134.666C85.9478 134.211 85.8086 133.695 85.8086 133.119C85.8086 132.574 85.9347 132.087 86.1868 131.658C86.4426 131.229 86.7906 130.89 87.2308 130.642C87.6748 130.394 88.1752 130.269 88.732 130.269C89.3114 130.269 89.8193 130.407 90.2557 130.681C90.6959 130.952 91.0383 131.33 91.2829 131.816C91.5274 132.297 91.6497 132.858 91.6497 133.498V133.678H87.3042C87.3719 133.934 87.4904 134.16 87.6597 134.355C87.8328 134.551 88.0472 134.703 88.3031 134.813C88.5589 134.922 88.8467 134.976 89.1665 134.976C89.7685 134.976 90.3253 134.781 90.837 134.389L91.3111 135.371ZM87.2477 132.866H90.363C90.3329 132.583 90.2463 132.337 90.1034 132.126C89.9642 131.916 89.7817 131.752 89.5559 131.635C89.334 131.515 89.0838 131.455 88.8054 131.455C88.5232 131.455 88.2711 131.515 88.0491 131.635C87.8271 131.756 87.6465 131.923 87.5073 132.137C87.3681 132.348 87.2816 132.591 87.2477 132.866ZM97.6713 135.157C97.3967 135.469 97.0637 135.712 96.6724 135.885C96.2811 136.054 95.8541 136.139 95.3913 136.139C94.8195 136.139 94.3059 136.011 93.8507 135.755C93.3992 135.499 93.0418 135.151 92.7784 134.711C92.5188 134.267 92.389 133.765 92.389 133.204C92.389 132.644 92.5188 132.143 92.7784 131.703C93.0418 131.259 93.3992 130.909 93.8507 130.653C94.3059 130.397 94.8195 130.269 95.3913 130.269C95.8504 130.269 96.2736 130.354 96.6611 130.523C97.0524 130.693 97.3854 130.932 97.66 131.24L96.8474 132.104C96.6781 131.919 96.473 131.776 96.2322 131.675C95.9952 131.573 95.7431 131.522 95.476 131.522C95.1524 131.522 94.8646 131.594 94.6125 131.737C94.3642 131.88 94.1686 132.077 94.0256 132.329C93.8864 132.581 93.8168 132.871 93.8168 133.198C93.8168 133.526 93.8864 133.817 94.0256 134.073C94.1686 134.325 94.3642 134.525 94.6125 134.671C94.8646 134.814 95.1524 134.886 95.476 134.886C95.7431 134.886 95.9971 134.835 96.2379 134.734C96.4787 134.628 96.6818 134.485 96.8474 134.305L97.6713 135.157ZM102.429 135.879C102.015 136.052 101.614 136.139 101.227 136.139C100.832 136.139 100.484 136.054 100.183 135.885C99.8855 135.715 99.6522 135.48 99.4829 135.179C99.3174 134.875 99.2346 134.521 99.2346 134.118V131.624H98.247V130.382H99.308V128.971H100.623V130.382H102.231V131.624H100.623V133.864C100.623 134.184 100.709 134.436 100.882 134.621C101.059 134.805 101.279 134.897 101.543 134.897C101.776 134.897 102.007 134.826 102.237 134.683L102.429 135.879ZM115.036 136.026H113.547V129.677L111.193 134.604H109.991L107.649 129.705V136.026H106.159V127.561H108.055L110.595 132.973L113.129 127.561H115.036V136.026ZM119.162 136.139C118.59 136.139 118.076 136.011 117.621 135.755C117.17 135.499 116.812 135.151 116.549 134.711C116.289 134.267 116.16 133.765 116.16 133.204C116.16 132.644 116.289 132.143 116.549 131.703C116.812 131.259 117.17 130.909 117.621 130.653C118.076 130.397 118.59 130.269 119.162 130.269C119.738 130.269 120.251 130.397 120.703 130.653C121.154 130.909 121.508 131.259 121.764 131.703C122.023 132.143 122.153 132.644 122.153 133.204C122.153 133.765 122.023 134.267 121.764 134.711C121.508 135.151 121.154 135.499 120.703 135.755C120.251 136.011 119.738 136.139 119.162 136.139ZM119.156 134.892C119.457 134.892 119.726 134.818 119.963 134.671C120.2 134.525 120.387 134.323 120.522 134.068C120.661 133.812 120.731 133.522 120.731 133.198C120.731 132.879 120.661 132.593 120.522 132.341C120.387 132.085 120.2 131.884 119.963 131.737C119.726 131.59 119.457 131.517 119.156 131.517C118.859 131.517 118.59 131.59 118.349 131.737C118.112 131.884 117.924 132.085 117.785 132.341C117.649 132.593 117.582 132.879 117.582 133.198C117.582 133.522 117.649 133.812 117.785 134.068C117.924 134.323 118.112 134.525 118.349 134.671C118.59 134.818 118.859 134.892 119.156 134.892ZM128.982 136.026H127.757L127.684 135.236C127.439 135.518 127.142 135.74 126.792 135.902C126.442 136.06 126.06 136.139 125.646 136.139C125.12 136.139 124.647 136.011 124.23 135.755C123.812 135.499 123.483 135.151 123.242 134.711C123.005 134.267 122.887 133.765 122.887 133.204C122.887 132.644 123.005 132.143 123.242 131.703C123.483 131.259 123.812 130.909 124.23 130.653C124.647 130.397 125.12 130.269 125.646 130.269C126.038 130.269 126.399 130.339 126.73 130.478C127.061 130.618 127.349 130.813 127.593 131.065V127.561H128.982V136.026ZM125.957 134.892C126.258 134.892 126.532 134.824 126.781 134.688C127.029 134.549 127.226 134.359 127.373 134.118C127.52 133.878 127.593 133.603 127.593 133.294V133.097C127.593 132.792 127.52 132.521 127.373 132.284C127.226 132.043 127.029 131.855 126.781 131.72C126.532 131.581 126.258 131.511 125.957 131.511C125.641 131.511 125.358 131.586 125.11 131.737C124.862 131.884 124.666 132.085 124.523 132.341C124.38 132.593 124.309 132.879 124.309 133.198C124.309 133.522 124.38 133.812 124.523 134.068C124.666 134.323 124.862 134.525 125.11 134.671C125.358 134.818 125.641 134.892 125.957 134.892ZM135.601 135.371C134.898 135.883 134.128 136.139 133.293 136.139C132.688 136.139 132.144 136.007 131.662 135.744C131.181 135.48 130.799 135.121 130.517 134.666C130.238 134.211 130.099 133.695 130.099 133.119C130.099 132.574 130.225 132.087 130.477 131.658C130.733 131.229 131.081 130.89 131.521 130.642C131.965 130.394 132.466 130.269 133.022 130.269C133.602 130.269 134.11 130.407 134.546 130.681C134.986 130.952 135.329 131.33 135.573 131.816C135.818 132.297 135.94 132.858 135.94 133.498V133.678H131.595C131.662 133.934 131.781 134.16 131.95 134.355C132.123 134.551 132.338 134.703 132.593 134.813C132.849 134.922 133.137 134.976 133.457 134.976C134.059 134.976 134.616 134.781 135.127 134.389L135.601 135.371ZM131.538 132.866H134.653C134.623 132.583 134.537 132.337 134.394 132.126C134.255 131.916 134.072 131.752 133.846 131.635C133.624 131.515 133.374 131.455 133.096 131.455C132.814 131.455 132.561 131.515 132.339 131.635C132.118 131.756 131.937 131.923 131.798 132.137C131.659 132.348 131.572 132.591 131.538 132.866ZM142.368 136.139C141.796 136.139 141.283 136.011 140.827 135.755C140.376 135.499 140.018 135.151 139.755 134.711C139.495 134.267 139.366 133.765 139.366 133.204C139.366 132.644 139.495 132.143 139.755 131.703C140.018 131.259 140.376 130.909 140.827 130.653C141.283 130.397 141.796 130.269 142.368 130.269C142.944 130.269 143.457 130.397 143.909 130.653C144.36 130.909 144.714 131.259 144.97 131.703C145.229 132.143 145.359 132.644 145.359 133.204C145.359 133.765 145.229 134.267 144.97 134.711C144.714 135.151 144.36 135.499 143.909 135.755C143.457 136.011 142.944 136.139 142.368 136.139ZM142.362 134.892C142.663 134.892 142.932 134.818 143.169 134.671C143.406 134.525 143.593 134.323 143.728 134.068C143.867 133.812 143.937 133.522 143.937 133.198C143.937 132.879 143.867 132.593 143.728 132.341C143.593 132.085 143.406 131.884 143.169 131.737C142.932 131.59 142.663 131.517 142.362 131.517C142.065 131.517 141.796 131.59 141.555 131.737C141.318 131.884 141.13 132.085 140.991 132.341C140.856 132.593 140.788 132.879 140.788 133.198C140.788 133.522 140.856 133.812 140.991 134.068C141.13 134.323 141.318 134.525 141.555 134.671C141.796 134.818 142.065 134.892 142.362 134.892ZM148.311 136.026H146.922V131.624H145.935V130.382H146.922V129.395C146.922 129.003 147.011 128.657 147.188 128.356C147.368 128.055 147.613 127.82 147.921 127.651C148.234 127.478 148.593 127.391 148.999 127.391C149.251 127.391 149.507 127.427 149.767 127.499C150.026 127.57 150.28 127.681 150.529 127.831L150.004 128.915C149.88 128.821 149.75 128.751 149.614 128.706C149.483 128.657 149.351 128.633 149.219 128.633C148.96 128.633 148.743 128.725 148.57 128.909C148.397 129.094 148.311 129.346 148.311 129.666V130.382H150.015V131.624H148.311V136.026ZM157.628 136.026H156.138V128.87H153.565V127.561H160.196V128.87H157.628V136.026ZM162.482 136.026H161.093V130.382H162.301L162.352 131.409C162.547 131.048 162.811 130.768 163.142 130.569C163.477 130.369 163.86 130.269 164.293 130.269C164.406 130.269 164.521 130.277 164.637 130.292C164.758 130.307 164.876 130.33 164.993 130.36L164.824 131.613C164.59 131.545 164.365 131.511 164.146 131.511C163.815 131.511 163.524 131.588 163.272 131.742C163.023 131.897 162.83 132.111 162.69 132.386C162.551 132.657 162.482 132.973 162.482 133.334V136.026ZM170.518 136.026H169.31L169.231 135.332C169.024 135.588 168.767 135.787 168.458 135.93C168.15 136.069 167.807 136.139 167.431 136.139C167.032 136.139 166.677 136.062 166.364 135.907C166.052 135.749 165.806 135.535 165.625 135.264C165.448 134.993 165.36 134.685 165.36 134.338C165.36 133.974 165.456 133.654 165.648 133.379C165.843 133.101 166.108 132.882 166.443 132.724C166.782 132.566 167.168 132.487 167.6 132.487C167.864 132.487 168.127 132.517 168.39 132.578C168.657 132.638 168.904 132.723 169.13 132.832V132.651C169.13 132.403 169.062 132.188 168.926 132.008C168.791 131.827 168.609 131.688 168.379 131.59C168.15 131.488 167.892 131.438 167.606 131.438C167.346 131.438 167.087 131.483 166.827 131.573C166.567 131.66 166.325 131.789 166.099 131.963L165.704 130.873C166.065 130.674 166.434 130.523 166.81 130.422C167.19 130.32 167.561 130.269 167.922 130.269C168.452 130.269 168.911 130.375 169.299 130.586C169.686 130.792 169.986 131.09 170.196 131.477C170.411 131.861 170.518 132.314 170.518 132.837V136.026ZM167.719 135.021C167.963 135.021 168.189 134.971 168.396 134.869C168.607 134.767 168.778 134.626 168.91 134.446C169.045 134.261 169.116 134.051 169.124 133.814V133.752C168.947 133.624 168.748 133.526 168.526 133.458C168.304 133.387 168.08 133.351 167.854 133.351C167.508 133.351 167.224 133.43 167.002 133.588C166.78 133.742 166.669 133.945 166.669 134.197C166.669 134.352 166.714 134.493 166.804 134.621C166.895 134.745 167.019 134.843 167.177 134.914C167.339 134.986 167.519 135.021 167.719 135.021ZM177.42 136.026H176.032V132.984C176.032 132.529 175.917 132.171 175.687 131.912C175.462 131.652 175.148 131.522 174.745 131.522C174.463 131.522 174.213 131.588 173.994 131.72C173.776 131.848 173.605 132.032 173.481 132.273C173.357 132.514 173.295 132.794 173.295 133.114V136.026H171.906V130.382H173.052L173.097 131.291C173.3 130.96 173.577 130.708 173.927 130.535C174.277 130.358 174.675 130.269 175.123 130.269C175.834 130.269 176.395 130.486 176.805 130.918C177.215 131.351 177.42 131.944 177.42 132.696V136.026ZM178.419 135.541L178.735 134.333C178.859 134.457 179.013 134.57 179.198 134.671C179.382 134.773 179.578 134.854 179.785 134.914C179.995 134.971 180.2 134.999 180.4 134.999C180.667 134.999 180.881 134.944 181.043 134.835C181.205 134.722 181.286 134.575 181.286 134.395C181.286 134.252 181.237 134.133 181.139 134.039C181.041 133.942 180.913 133.857 180.755 133.785C180.597 133.71 180.424 133.637 180.236 133.565C179.988 133.475 179.736 133.368 179.48 133.244C179.224 133.116 179.01 132.948 178.836 132.741C178.667 132.531 178.583 132.252 178.583 131.906C178.583 131.571 178.667 131.282 178.836 131.037C179.01 130.792 179.25 130.604 179.559 130.473C179.867 130.337 180.227 130.269 180.637 130.269C181.284 130.269 181.929 130.431 182.573 130.755L182.172 131.895C182.051 131.805 181.905 131.722 181.732 131.647C181.559 131.571 181.382 131.511 181.201 131.466C181.021 131.421 180.857 131.398 180.71 131.398C180.496 131.398 180.325 131.445 180.197 131.539C180.069 131.633 180.005 131.757 180.005 131.912C180.005 132.017 180.04 132.113 180.112 132.2C180.183 132.282 180.294 132.363 180.445 132.442C180.595 132.521 180.789 132.61 181.026 132.707C181.282 132.805 181.538 132.92 181.794 133.052C182.053 133.18 182.27 133.351 182.443 133.565C182.62 133.776 182.708 134.056 182.708 134.406C182.708 134.752 182.614 135.055 182.426 135.315C182.241 135.574 181.982 135.778 181.647 135.924C181.316 136.067 180.928 136.139 180.484 136.139C179.747 136.139 179.058 135.939 178.419 135.541ZM185.648 136.026H184.26V131.624H183.272V130.382H184.26V129.395C184.26 129.003 184.348 128.657 184.525 128.356C184.706 128.055 184.95 127.82 185.259 127.651C185.571 127.478 185.93 127.391 186.337 127.391C186.589 127.391 186.845 127.427 187.104 127.499C187.364 127.57 187.618 127.681 187.866 127.831L187.341 128.915C187.217 128.821 187.087 128.751 186.952 128.706C186.82 128.657 186.689 128.633 186.557 128.633C186.297 128.633 186.081 128.725 185.908 128.909C185.735 129.094 185.648 129.346 185.648 129.666V130.382H187.353V131.624H185.648V136.026ZM193.606 135.371C192.902 135.883 192.133 136.139 191.297 136.139C190.692 136.139 190.148 136.007 189.666 135.744C189.185 135.48 188.803 135.121 188.521 134.666C188.242 134.211 188.103 133.695 188.103 133.119C188.103 132.574 188.229 132.087 188.481 131.658C188.737 131.229 189.085 130.89 189.525 130.642C189.969 130.394 190.47 130.269 191.027 130.269C191.606 130.269 192.114 130.407 192.55 130.681C192.99 130.952 193.333 131.33 193.577 131.816C193.822 132.297 193.944 132.858 193.944 133.498V133.678H189.599C189.666 133.934 189.785 134.16 189.954 134.355C190.127 134.551 190.342 134.703 190.598 134.813C190.853 134.922 191.141 134.976 191.461 134.976C192.063 134.976 192.62 134.781 193.132 134.389L193.606 135.371ZM189.542 132.866H192.657C192.627 132.583 192.541 132.337 192.398 132.126C192.259 131.916 192.076 131.752 191.85 131.635C191.628 131.515 191.378 131.455 191.1 131.455C190.818 131.455 190.566 131.515 190.344 131.635C190.122 131.756 189.941 131.923 189.802 132.137C189.663 132.348 189.576 132.591 189.542 132.866ZM196.456 136.026H195.067V130.382H196.275L196.326 131.409C196.521 131.048 196.785 130.768 197.116 130.569C197.451 130.369 197.834 130.269 198.267 130.269C198.38 130.269 198.495 130.277 198.611 130.292C198.732 130.307 198.85 130.33 198.967 130.36L198.798 131.613C198.564 131.545 198.339 131.511 198.12 131.511C197.789 131.511 197.498 131.588 197.246 131.742C196.997 131.897 196.804 132.111 196.664 132.386C196.525 132.657 196.456 132.973 196.456 133.334V136.026Z" fill="black"/>
<g filter="url(#filter0_d_4067_1607)">
<rect x="13.4482" y="448.007" width="242.717" height="37.3933" rx="6.11891" fill="#049463"/>
</g>
<rect x="36.9039" y="193.393" width="210.083" height="47.0162" rx="5.09909" fill="white" stroke="#049463" stroke-width="0.679879"/>
<rect x="36.9039" y="249.875" width="210.083" height="47.0162" rx="5.09909" fill="white" stroke="#DEDCDC" stroke-width="0.679879"/>
<rect x="36.9039" y="308.868" width="210.083" height="47.0162" rx="5.09909" fill="white" stroke="#DEDCDC" stroke-width="0.679879"/>
<path d="M87.3288 215.036H85.5158V221.381H87.3288V215.036ZM92.7678 215.036H90.9548V221.381H92.7678V215.036ZM100.473 223.194H83.2495V225.007H100.473V223.194ZM98.2068 215.036H96.3938V221.381H98.2068V215.036ZM91.8613 208.926L96.5842 211.41H87.1384L91.8613 208.926ZM91.8613 206.877L83.2495 211.41V213.223H100.473V211.41L91.8613 206.877Z" fill="#049463"/>
<path d="M122.176 218.971V210.505H125.223C126.066 210.505 126.725 210.694 127.199 211.07C127.676 211.446 127.915 211.967 127.915 212.633C127.915 213.085 127.804 213.48 127.582 213.818C127.364 214.157 127.071 214.405 126.702 214.563C127.206 214.695 127.601 214.941 127.887 215.302C128.173 215.66 128.316 216.098 128.316 216.617C128.316 217.088 128.199 217.5 127.966 217.853C127.737 218.207 127.411 218.482 126.99 218.677C126.572 218.873 126.083 218.971 125.523 218.971H122.176ZM123.417 214.179H125.173C125.635 214.179 126.004 214.061 126.279 213.824C126.553 213.587 126.691 213.271 126.691 212.876C126.691 212.481 126.55 212.17 126.267 211.945C125.989 211.715 125.607 211.6 125.122 211.6H123.417V214.179ZM123.417 217.876H125.235C125.6 217.876 125.918 217.818 126.188 217.701C126.459 217.581 126.67 217.415 126.821 217.204C126.971 216.99 127.046 216.742 127.046 216.459C127.046 216.185 126.975 215.946 126.832 215.743C126.693 215.539 126.493 215.385 126.234 215.28C125.974 215.171 125.669 215.116 125.319 215.116H123.417V217.876ZM134.281 218.971H133.282L133.215 218.248C133.008 218.512 132.746 218.717 132.43 218.863C132.114 219.01 131.764 219.084 131.381 219.084C130.978 219.084 130.619 219.005 130.303 218.847C129.987 218.689 129.738 218.472 129.558 218.198C129.377 217.923 129.287 217.611 129.287 217.261C129.287 216.892 129.385 216.568 129.58 216.29C129.776 216.008 130.043 215.788 130.382 215.63C130.72 215.468 131.106 215.387 131.539 215.387C131.809 215.387 132.084 215.419 132.362 215.483C132.645 215.547 132.899 215.637 133.124 215.754V215.545C133.124 215.27 133.053 215.035 132.91 214.84C132.771 214.64 132.579 214.488 132.334 214.383C132.093 214.277 131.826 214.224 131.533 214.224C131.273 214.224 131.008 214.27 130.737 214.36C130.47 214.45 130.218 214.589 129.981 214.778L129.631 213.835C129.973 213.632 130.329 213.478 130.698 213.372C131.07 213.267 131.435 213.214 131.792 213.214C132.304 213.214 132.744 213.316 133.113 213.519C133.486 213.722 133.773 214.012 133.977 214.388C134.18 214.761 134.281 215.201 134.281 215.709V218.971ZM131.606 218.102C131.873 218.102 132.12 218.047 132.346 217.938C132.571 217.825 132.754 217.667 132.893 217.464C133.036 217.257 133.113 217.016 133.124 216.742V216.663C132.932 216.52 132.716 216.409 132.475 216.33C132.238 216.247 131.996 216.205 131.747 216.205C131.367 216.205 131.051 216.296 130.799 216.476C130.547 216.657 130.421 216.888 130.421 217.17C130.421 217.347 130.472 217.507 130.573 217.65C130.679 217.789 130.82 217.9 130.997 217.983C131.177 218.062 131.381 218.102 131.606 218.102ZM141.2 218.971H140.043V215.822C140.043 215.34 139.914 214.96 139.654 214.682C139.398 214.403 139.048 214.264 138.604 214.264C138.288 214.264 138.006 214.335 137.758 214.478C137.509 214.621 137.314 214.825 137.171 215.088C137.028 215.348 136.956 215.65 136.956 215.997V218.971H135.799V213.327H136.776L136.815 214.236C137.022 213.905 137.304 213.653 137.662 213.48C138.019 213.303 138.424 213.214 138.875 213.214C139.59 213.214 140.156 213.431 140.574 213.863C140.991 214.296 141.2 214.883 141.2 215.624V218.971ZM143.875 218.971H142.718V210.505H143.875V216.211L144.355 215.635L146.533 213.327H147.984L145.653 215.799L148.311 218.971H146.816L144.852 216.589L143.875 217.594V218.971ZM155.343 218.971H154.101V211.6H151.455V210.505H157.99V211.6H155.343V218.971ZM160.129 218.971H158.972V213.327H159.982L160.027 214.399C160.223 214.027 160.492 213.737 160.834 213.53C161.18 213.32 161.577 213.214 162.025 213.214C162.134 213.214 162.243 213.222 162.352 213.237C162.465 213.248 162.578 213.267 162.691 213.293L162.544 214.337C162.326 214.281 162.111 214.253 161.901 214.253C161.551 214.253 161.242 214.337 160.975 214.507C160.708 214.672 160.499 214.902 160.349 215.195C160.202 215.489 160.129 215.827 160.129 216.211V218.971ZM168.12 218.971H167.121L167.053 218.248C166.846 218.512 166.585 218.717 166.269 218.863C165.953 219.01 165.603 219.084 165.219 219.084C164.817 219.084 164.457 219.005 164.141 218.847C163.825 218.689 163.577 218.472 163.396 218.198C163.216 217.923 163.125 217.611 163.125 217.261C163.125 216.892 163.223 216.568 163.419 216.29C163.614 216.008 163.882 215.788 164.22 215.63C164.559 215.468 164.944 215.387 165.377 215.387C165.648 215.387 165.923 215.419 166.201 215.483C166.483 215.547 166.737 215.637 166.963 215.754V215.545C166.963 215.27 166.891 215.035 166.748 214.84C166.609 214.64 166.417 214.488 166.173 214.383C165.932 214.277 165.665 214.224 165.371 214.224C165.112 214.224 164.847 214.27 164.576 214.36C164.309 214.45 164.057 214.589 163.819 214.778L163.47 213.835C163.812 213.632 164.168 213.478 164.536 213.372C164.909 213.267 165.274 213.214 165.631 213.214C166.143 213.214 166.583 213.316 166.952 213.519C167.324 213.722 167.612 214.012 167.815 214.388C168.018 214.761 168.12 215.201 168.12 215.709V218.971ZM165.445 218.102C165.712 218.102 165.958 218.047 166.184 217.938C166.41 217.825 166.592 217.667 166.732 217.464C166.875 217.257 166.952 217.016 166.963 216.742V216.663C166.771 216.52 166.555 216.409 166.314 216.33C166.077 216.247 165.834 216.205 165.586 216.205C165.206 216.205 164.89 216.296 164.638 216.476C164.386 216.657 164.26 216.888 164.26 217.17C164.26 217.347 164.31 217.507 164.412 217.65C164.517 217.789 164.658 217.9 164.835 217.983C165.016 218.062 165.219 218.102 165.445 218.102ZM175.039 218.971H173.882V215.822C173.882 215.34 173.752 214.96 173.492 214.682C173.237 214.403 172.887 214.264 172.443 214.264C172.127 214.264 171.845 214.335 171.596 214.478C171.348 214.621 171.152 214.825 171.009 215.088C170.866 215.348 170.795 215.65 170.795 215.997V218.971H169.638V213.327H170.614L170.654 214.236C170.861 213.905 171.143 213.653 171.5 213.48C171.858 213.303 172.262 213.214 172.714 213.214C173.429 213.214 173.995 213.431 174.412 213.863C174.83 214.296 175.039 214.883 175.039 215.624V218.971ZM176.162 218.48L176.444 217.441C176.572 217.569 176.724 217.682 176.901 217.78C177.082 217.878 177.272 217.955 177.471 218.011C177.674 218.064 177.874 218.09 178.069 218.09C178.378 218.09 178.626 218.024 178.814 217.893C179.002 217.761 179.097 217.586 179.097 217.368C179.097 217.206 179.044 217.073 178.938 216.967C178.837 216.858 178.7 216.764 178.527 216.685C178.357 216.606 178.175 216.529 177.979 216.454C177.727 216.36 177.475 216.251 177.223 216.126C176.975 216.002 176.766 215.837 176.596 215.63C176.427 215.423 176.342 215.15 176.342 214.811C176.342 214.488 176.425 214.208 176.591 213.971C176.756 213.73 176.988 213.544 177.285 213.412C177.582 213.28 177.925 213.214 178.312 213.214C178.914 213.214 179.51 213.365 180.101 213.666L179.762 214.653C179.642 214.567 179.499 214.49 179.334 214.422C179.168 214.354 178.999 214.302 178.826 214.264C178.653 214.223 178.493 214.202 178.346 214.202C178.101 214.202 177.904 214.256 177.753 214.366C177.607 214.475 177.533 214.621 177.533 214.806C177.533 214.919 177.569 215.022 177.64 215.116C177.712 215.206 177.825 215.297 177.979 215.387C178.137 215.474 178.35 215.571 178.617 215.681C178.873 215.782 179.128 215.899 179.384 216.03C179.64 216.162 179.853 216.333 180.022 216.544C180.195 216.755 180.282 217.031 180.282 217.374C180.282 217.712 180.191 218.011 180.011 218.271C179.83 218.527 179.578 218.726 179.255 218.869C178.935 219.012 178.562 219.084 178.137 219.084C177.434 219.084 176.775 218.882 176.162 218.48ZM183.103 218.971H181.946V214.36H180.959V213.327H181.946V212.227C181.946 211.858 182.027 211.533 182.189 211.25C182.355 210.964 182.58 210.741 182.866 210.579C183.156 210.417 183.489 210.336 183.865 210.336C184.099 210.336 184.334 210.368 184.571 210.432C184.808 210.496 185.041 210.596 185.271 210.731L184.83 211.64C184.706 211.549 184.576 211.484 184.441 211.442C184.309 211.397 184.178 211.375 184.046 211.375C183.771 211.375 183.545 211.472 183.369 211.668C183.192 211.864 183.103 212.125 183.103 212.452V213.327H184.83V214.36H183.103V218.971ZM191.038 218.299C190.338 218.822 189.569 219.084 188.73 219.084C188.132 219.084 187.596 218.952 187.122 218.689C186.648 218.425 186.273 218.066 185.999 217.611C185.724 217.155 185.587 216.642 185.587 216.07C185.587 215.524 185.713 215.037 185.965 214.608C186.217 214.176 186.561 213.835 186.997 213.587C187.434 213.338 187.929 213.214 188.482 213.214C189.054 213.214 189.556 213.35 189.989 213.621C190.425 213.892 190.764 214.27 191.004 214.755C191.249 215.237 191.371 215.795 191.371 216.431V216.612H186.839C186.907 216.905 187.033 217.163 187.218 217.385C187.406 217.603 187.639 217.774 187.917 217.898C188.2 218.019 188.516 218.079 188.865 218.079C189.49 218.079 190.064 217.876 190.587 217.47L191.038 218.299ZM186.789 215.81H190.293C190.256 215.494 190.158 215.22 190 214.986C189.842 214.749 189.637 214.565 189.385 214.433C189.136 214.298 188.856 214.23 188.544 214.23C188.228 214.23 187.944 214.298 187.692 214.433C187.44 214.565 187.234 214.749 187.076 214.986C186.922 215.223 186.826 215.498 186.789 215.81ZM193.741 218.971H192.585V213.327H193.595L193.64 214.399C193.836 214.027 194.105 213.737 194.447 213.53C194.793 213.32 195.19 213.214 195.638 213.214C195.747 213.214 195.856 213.222 195.965 213.237C196.078 213.248 196.191 213.267 196.304 213.293L196.157 214.337C195.939 214.281 195.724 214.253 195.514 214.253C195.164 214.253 194.855 214.337 194.588 214.507C194.321 214.672 194.112 214.902 193.962 215.195C193.815 215.489 193.741 215.827 193.741 216.211V218.971Z" fill="#049463"/>
<g clip-path="url(#clip1_4067_1607)">
<path d="M99.6238 265.825C99.3042 265.508 99.3042 264.995 99.6238 264.681C99.9433 264.368 100.46 264.364 100.776 264.681L102.952 266.841C103.105 266.993 103.19 267.199 103.19 267.415C103.19 267.631 103.105 267.837 102.952 267.988L100.776 270.148C100.457 270.465 99.9399 270.465 99.6238 270.148C99.3076 269.831 99.3042 269.318 99.6238 269.004L100.406 268.228L94.4907 268.221C94.0386 268.221 93.6748 267.86 93.6748 267.411C93.6748 266.963 94.0386 266.601 94.4907 266.601H100.409L99.6238 265.825ZM85.0064 277.163L84.2245 277.939H90.1395C90.5916 277.939 90.9553 278.301 90.9553 278.749C90.9553 279.198 90.5916 279.559 90.1395 279.559H84.2211L85.003 280.335C85.3225 280.652 85.3225 281.165 85.003 281.479C84.6834 281.793 84.1667 281.796 83.8506 281.479L81.675 279.323C81.522 279.171 81.437 278.965 81.437 278.749C81.437 278.533 81.522 278.328 81.675 278.176L83.8506 276.016C84.1701 275.699 84.6868 275.699 85.003 276.016C85.3191 276.333 85.3225 276.846 85.003 277.16L85.0064 277.163ZM84.7004 266.601H92.9236C92.7978 266.844 92.723 267.118 92.723 267.411C92.723 268.38 93.5151 269.166 94.4907 269.166H98.4816C98.3456 269.74 98.502 270.364 98.9507 270.813C99.6408 271.498 100.759 271.498 101.449 270.813L102.105 270.161V277.4C102.105 278.591 101.13 279.559 99.9297 279.559H91.7066C91.8324 279.316 91.9071 279.043 91.9071 278.749C91.9071 277.781 91.1151 276.995 90.1395 276.995H86.1486C86.2845 276.421 86.1282 275.797 85.6795 275.348C84.9894 274.663 83.871 274.663 83.1809 275.348L82.5248 275.999V268.761C82.5248 267.57 83.5004 266.601 84.7004 266.601ZM86.876 268.761H84.7004V270.921C85.9004 270.921 86.876 269.952 86.876 268.761ZM99.9297 275.24C98.7297 275.24 97.7541 276.208 97.7541 277.4H99.9297V275.24ZM92.3151 276.32C93.1806 276.32 94.0106 275.978 94.6227 275.371C95.2347 274.763 95.5785 273.939 95.5785 273.08C95.5785 272.221 95.2347 271.397 94.6227 270.79C94.0106 270.182 93.1806 269.841 92.3151 269.841C91.4496 269.841 90.6195 270.182 90.0075 270.79C89.3955 271.397 89.0517 272.221 89.0517 273.08C89.0517 273.939 89.3955 274.763 90.0075 275.371C90.6195 275.978 91.4496 276.32 92.3151 276.32Z" fill="#737171"/>
</g>
<path d="M132.049 277.579H130.808V270.869L128.217 276.157H127.167L124.588 270.897V277.579H123.347V269.114H124.938L127.692 274.819L130.446 269.114H132.049V277.579ZM136.237 277.692C135.672 277.692 135.164 277.564 134.713 277.308C134.261 277.052 133.906 276.704 133.646 276.264C133.387 275.82 133.257 275.318 133.257 274.757C133.257 274.2 133.387 273.702 133.646 273.262C133.906 272.818 134.261 272.468 134.713 272.212C135.164 271.952 135.672 271.822 136.237 271.822C136.805 271.822 137.313 271.952 137.76 272.212C138.208 272.468 138.56 272.818 138.816 273.262C139.075 273.702 139.205 274.2 139.205 274.757C139.205 275.318 139.075 275.82 138.816 276.264C138.56 276.704 138.208 277.052 137.76 277.308C137.313 277.564 136.805 277.692 136.237 277.692ZM136.231 276.653C136.573 276.653 136.878 276.571 137.145 276.405C137.416 276.236 137.629 276.01 137.783 275.728C137.941 275.442 138.02 275.118 138.02 274.757C138.02 274.396 137.941 274.074 137.783 273.792C137.629 273.506 137.416 273.28 137.145 273.115C136.878 272.946 136.573 272.861 136.231 272.861C135.892 272.861 135.588 272.946 135.317 273.115C135.046 273.28 134.831 273.506 134.673 273.792C134.519 274.074 134.442 274.396 134.442 274.757C134.442 275.118 134.519 275.442 134.673 275.728C134.831 276.01 135.046 276.236 135.317 276.405C135.588 276.571 135.892 276.653 136.231 276.653ZM141.434 277.579H140.413V269.114H141.57V272.658C141.826 272.394 142.125 272.189 142.467 272.043C142.813 271.896 143.189 271.822 143.596 271.822C144.141 271.822 144.627 271.95 145.052 272.206C145.477 272.462 145.812 272.812 146.056 273.256C146.305 273.696 146.429 274.197 146.429 274.757C146.429 275.314 146.305 275.814 146.056 276.258C145.812 276.702 145.477 277.052 145.052 277.308C144.627 277.564 144.141 277.692 143.596 277.692C143.167 277.692 142.772 277.611 142.411 277.449C142.053 277.284 141.747 277.058 141.491 276.772L141.434 277.579ZM143.41 276.653C143.759 276.653 144.072 276.571 144.346 276.405C144.625 276.239 144.843 276.014 145.001 275.728C145.163 275.442 145.244 275.118 145.244 274.757C145.244 274.396 145.163 274.072 145.001 273.786C144.843 273.5 144.625 273.275 144.346 273.109C144.072 272.944 143.759 272.861 143.41 272.861C143.075 272.861 142.772 272.936 142.501 273.087C142.234 273.237 142.017 273.444 141.852 273.707C141.686 273.971 141.592 274.272 141.57 274.61V274.898C141.592 275.233 141.684 275.534 141.846 275.801C142.012 276.065 142.228 276.273 142.495 276.428C142.766 276.578 143.071 276.653 143.41 276.653ZM148.235 270.299C148.058 270.299 147.909 270.237 147.789 270.112C147.668 269.988 147.608 269.838 147.608 269.661C147.608 269.484 147.668 269.336 147.789 269.215C147.909 269.091 148.058 269.029 148.235 269.029C148.415 269.029 148.566 269.091 148.686 269.215C148.81 269.336 148.872 269.484 148.872 269.661C148.872 269.838 148.81 269.988 148.686 270.112C148.566 270.237 148.415 270.299 148.235 270.299ZM148.81 277.579H147.653V271.935H148.81V277.579ZM151.689 277.579H150.458V269.114H151.689V277.579ZM158.348 276.907C157.648 277.43 156.879 277.692 156.04 277.692C155.442 277.692 154.905 277.56 154.431 277.297C153.957 277.033 153.583 276.674 153.308 276.219C153.034 275.764 152.896 275.25 152.896 274.678C152.896 274.133 153.022 273.645 153.274 273.216C153.526 272.784 153.871 272.443 154.307 272.195C154.744 271.947 155.238 271.822 155.791 271.822C156.363 271.822 156.866 271.958 157.298 272.229C157.735 272.5 158.073 272.878 158.314 273.363C158.559 273.845 158.681 274.403 158.681 275.039V275.22H154.149C154.217 275.513 154.343 275.771 154.527 275.993C154.715 276.211 154.949 276.382 155.227 276.507C155.509 276.627 155.825 276.687 156.175 276.687C156.8 276.687 157.373 276.484 157.896 276.078L158.348 276.907ZM154.098 274.418H157.603C157.565 274.102 157.468 273.828 157.31 273.595C157.151 273.358 156.946 273.173 156.694 273.041C156.446 272.906 156.166 272.838 155.853 272.838C155.537 272.838 155.253 272.906 155.001 273.041C154.749 273.173 154.544 273.358 154.386 273.595C154.232 273.832 154.136 274.106 154.098 274.418ZM171.351 277.579H170.109V270.869L167.519 276.157H166.469L163.89 270.897V277.579H162.648V269.114H164.24L166.994 274.819L169.748 269.114H171.351V277.579ZM175.538 277.692C174.974 277.692 174.466 277.564 174.014 277.308C173.563 277.052 173.207 276.704 172.948 276.264C172.688 275.82 172.558 275.318 172.558 274.757C172.558 274.2 172.688 273.702 172.948 273.262C173.207 272.818 173.563 272.468 174.014 272.212C174.466 271.952 174.974 271.822 175.538 271.822C176.106 271.822 176.614 271.952 177.062 272.212C177.51 272.468 177.861 272.818 178.117 273.262C178.377 273.702 178.507 274.2 178.507 274.757C178.507 275.318 178.377 275.82 178.117 276.264C177.861 276.704 177.51 277.052 177.062 277.308C176.614 277.564 176.106 277.692 175.538 277.692ZM175.532 276.653C175.875 276.653 176.18 276.571 176.447 276.405C176.718 276.236 176.93 276.01 177.084 275.728C177.242 275.442 177.321 275.118 177.321 274.757C177.321 274.396 177.242 274.074 177.084 273.792C176.93 273.506 176.718 273.28 176.447 273.115C176.18 272.946 175.875 272.861 175.532 272.861C175.194 272.861 174.889 272.946 174.618 273.115C174.347 273.28 174.133 273.506 173.975 273.792C173.821 274.074 173.743 274.396 173.743 274.757C173.743 275.118 173.821 275.442 173.975 275.728C174.133 276.01 174.347 276.236 174.618 276.405C174.889 276.571 175.194 276.653 175.532 276.653ZM185.115 277.579H183.958V274.43C183.958 273.948 183.828 273.568 183.569 273.29C183.313 273.011 182.963 272.872 182.519 272.872C182.203 272.872 181.921 272.944 181.673 273.087C181.424 273.23 181.229 273.433 181.086 273.696C180.943 273.956 180.871 274.259 180.871 274.605V277.579H179.714V271.935H180.691L180.73 272.844C180.937 272.513 181.219 272.261 181.577 272.088C181.934 271.911 182.339 271.822 182.79 271.822C183.505 271.822 184.071 272.039 184.489 272.471C184.906 272.904 185.115 273.491 185.115 274.232V277.579ZM191.667 276.907C190.967 277.43 190.198 277.692 189.359 277.692C188.761 277.692 188.225 277.56 187.751 277.297C187.277 277.033 186.902 276.674 186.628 276.219C186.353 275.764 186.216 275.25 186.216 274.678C186.216 274.133 186.342 273.645 186.594 273.216C186.846 272.784 187.19 272.443 187.627 272.195C188.063 271.947 188.558 271.822 189.111 271.822C189.683 271.822 190.185 271.958 190.618 272.229C191.054 272.5 191.393 272.878 191.633 273.363C191.878 273.845 192 274.403 192 275.039V275.22H187.469C187.536 275.513 187.662 275.771 187.847 275.993C188.035 276.211 188.268 276.382 188.546 276.507C188.829 276.627 189.145 276.687 189.495 276.687C190.119 276.687 190.693 276.484 191.216 276.078L191.667 276.907ZM187.418 274.418H190.922C190.885 274.102 190.787 273.828 190.629 273.595C190.471 273.358 190.266 273.173 190.014 273.041C189.765 272.906 189.485 272.838 189.173 272.838C188.857 272.838 188.573 272.906 188.321 273.041C188.069 273.173 187.864 273.358 187.706 273.595C187.551 273.832 187.455 274.106 187.418 274.418ZM195.161 280.401H193.913L195.093 277.545L192.345 271.935H193.637L195.646 276.219L197.418 271.935H198.66L195.161 280.401Z" fill="black"/>
<g clip-path="url(#clip2_4067_1607)">
<path d="M102.339 322.934C102.019 322.617 102.019 322.104 102.339 321.79C102.658 321.477 103.175 321.473 103.491 321.79L105.667 323.95C105.82 324.102 105.905 324.308 105.905 324.524C105.905 324.74 105.82 324.946 105.667 325.097L103.491 327.257C103.171 327.574 102.655 327.574 102.339 327.257C102.022 326.94 102.019 326.427 102.339 326.113L103.12 325.337L97.2055 325.33C96.7534 325.33 96.3897 324.969 96.3897 324.52C96.3897 324.072 96.7534 323.71 97.2055 323.71H103.124L102.339 322.934ZM87.7212 334.272L86.9394 335.048H92.8543C93.3064 335.048 93.6702 335.41 93.6702 335.858C93.6702 336.307 93.3064 336.668 92.8543 336.668H86.936L87.7178 337.444C88.0374 337.761 88.0374 338.274 87.7178 338.588C87.3983 338.902 86.8816 338.905 86.5654 338.588L84.3898 336.432C84.2368 336.28 84.1519 336.074 84.1519 335.858C84.1519 335.642 84.2368 335.437 84.3898 335.285L86.5654 333.125C86.885 332.808 87.4017 332.808 87.7178 333.125C88.034 333.442 88.0374 333.955 87.7178 334.269L87.7212 334.272ZM87.4153 323.71H95.6384C95.5126 323.953 95.4378 324.227 95.4378 324.52C95.4378 325.489 96.2299 326.275 97.2055 326.275H101.196C101.06 326.849 101.217 327.473 101.666 327.922C102.356 328.607 103.474 328.607 104.164 327.922L104.82 327.27V334.509C104.82 335.7 103.845 336.668 102.645 336.668H94.4214C94.5472 336.425 94.622 336.152 94.622 335.858C94.622 334.89 93.8299 334.104 92.8543 334.104H88.8634C88.9994 333.53 88.843 332.906 88.3943 332.457C87.7042 331.772 86.5858 331.772 85.8957 332.457L85.2397 333.108V325.87C85.2397 324.679 86.2153 323.71 87.4153 323.71ZM89.5909 325.87H87.4153V328.03C88.6153 328.03 89.5909 327.061 89.5909 325.87ZM102.645 332.349C101.445 332.349 100.469 333.317 100.469 334.509H102.645V332.349ZM95.0299 333.429C95.8954 333.429 96.7255 333.087 97.3375 332.48C97.9495 331.872 98.2933 331.048 98.2933 330.189C98.2933 329.33 97.9495 328.506 97.3375 327.899C96.7255 327.291 95.8954 326.95 95.0299 326.95C94.1644 326.95 93.3343 327.291 92.7223 327.899C92.1103 328.506 91.7665 329.33 91.7665 330.189C91.7665 331.048 92.1103 331.872 92.7223 332.48C93.3343 333.087 94.1644 333.429 95.0299 333.429Z" fill="#737171"/>
</g>
<path d="M134.691 333.611C134.299 334.002 133.833 334.309 133.291 334.531C132.753 334.749 132.166 334.858 131.53 334.858C130.894 334.858 130.307 334.749 129.769 334.531C129.231 334.312 128.763 334.006 128.364 333.611C127.969 333.212 127.661 332.745 127.439 332.211C127.22 331.673 127.111 331.088 127.111 330.456C127.111 329.82 127.22 329.235 127.439 328.701C127.661 328.163 127.969 327.696 128.364 327.301C128.763 326.906 129.231 326.6 129.769 326.381C130.307 326.163 130.894 326.054 131.53 326.054C132.162 326.054 132.747 326.165 133.285 326.387C133.827 326.605 134.292 326.908 134.679 327.296L133.816 328.176C133.534 327.856 133.195 327.606 132.8 327.426C132.409 327.241 131.98 327.149 131.513 327.149C131.062 327.149 130.646 327.232 130.266 327.397C129.886 327.559 129.555 327.79 129.273 328.091C128.991 328.389 128.77 328.739 128.612 329.141C128.458 329.544 128.381 329.982 128.381 330.456C128.381 330.93 128.458 331.368 128.612 331.771C128.77 332.174 128.991 332.525 129.273 332.826C129.555 333.124 129.886 333.355 130.266 333.521C130.646 333.682 131.062 333.763 131.513 333.763C131.98 333.763 132.409 333.673 132.8 333.492C133.195 333.308 133.532 333.056 133.81 332.736L134.691 333.611ZM140.65 334.689H139.651L139.583 333.966C139.377 334.23 139.115 334.435 138.799 334.581C138.483 334.728 138.133 334.802 137.749 334.802C137.347 334.802 136.987 334.723 136.671 334.565C136.355 334.407 136.107 334.19 135.926 333.916C135.746 333.641 135.656 333.329 135.656 332.979C135.656 332.61 135.753 332.286 135.949 332.008C136.145 331.726 136.412 331.506 136.75 331.348C137.089 331.186 137.475 331.105 137.907 331.105C138.178 331.105 138.453 331.137 138.731 331.201C139.013 331.265 139.267 331.355 139.493 331.472V331.263C139.493 330.988 139.422 330.753 139.279 330.558C139.139 330.358 138.948 330.206 138.703 330.101C138.462 329.995 138.195 329.943 137.902 329.943C137.642 329.943 137.377 329.988 137.106 330.078C136.839 330.168 136.587 330.307 136.35 330.496L136 329.553C136.342 329.35 136.698 329.196 137.066 329.09C137.439 328.985 137.804 328.932 138.161 328.932C138.673 328.932 139.113 329.034 139.482 329.237C139.854 329.44 140.142 329.73 140.345 330.106C140.548 330.479 140.65 330.919 140.65 331.427V334.689ZM137.975 333.82C138.242 333.82 138.489 333.765 138.714 333.656C138.94 333.543 139.123 333.385 139.262 333.182C139.405 332.975 139.482 332.734 139.493 332.46V332.381C139.301 332.238 139.085 332.127 138.844 332.048C138.607 331.965 138.364 331.923 138.116 331.923C137.736 331.923 137.42 332.014 137.168 332.194C136.916 332.375 136.79 332.606 136.79 332.888C136.79 333.065 136.841 333.225 136.942 333.368C137.048 333.507 137.189 333.618 137.366 333.701C137.546 333.78 137.749 333.82 137.975 333.82ZM141.773 334.198L142.055 333.159C142.183 333.287 142.336 333.4 142.512 333.498C142.693 333.596 142.883 333.673 143.082 333.729C143.286 333.782 143.485 333.808 143.681 333.808C143.989 333.808 144.237 333.742 144.426 333.611C144.614 333.479 144.708 333.304 144.708 333.086C144.708 332.924 144.655 332.791 144.55 332.685C144.448 332.576 144.311 332.482 144.138 332.403C143.968 332.324 143.786 332.247 143.59 332.172C143.338 332.078 143.086 331.969 142.834 331.844C142.586 331.72 142.377 331.555 142.208 331.348C142.038 331.141 141.954 330.868 141.954 330.529C141.954 330.206 142.037 329.926 142.202 329.689C142.368 329.448 142.599 329.262 142.896 329.13C143.193 328.998 143.536 328.932 143.923 328.932C144.525 328.932 145.122 329.083 145.712 329.384L145.374 330.371C145.253 330.285 145.11 330.208 144.945 330.14C144.779 330.072 144.61 330.02 144.437 329.982C144.264 329.941 144.104 329.92 143.957 329.92C143.713 329.92 143.515 329.974 143.365 330.084C143.218 330.193 143.145 330.339 143.145 330.524C143.145 330.637 143.18 330.74 143.252 330.834C143.323 330.924 143.436 331.015 143.59 331.105C143.748 331.192 143.961 331.289 144.228 331.399C144.484 331.5 144.74 331.617 144.996 331.748C145.251 331.88 145.464 332.051 145.633 332.262C145.806 332.473 145.893 332.749 145.893 333.092C145.893 333.43 145.803 333.729 145.622 333.989C145.441 334.245 145.189 334.444 144.866 334.587C144.546 334.73 144.174 334.802 143.748 334.802C143.045 334.802 142.386 334.6 141.773 334.198ZM147.123 334.689V326.223H148.28V329.83C148.698 329.231 149.332 328.932 150.182 328.932C150.916 328.932 151.489 329.154 151.903 329.598C152.317 330.042 152.524 330.661 152.524 331.455V334.689H151.367V331.737C151.367 331.177 151.232 330.742 150.961 330.434C150.694 330.125 150.319 329.971 149.838 329.971C149.352 329.971 148.971 330.129 148.692 330.445C148.417 330.757 148.28 331.188 148.28 331.737V334.689H147.123ZM156.796 334.689V326.223H159.499C160.199 326.223 160.799 326.334 161.3 326.556C161.804 326.775 162.19 327.089 162.457 327.499C162.724 327.905 162.857 328.392 162.857 328.961C162.857 329.525 162.724 330.014 162.457 330.428C162.19 330.838 161.804 331.154 161.3 331.376C160.799 331.598 160.201 331.709 159.505 331.709H158.038V334.689H156.796ZM158.038 330.614H159.387C160.09 330.614 160.632 330.469 161.012 330.18C161.396 329.886 161.588 329.48 161.588 328.961C161.588 328.441 161.396 328.039 161.012 327.753C160.632 327.463 160.09 327.318 159.387 327.318H158.038V330.614ZM164.765 327.409C164.588 327.409 164.439 327.346 164.319 327.222C164.199 327.098 164.138 326.948 164.138 326.771C164.138 326.594 164.199 326.445 164.319 326.325C164.439 326.201 164.588 326.139 164.765 326.139C164.945 326.139 165.096 326.201 165.216 326.325C165.34 326.445 165.403 326.594 165.403 326.771C165.403 326.948 165.34 327.098 165.216 327.222C165.096 327.346 164.945 327.409 164.765 327.409ZM165.34 334.689H164.184V329.045H165.34V334.689ZM171.78 333.848C171.505 334.153 171.176 334.388 170.792 334.553C170.408 334.719 169.993 334.802 169.545 334.802C168.981 334.802 168.473 334.674 168.021 334.418C167.573 334.162 167.22 333.812 166.96 333.368C166.701 332.924 166.571 332.424 166.571 331.867C166.571 331.306 166.701 330.806 166.96 330.366C167.22 329.922 167.573 329.572 168.021 329.316C168.473 329.06 168.981 328.932 169.545 328.932C169.989 328.932 170.403 329.015 170.786 329.181C171.17 329.342 171.499 329.576 171.774 329.88L171.091 330.597C170.907 330.402 170.685 330.251 170.425 330.146C170.169 330.037 169.897 329.982 169.607 329.982C169.25 329.982 168.932 330.063 168.653 330.225C168.375 330.386 168.157 330.608 167.999 330.891C167.841 331.169 167.762 331.493 167.762 331.861C167.762 332.226 167.841 332.552 167.999 332.838C168.157 333.124 168.375 333.347 168.653 333.509C168.932 333.671 169.25 333.752 169.607 333.752C169.897 333.752 170.171 333.697 170.431 333.588C170.691 333.479 170.911 333.329 171.091 333.137L171.78 333.848ZM174.139 334.689H172.982V326.223H174.139V331.929L174.618 331.353L176.797 329.045H178.247L175.916 331.517L178.575 334.689H177.079L175.115 332.307L174.139 333.312V334.689ZM184.895 334.689H183.913L183.874 333.78C183.667 334.111 183.396 334.365 183.061 334.542C182.73 334.715 182.337 334.802 181.882 334.802C181.144 334.802 180.561 334.578 180.132 334.13C179.707 333.679 179.494 333.062 179.494 332.279V329.045H180.651V332.11C180.651 332.61 180.787 333.009 181.058 333.306C181.329 333.603 181.694 333.752 182.153 333.752C182.627 333.752 183.008 333.594 183.298 333.278C183.592 332.958 183.738 332.539 183.738 332.019V329.045H184.895V334.689ZM187.683 337.51H186.526V329.045H187.548L187.61 329.852C187.866 329.566 188.172 329.342 188.53 329.181C188.891 329.015 189.286 328.932 189.715 328.932C190.257 328.932 190.74 329.06 191.165 329.316C191.594 329.572 191.931 329.922 192.175 330.366C192.424 330.806 192.548 331.306 192.548 331.867C192.548 332.424 192.424 332.924 192.175 333.368C191.931 333.812 191.594 334.162 191.165 334.418C190.74 334.674 190.257 334.802 189.715 334.802C189.309 334.802 188.932 334.728 188.586 334.581C188.24 334.435 187.939 334.23 187.683 333.966V337.51ZM189.529 333.752C189.886 333.752 190.202 333.671 190.477 333.509C190.751 333.347 190.966 333.125 191.12 332.843C191.278 332.557 191.357 332.23 191.357 331.861C191.357 331.493 191.278 331.167 191.12 330.885C190.966 330.599 190.751 330.375 190.477 330.213C190.202 330.052 189.888 329.971 189.534 329.971C189.199 329.971 188.897 330.046 188.626 330.196C188.359 330.343 188.14 330.546 187.971 330.806C187.805 331.066 187.71 331.361 187.683 331.692V332.042C187.71 332.373 187.804 332.668 187.965 332.928C188.131 333.184 188.347 333.385 188.614 333.532C188.885 333.679 189.19 333.752 189.529 333.752Z" fill="black"/>
</g>
<defs>
<filter id="filter0_d_4067_1607" x="1.8903" y="437.809" width="265.833" height="60.5092" filterUnits="userSpaceOnUse" color-interpolation-filters="sRGB">
<feFlood flood-opacity="0" result="BackgroundImageFix"/>
<feColorMatrix in="SourceAlpha" type="matrix" values="0 0 0 0 0 0 0 0 0 0 0 0 0 0 0 0 0 0 127 0" result="hardAlpha"/>
<feOffset dy="1.35976"/>
<feGaussianBlur stdDeviation="5.77897"/>
<feColorMatrix type="matrix" values="0 0 0 0 0.856303 0 0 0 0 0.859167 0 0 0 0 0.858192 0 0 0 1 0"/>
<feBlend mode="normal" in2="BackgroundImageFix" result="effect1_dropShadow_4067_1607"/>
<feBlend mode="normal" in="SourceGraphic" in2="effect1_dropShadow_4067_1607" result="shape"/>
</filter>
<clipPath id="clip0_4067_1607">
<rect x="0.529785" y="0.647095" width="267.192" height="579.257" rx="20.3964" fill="white"/>
</clipPath>
<clipPath id="clip1_4067_1607">
<rect width="21.7561" height="17.2769" fill="white" transform="translate(81.437 264.44)"/>
</clipPath>
<clipPath id="clip2_4067_1607">
<rect width="21.7561" height="17.2769" fill="white" transform="translate(84.1519 321.55)"/>
</clipPath>
</defs>
</svg>
